%TF.GenerationSoftware,KiCad,Pcbnew,8.0.9-8.0.9-0~ubuntu24.04.1*%
%TF.CreationDate,2026-06-02T16:36:42-04:00*%
%TF.ProjectId,controlador_multimedia,636f6e74-726f-46c6-9164-6f725f6d756c,rev?*%
%TF.SameCoordinates,Original*%
%TF.FileFunction,Soldermask,Top*%
%TF.FilePolarity,Negative*%
%FSLAX46Y46*%
G04 Gerber Fmt 4.6, Leading zero omitted, Abs format (unit mm)*
G04 Created by KiCad (PCBNEW 8.0.9-8.0.9-0~ubuntu24.04.1) date 2026-06-02 16:36:42*
%MOMM*%
%LPD*%
G01*
G04 APERTURE LIST*
%ADD10R,2.600000X2.600000*%
%ADD11C,2.600000*%
%ADD12O,1.700000X1.700000*%
%ADD13R,1.700000X1.700000*%
%ADD14C,1.676400*%
%ADD15C,2.000000*%
%ADD16O,1.600000X1.600000*%
%ADD17C,1.600000*%
%ADD18R,1.800000X1.800000*%
%ADD19C,1.800000*%
%ADD20R,2.000000X3.200000*%
%ADD21R,2.000000X2.000000*%
G04 APERTURE END LIST*
D10*
%TO.C,J8*%
X150525000Y-142000000D03*
D11*
X155525000Y-142000000D03*
%TD*%
D12*
%TO.C,J5*%
X174040000Y-155250000D03*
X171500000Y-155250000D03*
X168960000Y-155250000D03*
D13*
X166420000Y-155250000D03*
%TD*%
D14*
%TO.C,SW5*%
X155525000Y-154250000D03*
X152985000Y-154250000D03*
X150445000Y-154250000D03*
%TD*%
D12*
%TO.C,J2*%
X148575000Y-71690000D03*
X148575000Y-74230000D03*
X148575000Y-76770000D03*
X148575000Y-79310000D03*
X148575000Y-81850000D03*
X148575000Y-84390000D03*
X148575000Y-86930000D03*
X148575000Y-89470000D03*
X148575000Y-92010000D03*
X148575000Y-94550000D03*
X148575000Y-97090000D03*
X148575000Y-99630000D03*
X148575000Y-102170000D03*
X148575000Y-104710000D03*
D13*
X148575000Y-107250000D03*
%TD*%
D15*
%TO.C,SW1*%
X127500000Y-117500000D03*
X127500000Y-111000000D03*
X132000000Y-117500000D03*
X132000000Y-111000000D03*
%TD*%
D16*
%TO.C,R2*%
X147500000Y-121060000D03*
D17*
X147500000Y-113440000D03*
%TD*%
D16*
%TO.C,R3*%
X159000000Y-133060000D03*
D17*
X159000000Y-125440000D03*
%TD*%
D12*
%TO.C,J1*%
X173975000Y-71690000D03*
X173975000Y-74230000D03*
X173975000Y-76770000D03*
X173975000Y-79310000D03*
X173975000Y-81850000D03*
X173975000Y-84390000D03*
X173975000Y-86930000D03*
X173975000Y-89470000D03*
X173975000Y-92010000D03*
X173975000Y-94550000D03*
X173975000Y-97090000D03*
X173975000Y-99630000D03*
X173975000Y-102170000D03*
X173975000Y-104710000D03*
D13*
X173975000Y-107250000D03*
%TD*%
D16*
%TO.C,R4*%
X159000000Y-112940000D03*
D17*
X159000000Y-120560000D03*
%TD*%
D12*
%TO.C,J6*%
X174040000Y-124770000D03*
X171500000Y-124770000D03*
X168960000Y-124770000D03*
D13*
X166420000Y-124770000D03*
%TD*%
D18*
%TO.C,D2*%
X128000000Y-125500000D03*
D19*
X130540000Y-125500000D03*
%TD*%
D15*
%TO.C,SW3*%
X132000000Y-87000000D03*
X132000000Y-93500000D03*
X127500000Y-87000000D03*
X127500000Y-93500000D03*
%TD*%
D12*
%TO.C,J4*%
X139525000Y-156250000D03*
X136985000Y-156250000D03*
X134445000Y-156250000D03*
X131905000Y-156250000D03*
X129365000Y-156250000D03*
D13*
X126825000Y-156250000D03*
%TD*%
D19*
%TO.C,D1*%
X139500000Y-125500000D03*
D18*
X136960000Y-125500000D03*
%TD*%
D16*
%TO.C,R1*%
X147500000Y-124940000D03*
D17*
X147500000Y-132560000D03*
%TD*%
D15*
%TO.C,SW2*%
X132000000Y-99000000D03*
X132000000Y-105500000D03*
X127500000Y-99000000D03*
X127500000Y-105500000D03*
%TD*%
D13*
%TO.C,J3*%
X126825000Y-133390000D03*
D12*
X129365000Y-133390000D03*
X131905000Y-133390000D03*
X134445000Y-133390000D03*
X136985000Y-133390000D03*
X139525000Y-133390000D03*
%TD*%
D13*
%TO.C,J7*%
X173525000Y-117000000D03*
D12*
X170985000Y-117000000D03*
X168445000Y-117000000D03*
%TD*%
D20*
%TO.C,SW4*%
X138500000Y-73000000D03*
X127300000Y-73000000D03*
D21*
X135400000Y-65500000D03*
D15*
X130400000Y-65500000D03*
X132900000Y-65500000D03*
X130400000Y-80000000D03*
X135400000Y-80000000D03*
%TD*%
M02*
