%TF.GenerationSoftware,KiCad,Pcbnew,8.0.9-8.0.9-0~ubuntu24.04.1*%
%TF.CreationDate,2026-06-02T16:36:42-04:00*%
%TF.ProjectId,controlador_multimedia,636f6e74-726f-46c6-9164-6f725f6d756c,rev?*%
%TF.SameCoordinates,Original*%
%TF.FileFunction,Copper,L1,Top*%
%TF.FilePolarity,Positive*%
%FSLAX46Y46*%
G04 Gerber Fmt 4.6, Leading zero omitted, Abs format (unit mm)*
G04 Created by KiCad (PCBNEW 8.0.9-8.0.9-0~ubuntu24.04.1) date 2026-06-02 16:36:42*
%MOMM*%
%LPD*%
G01*
G04 APERTURE LIST*
%TA.AperFunction,ComponentPad*%
%ADD10R,2.600000X2.600000*%
%TD*%
%TA.AperFunction,ComponentPad*%
%ADD11C,2.600000*%
%TD*%
%TA.AperFunction,ComponentPad*%
%ADD12O,1.700000X1.700000*%
%TD*%
%TA.AperFunction,ComponentPad*%
%ADD13R,1.700000X1.700000*%
%TD*%
%TA.AperFunction,ComponentPad*%
%ADD14C,1.676400*%
%TD*%
%TA.AperFunction,ComponentPad*%
%ADD15C,2.000000*%
%TD*%
%TA.AperFunction,ComponentPad*%
%ADD16O,1.600000X1.600000*%
%TD*%
%TA.AperFunction,ComponentPad*%
%ADD17C,1.600000*%
%TD*%
%TA.AperFunction,ComponentPad*%
%ADD18R,1.800000X1.800000*%
%TD*%
%TA.AperFunction,ComponentPad*%
%ADD19C,1.800000*%
%TD*%
%TA.AperFunction,WasherPad*%
%ADD20R,2.000000X3.200000*%
%TD*%
%TA.AperFunction,ComponentPad*%
%ADD21R,2.000000X2.000000*%
%TD*%
%TA.AperFunction,Conductor*%
%ADD22C,0.800000*%
%TD*%
%TA.AperFunction,Conductor*%
%ADD23C,1.000000*%
%TD*%
G04 APERTURE END LIST*
D10*
%TO.P,J8,1,Pin_1*%
%TO.N,/BAT_P*%
X150525000Y-142000000D03*
D11*
%TO.P,J8,2,Pin_2*%
%TO.N,GND*%
X155525000Y-142000000D03*
%TD*%
D12*
%TO.P,J5,4,Pin_4*%
%TO.N,GND*%
X174040000Y-155250000D03*
%TO.P,J5,3,Pin_3*%
%TO.N,unconnected-(J5-Pin_3-Pad3)*%
X171500000Y-155250000D03*
%TO.P,J5,2,Pin_2*%
%TO.N,unconnected-(J5-Pin_2-Pad2)*%
X168960000Y-155250000D03*
D13*
%TO.P,J5,1,Pin_1*%
%TO.N,/PWR_SW*%
X166420000Y-155250000D03*
%TD*%
D14*
%TO.P,SW5,1,A*%
%TO.N,/PWR_SW*%
X155525000Y-154250000D03*
%TO.P,SW5,2,B*%
%TO.N,/OUT_P*%
X152985000Y-154250000D03*
%TO.P,SW5,3,C*%
%TO.N,unconnected-(SW5-C-Pad3)*%
X150445000Y-154250000D03*
%TD*%
D12*
%TO.P,J2,15,Pin_15*%
%TO.N,VCC*%
X148575000Y-71690000D03*
%TO.P,J2,14,Pin_14*%
%TO.N,GND*%
X148575000Y-74230000D03*
%TO.P,J2,13,Pin_13*%
%TO.N,unconnected-(J2-Pin_13-Pad13)*%
X148575000Y-76770000D03*
%TO.P,J2,12,Pin_12*%
%TO.N,unconnected-(J2-Pin_12-Pad12)*%
X148575000Y-79310000D03*
%TO.P,J2,11,Pin_11*%
%TO.N,unconnected-(J2-Pin_11-Pad11)*%
X148575000Y-81850000D03*
%TO.P,J2,10,Pin_10*%
%TO.N,unconnected-(J2-Pin_10-Pad10)*%
X148575000Y-84390000D03*
%TO.P,J2,9,Pin_9*%
%TO.N,unconnected-(J2-Pin_9-Pad9)*%
X148575000Y-86930000D03*
%TO.P,J2,8,Pin_8*%
%TO.N,unconnected-(J2-Pin_8-Pad8)*%
X148575000Y-89470000D03*
%TO.P,J2,7,Pin_7*%
%TO.N,/ENC_CLK*%
X148575000Y-92010000D03*
%TO.P,J2,6,Pin_6*%
%TO.N,/ENC_DT*%
X148575000Y-94550000D03*
%TO.P,J2,5,Pin_5*%
%TO.N,/ENC_SW*%
X148575000Y-97090000D03*
%TO.P,J2,4,Pin_4*%
%TO.N,unconnected-(J2-Pin_4-Pad4)*%
X148575000Y-99630000D03*
%TO.P,J2,3,Pin_3*%
%TO.N,unconnected-(J2-Pin_3-Pad3)*%
X148575000Y-102170000D03*
%TO.P,J2,2,Pin_2*%
%TO.N,/BTN_PREV*%
X148575000Y-104710000D03*
D13*
%TO.P,J2,1,Pin_1*%
%TO.N,/BTN_NEXT*%
X148575000Y-107250000D03*
%TD*%
D15*
%TO.P,SW1,2,2*%
%TO.N,GND*%
X127500000Y-117500000D03*
X127500000Y-111000000D03*
%TO.P,SW1,1,1*%
%TO.N,/BTN_MUTE*%
X132000000Y-117500000D03*
X132000000Y-111000000D03*
%TD*%
D16*
%TO.P,R2,2*%
%TO.N,Net-(D2-A)*%
X147500000Y-121060000D03*
D17*
%TO.P,R2,1*%
%TO.N,/LED_BAT*%
X147500000Y-113440000D03*
%TD*%
D16*
%TO.P,R3,2*%
%TO.N,/BAT_P*%
X159000000Y-133060000D03*
D17*
%TO.P,R3,1*%
%TO.N,/VBAT_ADC*%
X159000000Y-125440000D03*
%TD*%
D12*
%TO.P,J1,15,Pin_15*%
%TO.N,unconnected-(J1-Pin_15-Pad15)*%
X173975000Y-71690000D03*
%TO.P,J1,14,Pin_14*%
%TO.N,GND*%
X173975000Y-74230000D03*
%TO.P,J1,13,Pin_13*%
%TO.N,unconnected-(J1-Pin_13-Pad13)*%
X173975000Y-76770000D03*
%TO.P,J1,12,Pin_12*%
%TO.N,unconnected-(J1-Pin_12-Pad12)*%
X173975000Y-79310000D03*
%TO.P,J1,11,Pin_11*%
%TO.N,unconnected-(J1-Pin_11-Pad11)*%
X173975000Y-81850000D03*
%TO.P,J1,10,Pin_10*%
%TO.N,unconnected-(J1-Pin_10-Pad10)*%
X173975000Y-84390000D03*
%TO.P,J1,9,Pin_9*%
%TO.N,unconnected-(J1-Pin_9-Pad9)*%
X173975000Y-86930000D03*
%TO.P,J1,8,Pin_8*%
%TO.N,/BTN_MUTE*%
X173975000Y-89470000D03*
%TO.P,J1,7,Pin_7*%
%TO.N,/LED_BAT*%
X173975000Y-92010000D03*
%TO.P,J1,6,Pin_6*%
%TO.N,/LED_BT*%
X173975000Y-94550000D03*
%TO.P,J1,5,Pin_5*%
%TO.N,unconnected-(J1-Pin_5-Pad5)*%
X173975000Y-97090000D03*
%TO.P,J1,4,Pin_4*%
%TO.N,/VBAT_ADC*%
X173975000Y-99630000D03*
%TO.P,J1,3,Pin_3*%
%TO.N,unconnected-(J1-Pin_3-Pad3)*%
X173975000Y-102170000D03*
%TO.P,J1,2,Pin_2*%
%TO.N,unconnected-(J1-Pin_2-Pad2)*%
X173975000Y-104710000D03*
D13*
%TO.P,J1,1,Pin_1*%
%TO.N,unconnected-(J1-Pin_1-Pad1)*%
X173975000Y-107250000D03*
%TD*%
D16*
%TO.P,R4,2*%
%TO.N,GND*%
X159000000Y-112940000D03*
D17*
%TO.P,R4,1*%
%TO.N,/VBAT_ADC*%
X159000000Y-120560000D03*
%TD*%
D12*
%TO.P,J6,4,Pin_4*%
%TO.N,GND*%
X174040000Y-124770000D03*
%TO.P,J6,3,Pin_3*%
%TO.N,unconnected-(J6-Pin_3-Pad3)*%
X171500000Y-124770000D03*
%TO.P,J6,2,Pin_2*%
%TO.N,unconnected-(J6-Pin_2-Pad2)*%
X168960000Y-124770000D03*
D13*
%TO.P,J6,1,Pin_1*%
%TO.N,/BOOST_P*%
X166420000Y-124770000D03*
%TD*%
D18*
%TO.P,D2,1,K*%
%TO.N,GND*%
X128000000Y-125500000D03*
D19*
%TO.P,D2,2,A*%
%TO.N,Net-(D2-A)*%
X130540000Y-125500000D03*
%TD*%
D15*
%TO.P,SW3,1,1*%
%TO.N,/BTN_PREV*%
X132000000Y-87000000D03*
X132000000Y-93500000D03*
%TO.P,SW3,2,2*%
%TO.N,GND*%
X127500000Y-87000000D03*
X127500000Y-93500000D03*
%TD*%
D12*
%TO.P,J4,6,Pin_6*%
%TO.N,unconnected-(J4-Pin_6-Pad6)*%
X139525000Y-156250000D03*
%TO.P,J4,5,Pin_5*%
%TO.N,unconnected-(J4-Pin_5-Pad5)*%
X136985000Y-156250000D03*
%TO.P,J4,4,Pin_4*%
%TO.N,unconnected-(J4-Pin_4-Pad4)*%
X134445000Y-156250000D03*
%TO.P,J4,3,Pin_3*%
%TO.N,unconnected-(J4-Pin_3-Pad3)*%
X131905000Y-156250000D03*
%TO.P,J4,2,Pin_2*%
%TO.N,unconnected-(J4-Pin_2-Pad2)*%
X129365000Y-156250000D03*
D13*
%TO.P,J4,1,Pin_1*%
%TO.N,unconnected-(J4-Pin_1-Pad1)*%
X126825000Y-156250000D03*
%TD*%
D19*
%TO.P,D1,2,A*%
%TO.N,Net-(D1-A)*%
X139500000Y-125500000D03*
D18*
%TO.P,D1,1,K*%
%TO.N,GND*%
X136960000Y-125500000D03*
%TD*%
D16*
%TO.P,R1,2*%
%TO.N,/LED_BT*%
X147500000Y-124940000D03*
D17*
%TO.P,R1,1*%
%TO.N,Net-(D1-A)*%
X147500000Y-132560000D03*
%TD*%
D15*
%TO.P,SW2,1,1*%
%TO.N,/BTN_NEXT*%
X132000000Y-99000000D03*
X132000000Y-105500000D03*
%TO.P,SW2,2,2*%
%TO.N,GND*%
X127500000Y-99000000D03*
X127500000Y-105500000D03*
%TD*%
D13*
%TO.P,J3,1,Pin_1*%
%TO.N,/OUT_P*%
X126825000Y-133390000D03*
D12*
%TO.P,J3,2,Pin_2*%
%TO.N,/BAT_P*%
X129365000Y-133390000D03*
%TO.P,J3,3,Pin_3*%
%TO.N,unconnected-(J3-Pin_3-Pad3)*%
X131905000Y-133390000D03*
%TO.P,J3,4,Pin_4*%
%TO.N,unconnected-(J3-Pin_4-Pad4)*%
X134445000Y-133390000D03*
%TO.P,J3,5,Pin_5*%
%TO.N,GND*%
X136985000Y-133390000D03*
%TO.P,J3,6,Pin_6*%
X139525000Y-133390000D03*
%TD*%
D13*
%TO.P,J7,1,Pin_1*%
%TO.N,/BOOST_P*%
X173525000Y-117000000D03*
D12*
%TO.P,J7,2,Pin_2*%
%TO.N,VCC*%
X170985000Y-117000000D03*
%TO.P,J7,3,Pin_3*%
%TO.N,GND*%
X168445000Y-117000000D03*
%TD*%
D20*
%TO.P,SW4,*%
%TO.N,*%
X138500000Y-73000000D03*
X127300000Y-73000000D03*
D21*
%TO.P,SW4,A,A*%
%TO.N,/ENC_CLK*%
X135400000Y-65500000D03*
D15*
%TO.P,SW4,B,B*%
%TO.N,/ENC_DT*%
X130400000Y-65500000D03*
%TO.P,SW4,C,C*%
%TO.N,GND*%
X132900000Y-65500000D03*
%TO.P,SW4,S1,S1*%
%TO.N,/ENC_SW*%
X130400000Y-80000000D03*
%TO.P,SW4,S2,S2*%
%TO.N,GND*%
X135400000Y-80000000D03*
%TD*%
D22*
%TO.N,/BTN_MUTE*%
X132000000Y-111000000D02*
X132500000Y-110500000D01*
X132500000Y-110500000D02*
X150000000Y-110500000D01*
X150000000Y-110500000D02*
X171030000Y-89470000D01*
X171030000Y-89470000D02*
X173975000Y-89470000D01*
D23*
%TO.N,/PWR_SW*%
X166420000Y-155250000D02*
X156525000Y-155250000D01*
%TO.N,VCC*%
X148575000Y-71690000D02*
X148575000Y-70425000D01*
X148575000Y-70425000D02*
X150500000Y-68500000D01*
X150500000Y-68500000D02*
X176500000Y-68500000D01*
X170985000Y-115515000D02*
X170985000Y-117000000D01*
X176500000Y-68500000D02*
X178000000Y-70000000D01*
X178000000Y-70000000D02*
X178000000Y-108500000D01*
X178000000Y-108500000D02*
X170985000Y-115515000D01*
%TO.N,/BOOST_P*%
X166420000Y-124770000D02*
X166420000Y-122920000D01*
X166420000Y-122920000D02*
X168340000Y-121000000D01*
X168340000Y-121000000D02*
X171000000Y-121000000D01*
D22*
%TO.N,/VBAT_ADC*%
X164000000Y-115500000D02*
X164000000Y-109000000D01*
X159000000Y-120560000D02*
X164000000Y-115560000D01*
X164000000Y-115560000D02*
X164000000Y-115500000D01*
X159000000Y-120560000D02*
X159000000Y-125440000D01*
D23*
%TO.N,/BAT_P*%
X150525000Y-142000000D02*
X150525000Y-141535000D01*
X150525000Y-141535000D02*
X159000000Y-133060000D01*
D22*
%TO.N,/ENC_DT*%
X130400000Y-65500000D02*
X130400000Y-70400000D01*
X130400000Y-70400000D02*
X140500000Y-80500000D01*
X140500000Y-80500000D02*
X140500000Y-91000000D01*
X140500000Y-91000000D02*
X144000000Y-94500000D01*
X144000000Y-94500000D02*
X145500000Y-94500000D01*
X145500000Y-94500000D02*
X145550000Y-94550000D01*
X145550000Y-94550000D02*
X148600000Y-94550000D01*
%TO.N,/ENC_CLK*%
X135400000Y-65500000D02*
X143500000Y-73600000D01*
X143500000Y-73600000D02*
X143500000Y-89214874D01*
X143500000Y-89214874D02*
X145375126Y-91090000D01*
X145375126Y-91090000D02*
X145375126Y-91155126D01*
X145375126Y-91155126D02*
X146230000Y-92010000D01*
X146230000Y-92010000D02*
X148600000Y-92010000D01*
%TO.N,/LED_BAT*%
X173975000Y-92010000D02*
X171990000Y-92010000D01*
X171990000Y-92010000D02*
X150560000Y-113440000D01*
X150560000Y-113440000D02*
X147500000Y-113440000D01*
%TO.N,/VBAT_ADC*%
X164000000Y-109000000D02*
X173370000Y-99630000D01*
X173370000Y-99630000D02*
X173975000Y-99630000D01*
%TO.N,/LED_BT*%
X173975000Y-94550000D02*
X172950000Y-94550000D01*
X172950000Y-94550000D02*
X152500000Y-115000000D01*
X152500000Y-115000000D02*
X152500000Y-119940000D01*
X152500000Y-119940000D02*
X147500000Y-124940000D01*
%TO.N,/BTN_NEXT*%
X132000000Y-105500000D02*
X133500000Y-105500000D01*
X133500000Y-105500000D02*
X135250000Y-107250000D01*
X135250000Y-107250000D02*
X148575000Y-107250000D01*
%TO.N,/BTN_PREV*%
X132000000Y-93500000D02*
X138500000Y-100000000D01*
X138500000Y-101500000D02*
X141710000Y-104710000D01*
X138500000Y-100000000D02*
X138500000Y-101500000D01*
X141710000Y-104710000D02*
X148575000Y-104710000D01*
%TO.N,/ENC_SW*%
X130400000Y-80000000D02*
X130400000Y-81400000D01*
X130400000Y-81400000D02*
X131500000Y-82500000D01*
X131500000Y-82500000D02*
X132500000Y-82500000D01*
X132500000Y-82500000D02*
X136000000Y-86000000D01*
X136000000Y-86000000D02*
X136000000Y-90650000D01*
X142440000Y-97090000D02*
X148575000Y-97090000D01*
X136000000Y-90650000D02*
X142440000Y-97090000D01*
%TO.N,/BTN_MUTE*%
X132000000Y-117500000D02*
X132000000Y-111000000D01*
%TO.N,/BTN_PREV*%
X132000000Y-93500000D02*
X132000000Y-87000000D01*
%TO.N,/BTN_NEXT*%
X132000000Y-99000000D02*
X132000000Y-105500000D01*
%TO.N,Net-(D1-A)*%
X139500000Y-125500000D02*
X141000000Y-125500000D01*
X141000000Y-125500000D02*
X143000000Y-127500000D01*
X143000000Y-127500000D02*
X143000000Y-130250000D01*
X143000000Y-130250000D02*
X145310000Y-132560000D01*
X145310000Y-132560000D02*
X147500000Y-132560000D01*
%TO.N,Net-(D2-A)*%
X130540000Y-125500000D02*
X130540000Y-122960000D01*
X130540000Y-122960000D02*
X132440000Y-121060000D01*
X132440000Y-121060000D02*
X147500000Y-121060000D01*
D23*
%TO.N,/BOOST_P*%
X171000000Y-121000000D02*
X173525000Y-118475000D01*
X173525000Y-118475000D02*
X173525000Y-117000000D01*
%TO.N,/PWR_SW*%
X156525000Y-155250000D02*
X155525000Y-154250000D01*
%TO.N,/OUT_P*%
X126825000Y-133390000D02*
X126825000Y-136325000D01*
X126825000Y-136325000D02*
X136000000Y-145500000D01*
X136000000Y-145500000D02*
X141500000Y-145500000D01*
X141500000Y-145500000D02*
X146500000Y-150500000D01*
X146500000Y-150500000D02*
X149294608Y-150500000D01*
X149294608Y-150500000D02*
X152985000Y-154190392D01*
X152985000Y-154190392D02*
X152985000Y-154250000D01*
%TO.N,/BAT_P*%
X150525000Y-142000000D02*
X137000000Y-142000000D01*
X137000000Y-142000000D02*
X129365000Y-134365000D01*
X129365000Y-134365000D02*
X129365000Y-133390000D01*
%TD*%
%TA.AperFunction,Conductor*%
%TO.N,GND*%
G36*
X139059075Y-133197007D02*
G01*
X139025000Y-133324174D01*
X139025000Y-133455826D01*
X139059075Y-133582993D01*
X139091988Y-133640000D01*
X137418012Y-133640000D01*
X137450925Y-133582993D01*
X137485000Y-133455826D01*
X137485000Y-133324174D01*
X137450925Y-133197007D01*
X137418012Y-133140000D01*
X139091988Y-133140000D01*
X139059075Y-133197007D01*
G37*
%TD.AperFunction*%
%TA.AperFunction,Conductor*%
G36*
X186345788Y-61019454D02*
G01*
X186426570Y-61073430D01*
X186480546Y-61154212D01*
X186499500Y-61249500D01*
X186499500Y-160750500D01*
X186480546Y-160845788D01*
X186426570Y-160926570D01*
X186345788Y-160980546D01*
X186250500Y-160999500D01*
X115749500Y-160999500D01*
X115654212Y-160980546D01*
X115573430Y-160926570D01*
X115519454Y-160845788D01*
X115500500Y-160750500D01*
X115500500Y-155352123D01*
X125474500Y-155352123D01*
X125474500Y-157147865D01*
X125474501Y-157147869D01*
X125480908Y-157207480D01*
X125480909Y-157207483D01*
X125531204Y-157342331D01*
X125617454Y-157457546D01*
X125732669Y-157543796D01*
X125867517Y-157594091D01*
X125927127Y-157600500D01*
X127722872Y-157600499D01*
X127782483Y-157594091D01*
X127917331Y-157543796D01*
X128032546Y-157457546D01*
X128118796Y-157342331D01*
X128118796Y-157342329D01*
X128129469Y-157328073D01*
X128132774Y-157330547D01*
X128173246Y-157282081D01*
X128259317Y-157237014D01*
X128356081Y-157228316D01*
X128448809Y-157257310D01*
X128489614Y-157285151D01*
X128493594Y-157288490D01*
X128493599Y-157288495D01*
X128687170Y-157424035D01*
X128901337Y-157523903D01*
X129129592Y-157585063D01*
X129129595Y-157585063D01*
X129129598Y-157585064D01*
X129364995Y-157605659D01*
X129365000Y-157605659D01*
X129365005Y-157605659D01*
X129600401Y-157585064D01*
X129600403Y-157585063D01*
X129600408Y-157585063D01*
X129828663Y-157523903D01*
X130042830Y-157424035D01*
X130236401Y-157288495D01*
X130403495Y-157121401D01*
X130431032Y-157082074D01*
X130501211Y-157014891D01*
X130591760Y-156979678D01*
X130688892Y-156981797D01*
X130777819Y-157020925D01*
X130838967Y-157082073D01*
X130866505Y-157121401D01*
X131033599Y-157288495D01*
X131227170Y-157424035D01*
X131441337Y-157523903D01*
X131669592Y-157585063D01*
X131669595Y-157585063D01*
X131669598Y-157585064D01*
X131904995Y-157605659D01*
X131905000Y-157605659D01*
X131905005Y-157605659D01*
X132140401Y-157585064D01*
X132140403Y-157585063D01*
X132140408Y-157585063D01*
X132368663Y-157523903D01*
X132582830Y-157424035D01*
X132776401Y-157288495D01*
X132943495Y-157121401D01*
X132971032Y-157082074D01*
X133041211Y-157014891D01*
X133131760Y-156979678D01*
X133228892Y-156981797D01*
X133317819Y-157020925D01*
X133378967Y-157082073D01*
X133406505Y-157121401D01*
X133573599Y-157288495D01*
X133767170Y-157424035D01*
X133981337Y-157523903D01*
X134209592Y-157585063D01*
X134209595Y-157585063D01*
X134209598Y-157585064D01*
X134444995Y-157605659D01*
X134445000Y-157605659D01*
X134445005Y-157605659D01*
X134680401Y-157585064D01*
X134680403Y-157585063D01*
X134680408Y-157585063D01*
X134908663Y-157523903D01*
X135122830Y-157424035D01*
X135316401Y-157288495D01*
X135483495Y-157121401D01*
X135511032Y-157082074D01*
X135581211Y-157014891D01*
X135671760Y-156979678D01*
X135768892Y-156981797D01*
X135857819Y-157020925D01*
X135918967Y-157082073D01*
X135946505Y-157121401D01*
X136113599Y-157288495D01*
X136307170Y-157424035D01*
X136521337Y-157523903D01*
X136749592Y-157585063D01*
X136749595Y-157585063D01*
X136749598Y-157585064D01*
X136984995Y-157605659D01*
X136985000Y-157605659D01*
X136985005Y-157605659D01*
X137220401Y-157585064D01*
X137220403Y-157585063D01*
X137220408Y-157585063D01*
X137448663Y-157523903D01*
X137662830Y-157424035D01*
X137856401Y-157288495D01*
X138023495Y-157121401D01*
X138051032Y-157082074D01*
X138121211Y-157014891D01*
X138211760Y-156979678D01*
X138308892Y-156981797D01*
X138397819Y-157020925D01*
X138458967Y-157082073D01*
X138486505Y-157121401D01*
X138653599Y-157288495D01*
X138847170Y-157424035D01*
X139061337Y-157523903D01*
X139289592Y-157585063D01*
X139289595Y-157585063D01*
X139289598Y-157585064D01*
X139524995Y-157605659D01*
X139525000Y-157605659D01*
X139525005Y-157605659D01*
X139760401Y-157585064D01*
X139760403Y-157585063D01*
X139760408Y-157585063D01*
X139988663Y-157523903D01*
X140202830Y-157424035D01*
X140396401Y-157288495D01*
X140563495Y-157121401D01*
X140699035Y-156927830D01*
X140798903Y-156713663D01*
X140860063Y-156485408D01*
X140873612Y-156330547D01*
X140880659Y-156250005D01*
X140880659Y-156249994D01*
X140860064Y-156014598D01*
X140860063Y-156014595D01*
X140860063Y-156014592D01*
X140798903Y-155786337D01*
X140714501Y-155605337D01*
X140699038Y-155572177D01*
X140699034Y-155572169D01*
X140591031Y-155417925D01*
X140563495Y-155378599D01*
X140396401Y-155211505D01*
X140357368Y-155184174D01*
X140202830Y-155075965D01*
X140171814Y-155061502D01*
X139988663Y-154976097D01*
X139988660Y-154976096D01*
X139760401Y-154914935D01*
X139525005Y-154894341D01*
X139524995Y-154894341D01*
X139289598Y-154914935D01*
X139061335Y-154976097D01*
X139061333Y-154976098D01*
X138847177Y-155075961D01*
X138847169Y-155075965D01*
X138653600Y-155211504D01*
X138486501Y-155378603D01*
X138458968Y-155417925D01*
X138388787Y-155485109D01*
X138298237Y-155520321D01*
X138201106Y-155518201D01*
X138112179Y-155479072D01*
X138051032Y-155417925D01*
X138023498Y-155378603D01*
X138023497Y-155378602D01*
X138023495Y-155378599D01*
X137856401Y-155211505D01*
X137817368Y-155184174D01*
X137662830Y-155075965D01*
X137631814Y-155061502D01*
X137448663Y-154976097D01*
X137448660Y-154976096D01*
X137220401Y-154914935D01*
X136985005Y-154894341D01*
X136984995Y-154894341D01*
X136749598Y-154914935D01*
X136521335Y-154976097D01*
X136521333Y-154976098D01*
X136307177Y-155075961D01*
X136307169Y-155075965D01*
X136113600Y-155211504D01*
X135946501Y-155378603D01*
X135918968Y-155417925D01*
X135848787Y-155485109D01*
X135758237Y-155520321D01*
X135661106Y-155518201D01*
X135572179Y-155479072D01*
X135511032Y-155417925D01*
X135483498Y-155378603D01*
X135483497Y-155378602D01*
X135483495Y-155378599D01*
X135316401Y-155211505D01*
X135277368Y-155184174D01*
X135122830Y-155075965D01*
X135091814Y-155061502D01*
X134908663Y-154976097D01*
X134908660Y-154976096D01*
X134680401Y-154914935D01*
X134445005Y-154894341D01*
X134444995Y-154894341D01*
X134209598Y-154914935D01*
X133981335Y-154976097D01*
X133981333Y-154976098D01*
X133767177Y-155075961D01*
X133767169Y-155075965D01*
X133573600Y-155211504D01*
X133406501Y-155378603D01*
X133378968Y-155417925D01*
X133308787Y-155485109D01*
X133218237Y-155520321D01*
X133121106Y-155518201D01*
X133032179Y-155479072D01*
X132971032Y-155417925D01*
X132943498Y-155378603D01*
X132943497Y-155378602D01*
X132943495Y-155378599D01*
X132776401Y-155211505D01*
X132737368Y-155184174D01*
X132582830Y-155075965D01*
X132551814Y-155061502D01*
X132368663Y-154976097D01*
X132368660Y-154976096D01*
X132140401Y-154914935D01*
X131905005Y-154894341D01*
X131904995Y-154894341D01*
X131669598Y-154914935D01*
X131441335Y-154976097D01*
X131441333Y-154976098D01*
X131227177Y-155075961D01*
X131227169Y-155075965D01*
X131033600Y-155211504D01*
X130866501Y-155378603D01*
X130838968Y-155417925D01*
X130768787Y-155485109D01*
X130678237Y-155520321D01*
X130581106Y-155518201D01*
X130492179Y-155479072D01*
X130431032Y-155417925D01*
X130403498Y-155378603D01*
X130403497Y-155378602D01*
X130403495Y-155378599D01*
X130236401Y-155211505D01*
X130197368Y-155184174D01*
X130042830Y-155075965D01*
X130011814Y-155061502D01*
X129828663Y-154976097D01*
X129828660Y-154976096D01*
X129600401Y-154914935D01*
X129365005Y-154894341D01*
X129364995Y-154894341D01*
X129129598Y-154914935D01*
X128901335Y-154976097D01*
X128901333Y-154976098D01*
X128687177Y-155075961D01*
X128687169Y-155075965D01*
X128493587Y-155211513D01*
X128489605Y-155214855D01*
X128485960Y-155216853D01*
X128484694Y-155217741D01*
X128484596Y-155217602D01*
X128404423Y-155261580D01*
X128307845Y-155272150D01*
X128214573Y-155244957D01*
X128138808Y-155184140D01*
X128130133Y-155171429D01*
X128129469Y-155171927D01*
X128118796Y-155157670D01*
X128118796Y-155157669D01*
X128032546Y-155042454D01*
X127917331Y-154956204D01*
X127825376Y-154921907D01*
X127782481Y-154905908D01*
X127722873Y-154899500D01*
X125927134Y-154899500D01*
X125927130Y-154899500D01*
X125927128Y-154899501D01*
X125914314Y-154900878D01*
X125867519Y-154905908D01*
X125867515Y-154905909D01*
X125732670Y-154956203D01*
X125617455Y-155042453D01*
X125617453Y-155042455D01*
X125531204Y-155157669D01*
X125480908Y-155292518D01*
X125474500Y-155352123D01*
X115500500Y-155352123D01*
X115500500Y-134246091D01*
X125472467Y-134246091D01*
X125472468Y-134246145D01*
X125474173Y-134279288D01*
X125474298Y-134284107D01*
X125474784Y-134293133D01*
X125475078Y-134296838D01*
X125475250Y-134300195D01*
X125476460Y-134308216D01*
X125477815Y-134318713D01*
X125480907Y-134347475D01*
X125480909Y-134347482D01*
X125495763Y-134387308D01*
X125503855Y-134413247D01*
X125507714Y-134428497D01*
X125510542Y-134439674D01*
X125636536Y-134745659D01*
X125756292Y-135036496D01*
X125805745Y-135156595D01*
X125824500Y-135251402D01*
X125824500Y-136423545D01*
X125862947Y-136616830D01*
X125862949Y-136616835D01*
X125938365Y-136798908D01*
X125938366Y-136798911D01*
X125938368Y-136798914D01*
X126047861Y-136962782D01*
X126187218Y-137102139D01*
X126187220Y-137102140D01*
X135222860Y-146137781D01*
X135222861Y-146137782D01*
X135222860Y-146137782D01*
X135362216Y-146277137D01*
X135362218Y-146277139D01*
X135526086Y-146386632D01*
X135632745Y-146430811D01*
X135708164Y-146462051D01*
X135901459Y-146500500D01*
X140982440Y-146500500D01*
X141077728Y-146519454D01*
X141158510Y-146573430D01*
X145722858Y-151137778D01*
X145722861Y-151137782D01*
X145862218Y-151277139D01*
X146026086Y-151386632D01*
X146154834Y-151439961D01*
X146208164Y-151462051D01*
X146304812Y-151481275D01*
X146401459Y-151500500D01*
X146401460Y-151500500D01*
X146598540Y-151500500D01*
X148777048Y-151500500D01*
X148872336Y-151519454D01*
X148953118Y-151573430D01*
X149994130Y-152614443D01*
X150048106Y-152695225D01*
X150067060Y-152790513D01*
X150048106Y-152885801D01*
X149994130Y-152966583D01*
X149923293Y-153016183D01*
X149773095Y-153086221D01*
X149773092Y-153086223D01*
X149581214Y-153220578D01*
X149415578Y-153386214D01*
X149281224Y-153578091D01*
X149182227Y-153790391D01*
X149121602Y-154016647D01*
X149121600Y-154016661D01*
X149101186Y-154249994D01*
X149101186Y-154250005D01*
X149121600Y-154483338D01*
X149121602Y-154483351D01*
X149182228Y-154709611D01*
X149281223Y-154921907D01*
X149415579Y-155113787D01*
X149581213Y-155279421D01*
X149773093Y-155413777D01*
X149985389Y-155512772D01*
X150211649Y-155573398D01*
X150235546Y-155575488D01*
X150444995Y-155593814D01*
X150445000Y-155593814D01*
X150445005Y-155593814D01*
X150622574Y-155578277D01*
X150678351Y-155573398D01*
X150904611Y-155512772D01*
X151116907Y-155413777D01*
X151308787Y-155279421D01*
X151474421Y-155113787D01*
X151511032Y-155061500D01*
X151581211Y-154994318D01*
X151671761Y-154959105D01*
X151768892Y-154961224D01*
X151857820Y-155000353D01*
X151918967Y-155061500D01*
X151955579Y-155113787D01*
X152121213Y-155279421D01*
X152313093Y-155413777D01*
X152525389Y-155512772D01*
X152751649Y-155573398D01*
X152775546Y-155575488D01*
X152984995Y-155593814D01*
X152985000Y-155593814D01*
X152985005Y-155593814D01*
X153162574Y-155578277D01*
X153218351Y-155573398D01*
X153444611Y-155512772D01*
X153656907Y-155413777D01*
X153848787Y-155279421D01*
X154014421Y-155113787D01*
X154051032Y-155061500D01*
X154121211Y-154994318D01*
X154211761Y-154959105D01*
X154308892Y-154961224D01*
X154397820Y-155000353D01*
X154458967Y-155061500D01*
X154495579Y-155113787D01*
X154661213Y-155279421D01*
X154853093Y-155413777D01*
X154962962Y-155465009D01*
X154992632Y-155481391D01*
X155003832Y-155488611D01*
X155494410Y-155713485D01*
X155599880Y-155761831D01*
X155672192Y-155812114D01*
X155887217Y-156027139D01*
X155887218Y-156027139D01*
X155887219Y-156027140D01*
X156051086Y-156136632D01*
X156051088Y-156136632D01*
X156051090Y-156136634D01*
X156233165Y-156212052D01*
X156233168Y-156212053D01*
X156423885Y-156249988D01*
X156426460Y-156250501D01*
X156635829Y-156250501D01*
X156635849Y-156250500D01*
X164558598Y-156250500D01*
X164653404Y-156269254D01*
X165370323Y-156564457D01*
X165429456Y-156582300D01*
X165444496Y-156587369D01*
X165462517Y-156594091D01*
X165522127Y-156600500D01*
X165615046Y-156600499D01*
X165624252Y-156600669D01*
X165628807Y-156600837D01*
X165635014Y-156600499D01*
X167317866Y-156600499D01*
X167317872Y-156600499D01*
X167377483Y-156594091D01*
X167512331Y-156543796D01*
X167627546Y-156457546D01*
X167713796Y-156342331D01*
X167713796Y-156342329D01*
X167724469Y-156328073D01*
X167727774Y-156330547D01*
X167768246Y-156282081D01*
X167854317Y-156237014D01*
X167951081Y-156228316D01*
X168043809Y-156257310D01*
X168084614Y-156285151D01*
X168088594Y-156288490D01*
X168088599Y-156288495D01*
X168282170Y-156424035D01*
X168496337Y-156523903D01*
X168724592Y-156585063D01*
X168724595Y-156585063D01*
X168724598Y-156585064D01*
X168959995Y-156605659D01*
X168960000Y-156605659D01*
X168960005Y-156605659D01*
X169195401Y-156585064D01*
X169195403Y-156585063D01*
X169195408Y-156585063D01*
X169423663Y-156523903D01*
X169637830Y-156424035D01*
X169831401Y-156288495D01*
X169998495Y-156121401D01*
X170026032Y-156082074D01*
X170096211Y-156014891D01*
X170186760Y-155979678D01*
X170283892Y-155981797D01*
X170372819Y-156020925D01*
X170433967Y-156082073D01*
X170461505Y-156121401D01*
X170628599Y-156288495D01*
X170822170Y-156424035D01*
X171036337Y-156523903D01*
X171264592Y-156585063D01*
X171264595Y-156585063D01*
X171264598Y-156585064D01*
X171499995Y-156605659D01*
X171500000Y-156605659D01*
X171500005Y-156605659D01*
X171735401Y-156585064D01*
X171735403Y-156585063D01*
X171735408Y-156585063D01*
X171963663Y-156523903D01*
X172177830Y-156424035D01*
X172371401Y-156288495D01*
X172538495Y-156121401D01*
X172566337Y-156081637D01*
X172636515Y-156014456D01*
X172727064Y-155979242D01*
X172824196Y-155981361D01*
X172913124Y-156020489D01*
X172974273Y-156081637D01*
X173001888Y-156121075D01*
X173168923Y-156288110D01*
X173362423Y-156423600D01*
X173576511Y-156523431D01*
X173790000Y-156580635D01*
X173790000Y-155683012D01*
X173847007Y-155715925D01*
X173974174Y-155750000D01*
X174105826Y-155750000D01*
X174232993Y-155715925D01*
X174290000Y-155683012D01*
X174290000Y-156580635D01*
X174503488Y-156523431D01*
X174717576Y-156423600D01*
X174911076Y-156288110D01*
X175078110Y-156121076D01*
X175213600Y-155927576D01*
X175313433Y-155713485D01*
X175313433Y-155713483D01*
X175370636Y-155500001D01*
X175370636Y-155500000D01*
X174473012Y-155500000D01*
X174505925Y-155442993D01*
X174540000Y-155315826D01*
X174540000Y-155184174D01*
X174505925Y-155057007D01*
X174473012Y-155000000D01*
X175370636Y-155000000D01*
X175370636Y-154999998D01*
X175313433Y-154786516D01*
X175313429Y-154786505D01*
X175213603Y-154572428D01*
X175213599Y-154572420D01*
X175078110Y-154378923D01*
X174911076Y-154211889D01*
X174717576Y-154076399D01*
X174503484Y-153976566D01*
X174290001Y-153919363D01*
X174290000Y-153919364D01*
X174290000Y-154816988D01*
X174232993Y-154784075D01*
X174105826Y-154750000D01*
X173974174Y-154750000D01*
X173847007Y-154784075D01*
X173790000Y-154816988D01*
X173790000Y-153919364D01*
X173789998Y-153919363D01*
X173576516Y-153976566D01*
X173576505Y-153976570D01*
X173362428Y-154076396D01*
X173362420Y-154076400D01*
X173168923Y-154211889D01*
X173001889Y-154378923D01*
X172974272Y-154418364D01*
X172904089Y-154485547D01*
X172813539Y-154520758D01*
X172716408Y-154518637D01*
X172627481Y-154479507D01*
X172566337Y-154418362D01*
X172538495Y-154378599D01*
X172371401Y-154211505D01*
X172177830Y-154075965D01*
X171963663Y-153976097D01*
X171963660Y-153976096D01*
X171735401Y-153914935D01*
X171500005Y-153894341D01*
X171499995Y-153894341D01*
X171264598Y-153914935D01*
X171036335Y-153976097D01*
X171036333Y-153976098D01*
X170822177Y-154075961D01*
X170822169Y-154075965D01*
X170628600Y-154211504D01*
X170461501Y-154378603D01*
X170433968Y-154417925D01*
X170363787Y-154485109D01*
X170273237Y-154520321D01*
X170176106Y-154518201D01*
X170087179Y-154479072D01*
X170026032Y-154417925D01*
X169998498Y-154378603D01*
X169998497Y-154378602D01*
X169998495Y-154378599D01*
X169831401Y-154211505D01*
X169637830Y-154075965D01*
X169423663Y-153976097D01*
X169423660Y-153976096D01*
X169195401Y-153914935D01*
X168960005Y-153894341D01*
X168959995Y-153894341D01*
X168724598Y-153914935D01*
X168496335Y-153976097D01*
X168496333Y-153976098D01*
X168282177Y-154075961D01*
X168282169Y-154075965D01*
X168088587Y-154211513D01*
X168084605Y-154214855D01*
X168080960Y-154216853D01*
X168079694Y-154217741D01*
X168079596Y-154217602D01*
X167999423Y-154261580D01*
X167902845Y-154272150D01*
X167809573Y-154244957D01*
X167733808Y-154184140D01*
X167725133Y-154171429D01*
X167724469Y-154171927D01*
X167713796Y-154157670D01*
X167713796Y-154157669D01*
X167627546Y-154042454D01*
X167512331Y-153956204D01*
X167413555Y-153919363D01*
X167377481Y-153905908D01*
X167317876Y-153899500D01*
X167317873Y-153899500D01*
X165604684Y-153899500D01*
X165581698Y-153897832D01*
X165581676Y-153898139D01*
X165572812Y-153897486D01*
X165563907Y-153897467D01*
X165563850Y-153897468D01*
X165530708Y-153899173D01*
X165525906Y-153899298D01*
X165516887Y-153899782D01*
X165513167Y-153900078D01*
X165509810Y-153900250D01*
X165501768Y-153901463D01*
X165491279Y-153902816D01*
X165462519Y-153905907D01*
X165422679Y-153920766D01*
X165396756Y-153928853D01*
X165370334Y-153935539D01*
X165370322Y-153935543D01*
X164653402Y-154230745D01*
X164558595Y-154249500D01*
X157219440Y-154249500D01*
X157124152Y-154230546D01*
X157043370Y-154176570D01*
X157005389Y-154127713D01*
X156974893Y-154076400D01*
X156739118Y-153679681D01*
X156734729Y-153672583D01*
X156720849Y-153646873D01*
X156688779Y-153578097D01*
X156688774Y-153578088D01*
X156591031Y-153438498D01*
X156554421Y-153386213D01*
X156388787Y-153220579D01*
X156196907Y-153086223D01*
X155984611Y-152987228D01*
X155984608Y-152987227D01*
X155758352Y-152926602D01*
X155758338Y-152926600D01*
X155525005Y-152906186D01*
X155524995Y-152906186D01*
X155291661Y-152926600D01*
X155291647Y-152926602D01*
X155065391Y-152987227D01*
X154853091Y-153086224D01*
X154661214Y-153220578D01*
X154495575Y-153386217D01*
X154458968Y-153438498D01*
X154388787Y-153505682D01*
X154298238Y-153540894D01*
X154201106Y-153538775D01*
X154112179Y-153499645D01*
X154051032Y-153438498D01*
X154014424Y-153386217D01*
X154014423Y-153386216D01*
X154014421Y-153386213D01*
X153848787Y-153220579D01*
X153656907Y-153086223D01*
X153656903Y-153086221D01*
X153656899Y-153086219D01*
X153634337Y-153075697D01*
X153596985Y-153054159D01*
X152509382Y-152294434D01*
X152475903Y-152266375D01*
X150071748Y-149862220D01*
X150071747Y-149862218D01*
X149932390Y-149722861D01*
X149768522Y-149613368D01*
X149768517Y-149613365D01*
X149679476Y-149576483D01*
X149639773Y-149560038D01*
X149586444Y-149537949D01*
X149586441Y-149537948D01*
X149489797Y-149518724D01*
X149489796Y-149518724D01*
X149393149Y-149499500D01*
X149393146Y-149499500D01*
X147017560Y-149499500D01*
X146922272Y-149480546D01*
X146841490Y-149426570D01*
X142277141Y-144862221D01*
X142277139Y-144862218D01*
X142137782Y-144722861D01*
X141973914Y-144613368D01*
X141973909Y-144613365D01*
X141884868Y-144576483D01*
X141845165Y-144560038D01*
X141791836Y-144537949D01*
X141791833Y-144537948D01*
X141695189Y-144518724D01*
X141695188Y-144518724D01*
X141598541Y-144499500D01*
X141598538Y-144499500D01*
X136517561Y-144499500D01*
X136422273Y-144480546D01*
X136341491Y-144426570D01*
X127898430Y-135983509D01*
X127844454Y-135902727D01*
X127825500Y-135807439D01*
X127825500Y-135251402D01*
X127844255Y-135156596D01*
X127922215Y-134967263D01*
X127996409Y-134787077D01*
X128050214Y-134706187D01*
X128130882Y-134652041D01*
X128226130Y-134632888D01*
X128321458Y-134651642D01*
X128402352Y-134705449D01*
X128456498Y-134786117D01*
X128456698Y-134786598D01*
X128478368Y-134838914D01*
X128587861Y-135002782D01*
X128727218Y-135142139D01*
X128727220Y-135142140D01*
X136362219Y-142777140D01*
X136526086Y-142886632D01*
X136526088Y-142886632D01*
X136526090Y-142886634D01*
X136708165Y-142962052D01*
X136708168Y-142962053D01*
X136898885Y-142999988D01*
X136901460Y-143000501D01*
X137110829Y-143000501D01*
X137110849Y-143000500D01*
X148036888Y-143000500D01*
X148132176Y-143019454D01*
X148148244Y-143026788D01*
X148602780Y-143254056D01*
X148679531Y-143313622D01*
X148724848Y-143393119D01*
X148725466Y-143392889D01*
X148726884Y-143396691D01*
X148727645Y-143398026D01*
X148728488Y-143400993D01*
X148730909Y-143407483D01*
X148781204Y-143542331D01*
X148867454Y-143657546D01*
X148982669Y-143743796D01*
X149117517Y-143794091D01*
X149177127Y-143800500D01*
X151872872Y-143800499D01*
X151932483Y-143794091D01*
X152067331Y-143743796D01*
X152182546Y-143657546D01*
X152268796Y-143542331D01*
X152319091Y-143407483D01*
X152325500Y-143347873D01*
X152325499Y-142098322D01*
X152341097Y-142011580D01*
X152345401Y-142000000D01*
X153719953Y-142000000D01*
X153740115Y-142269031D01*
X153800144Y-142532041D01*
X153898705Y-142783173D01*
X153898713Y-142783189D01*
X154033598Y-143016816D01*
X154033604Y-143016824D01*
X154087294Y-143084150D01*
X154923957Y-142247486D01*
X154948978Y-142307890D01*
X155020112Y-142414351D01*
X155110649Y-142504888D01*
X155217110Y-142576022D01*
X155277510Y-142601041D01*
X154439849Y-143438703D01*
X154622473Y-143563215D01*
X154622478Y-143563217D01*
X154865535Y-143680268D01*
X154865540Y-143680270D01*
X155123333Y-143759789D01*
X155390112Y-143800000D01*
X155659888Y-143800000D01*
X155926666Y-143759789D01*
X156184459Y-143680270D01*
X156184465Y-143680268D01*
X156427519Y-143563219D01*
X156610149Y-143438703D01*
X155772487Y-142601041D01*
X155832890Y-142576022D01*
X155939351Y-142504888D01*
X156029888Y-142414351D01*
X156101022Y-142307890D01*
X156126041Y-142247487D01*
X156962704Y-143084150D01*
X157016401Y-143016817D01*
X157151286Y-142783189D01*
X157151294Y-142783173D01*
X157249855Y-142532041D01*
X157309884Y-142269031D01*
X157330046Y-142000000D01*
X157309884Y-141730968D01*
X157249855Y-141467958D01*
X157151294Y-141216826D01*
X157151286Y-141216810D01*
X157016405Y-140983189D01*
X157016402Y-140983184D01*
X156962704Y-140915848D01*
X156126041Y-141752510D01*
X156101022Y-141692110D01*
X156029888Y-141585649D01*
X155939351Y-141495112D01*
X155832890Y-141423978D01*
X155772486Y-141398957D01*
X156610149Y-140561295D01*
X156427527Y-140436784D01*
X156427522Y-140436782D01*
X156184465Y-140319731D01*
X156184459Y-140319729D01*
X155926666Y-140240210D01*
X155659888Y-140200000D01*
X155390112Y-140200000D01*
X155123333Y-140240210D01*
X154865540Y-140319729D01*
X154865535Y-140319731D01*
X154622486Y-140436778D01*
X154622475Y-140436784D01*
X154439850Y-140561295D01*
X155277512Y-141398958D01*
X155217110Y-141423978D01*
X155110649Y-141495112D01*
X155020112Y-141585649D01*
X154948978Y-141692110D01*
X154923958Y-141752512D01*
X154087293Y-140915848D01*
X154033600Y-140983180D01*
X153898713Y-141216810D01*
X153898705Y-141216826D01*
X153800144Y-141467958D01*
X153740115Y-141730968D01*
X153719953Y-142000000D01*
X152345401Y-142000000D01*
X152559478Y-141423978D01*
X152841337Y-140665575D01*
X152892298Y-140582860D01*
X152898641Y-140576277D01*
X158507660Y-134967258D01*
X158543112Y-134937836D01*
X159581062Y-134227661D01*
X159616432Y-134207496D01*
X159628685Y-134201782D01*
X159652734Y-134190568D01*
X159839139Y-134060047D01*
X159867553Y-134031631D01*
X159875346Y-134024171D01*
X159878352Y-134021413D01*
X159878362Y-134021406D01*
X159923598Y-133975591D01*
X159924397Y-133974787D01*
X160000047Y-133899139D01*
X160130568Y-133712734D01*
X160226739Y-133506496D01*
X160285635Y-133286692D01*
X160292105Y-133212741D01*
X160305468Y-133060005D01*
X160305468Y-133059994D01*
X160285636Y-132833320D01*
X160285635Y-132833308D01*
X160226739Y-132613504D01*
X160142343Y-132432517D01*
X160130571Y-132407272D01*
X160130563Y-132407258D01*
X160000050Y-132220865D01*
X160000049Y-132220864D01*
X160000047Y-132220861D01*
X159839139Y-132059953D01*
X159839135Y-132059950D01*
X159839134Y-132059949D01*
X159652741Y-131929436D01*
X159652727Y-131929428D01*
X159446499Y-131833262D01*
X159446496Y-131833261D01*
X159226694Y-131774365D01*
X159226679Y-131774363D01*
X159000006Y-131754532D01*
X158999994Y-131754532D01*
X158773320Y-131774363D01*
X158773305Y-131774365D01*
X158553503Y-131833261D01*
X158553500Y-131833262D01*
X158347272Y-131929428D01*
X158347258Y-131929436D01*
X158160865Y-132059949D01*
X157999949Y-132220865D01*
X157869435Y-132407259D01*
X157869430Y-132407269D01*
X157852503Y-132443566D01*
X157832339Y-132478931D01*
X157341026Y-133197007D01*
X157279663Y-133286692D01*
X157216335Y-133379248D01*
X157216333Y-133379250D01*
X157122162Y-133516884D01*
X157092731Y-133552347D01*
X151423599Y-139221479D01*
X151394477Y-139246425D01*
X150156365Y-140151516D01*
X150068253Y-140192449D01*
X150009417Y-140199500D01*
X149177134Y-140199500D01*
X149177130Y-140199500D01*
X149177128Y-140199501D01*
X149164314Y-140200878D01*
X149117519Y-140205908D01*
X149117515Y-140205909D01*
X148982670Y-140256203D01*
X148867455Y-140342453D01*
X148867453Y-140342455D01*
X148781204Y-140457669D01*
X148725466Y-140607111D01*
X148722159Y-140605877D01*
X148693372Y-140668893D01*
X148622257Y-140735087D01*
X148602781Y-140745941D01*
X148148243Y-140973212D01*
X148054538Y-140998874D01*
X148036886Y-140999500D01*
X137517561Y-140999500D01*
X137422273Y-140980546D01*
X137341491Y-140926570D01*
X131572953Y-135158033D01*
X131518977Y-135077251D01*
X131500023Y-134981963D01*
X131518977Y-134886675D01*
X131572953Y-134805893D01*
X131653735Y-134751917D01*
X131749023Y-134732963D01*
X131770719Y-134733910D01*
X131830387Y-134739131D01*
X131904996Y-134745659D01*
X131905000Y-134745659D01*
X131905005Y-134745659D01*
X132140401Y-134725064D01*
X132140403Y-134725063D01*
X132140408Y-134725063D01*
X132368663Y-134663903D01*
X132582830Y-134564035D01*
X132776401Y-134428495D01*
X132943495Y-134261401D01*
X132971032Y-134222074D01*
X133041211Y-134154891D01*
X133131760Y-134119678D01*
X133228892Y-134121797D01*
X133317819Y-134160925D01*
X133378967Y-134222073D01*
X133406505Y-134261401D01*
X133573599Y-134428495D01*
X133767170Y-134564035D01*
X133981337Y-134663903D01*
X134209592Y-134725063D01*
X134209595Y-134725063D01*
X134209598Y-134725064D01*
X134444995Y-134745659D01*
X134445000Y-134745659D01*
X134445005Y-134745659D01*
X134680401Y-134725064D01*
X134680403Y-134725063D01*
X134680408Y-134725063D01*
X134908663Y-134663903D01*
X135122830Y-134564035D01*
X135316401Y-134428495D01*
X135483495Y-134261401D01*
X135511337Y-134221637D01*
X135581515Y-134154456D01*
X135672064Y-134119242D01*
X135769196Y-134121361D01*
X135858124Y-134160489D01*
X135919273Y-134221637D01*
X135946888Y-134261075D01*
X136113923Y-134428110D01*
X136307423Y-134563600D01*
X136521511Y-134663431D01*
X136735000Y-134720635D01*
X136735000Y-133823012D01*
X136792007Y-133855925D01*
X136919174Y-133890000D01*
X137050826Y-133890000D01*
X137177993Y-133855925D01*
X137235000Y-133823012D01*
X137235000Y-134720635D01*
X137448488Y-134663431D01*
X137662576Y-134563600D01*
X137856076Y-134428110D01*
X138023111Y-134261075D01*
X138051030Y-134221203D01*
X138121211Y-134154018D01*
X138211760Y-134118805D01*
X138308892Y-134120924D01*
X138397819Y-134160052D01*
X138458970Y-134221203D01*
X138486888Y-134261075D01*
X138653923Y-134428110D01*
X138847423Y-134563600D01*
X139061511Y-134663431D01*
X139275000Y-134720635D01*
X139275000Y-133823012D01*
X139332007Y-133855925D01*
X139459174Y-133890000D01*
X139590826Y-133890000D01*
X139717993Y-133855925D01*
X139775000Y-133823012D01*
X139775000Y-134720635D01*
X139988488Y-134663431D01*
X140202576Y-134563600D01*
X140396076Y-134428110D01*
X140563110Y-134261076D01*
X140698600Y-134067576D01*
X140798433Y-133853485D01*
X140798433Y-133853483D01*
X140855636Y-133640001D01*
X140855636Y-133640000D01*
X139958012Y-133640000D01*
X139990925Y-133582993D01*
X140025000Y-133455826D01*
X140025000Y-133324174D01*
X139990925Y-133197007D01*
X139958012Y-133140000D01*
X140855636Y-133140000D01*
X140855636Y-133139998D01*
X140798433Y-132926516D01*
X140798429Y-132926505D01*
X140698603Y-132712428D01*
X140698599Y-132712420D01*
X140563110Y-132518923D01*
X140396076Y-132351889D01*
X140202576Y-132216399D01*
X139988484Y-132116566D01*
X139775001Y-132059363D01*
X139775000Y-132059364D01*
X139775000Y-132956988D01*
X139717993Y-132924075D01*
X139590826Y-132890000D01*
X139459174Y-132890000D01*
X139332007Y-132924075D01*
X139275000Y-132956988D01*
X139275000Y-132059364D01*
X139274998Y-132059363D01*
X139061516Y-132116566D01*
X139061505Y-132116570D01*
X138847428Y-132216396D01*
X138847420Y-132216400D01*
X138653923Y-132351889D01*
X138486889Y-132518923D01*
X138458969Y-132558798D01*
X138388787Y-132625982D01*
X138298238Y-132661194D01*
X138201106Y-132659075D01*
X138112179Y-132619946D01*
X138051031Y-132558798D01*
X138023110Y-132518923D01*
X137856076Y-132351889D01*
X137662576Y-132216399D01*
X137448484Y-132116566D01*
X137235001Y-132059363D01*
X137235000Y-132059364D01*
X137235000Y-132956988D01*
X137177993Y-132924075D01*
X137050826Y-132890000D01*
X136919174Y-132890000D01*
X136792007Y-132924075D01*
X136735000Y-132956988D01*
X136735000Y-132059364D01*
X136734998Y-132059363D01*
X136521516Y-132116566D01*
X136521505Y-132116570D01*
X136307428Y-132216396D01*
X136307420Y-132216400D01*
X136113923Y-132351889D01*
X135946889Y-132518923D01*
X135919272Y-132558364D01*
X135849089Y-132625547D01*
X135758539Y-132660758D01*
X135661408Y-132658637D01*
X135572481Y-132619507D01*
X135511337Y-132558362D01*
X135483495Y-132518599D01*
X135316401Y-132351505D01*
X135122830Y-132215965D01*
X134908663Y-132116097D01*
X134908660Y-132116096D01*
X134680401Y-132054935D01*
X134445005Y-132034341D01*
X134444995Y-132034341D01*
X134209598Y-132054935D01*
X133981335Y-132116097D01*
X133981333Y-132116098D01*
X133767177Y-132215961D01*
X133767169Y-132215965D01*
X133573600Y-132351504D01*
X133406501Y-132518603D01*
X133378968Y-132557925D01*
X133308787Y-132625109D01*
X133218237Y-132660321D01*
X133121106Y-132658201D01*
X133032179Y-132619072D01*
X132971032Y-132557925D01*
X132943498Y-132518603D01*
X132943497Y-132518602D01*
X132943495Y-132518599D01*
X132776401Y-132351505D01*
X132582830Y-132215965D01*
X132368663Y-132116097D01*
X132368660Y-132116096D01*
X132140401Y-132054935D01*
X131905005Y-132034341D01*
X131904995Y-132034341D01*
X131669598Y-132054935D01*
X131441335Y-132116097D01*
X131441333Y-132116098D01*
X131227177Y-132215961D01*
X131227169Y-132215965D01*
X131033600Y-132351504D01*
X130866501Y-132518603D01*
X130838968Y-132557925D01*
X130768787Y-132625109D01*
X130678237Y-132660321D01*
X130581106Y-132658201D01*
X130492179Y-132619072D01*
X130431032Y-132557925D01*
X130403498Y-132518603D01*
X130403497Y-132518602D01*
X130403495Y-132518599D01*
X130236401Y-132351505D01*
X130042830Y-132215965D01*
X129828663Y-132116097D01*
X129828660Y-132116096D01*
X129600401Y-132054935D01*
X129365005Y-132034341D01*
X129364995Y-132034341D01*
X129129598Y-132054935D01*
X128901335Y-132116097D01*
X128901333Y-132116098D01*
X128687177Y-132215961D01*
X128687169Y-132215965D01*
X128493587Y-132351513D01*
X128489605Y-132354855D01*
X128485960Y-132356853D01*
X128484694Y-132357741D01*
X128484596Y-132357602D01*
X128404423Y-132401580D01*
X128307845Y-132412150D01*
X128214573Y-132384957D01*
X128138808Y-132324140D01*
X128130133Y-132311429D01*
X128129469Y-132311927D01*
X128118796Y-132297670D01*
X128118796Y-132297669D01*
X128032546Y-132182454D01*
X127917331Y-132096204D01*
X127818555Y-132059363D01*
X127782481Y-132045908D01*
X127722873Y-132039500D01*
X125927134Y-132039500D01*
X125927130Y-132039500D01*
X125927128Y-132039501D01*
X125914314Y-132040878D01*
X125867519Y-132045908D01*
X125867515Y-132045909D01*
X125732670Y-132096203D01*
X125617455Y-132182453D01*
X125617453Y-132182455D01*
X125531204Y-132297669D01*
X125480908Y-132432518D01*
X125474500Y-132492123D01*
X125474500Y-134205316D01*
X125472832Y-134228303D01*
X125473139Y-134228326D01*
X125472486Y-134237189D01*
X125472467Y-134246091D01*
X115500500Y-134246091D01*
X115500500Y-124552167D01*
X126600000Y-124552167D01*
X126600000Y-125249999D01*
X126600001Y-125250000D01*
X127624722Y-125250000D01*
X127580667Y-125326306D01*
X127550000Y-125440756D01*
X127550000Y-125559244D01*
X127580667Y-125673694D01*
X127624722Y-125750000D01*
X126600001Y-125750000D01*
X126600000Y-125750001D01*
X126600000Y-126447832D01*
X126606401Y-126507371D01*
X126606403Y-126507378D01*
X126656646Y-126642087D01*
X126742810Y-126757187D01*
X126742812Y-126757189D01*
X126857912Y-126843353D01*
X126992621Y-126893596D01*
X126992628Y-126893598D01*
X127052167Y-126899999D01*
X127052175Y-126900000D01*
X127749999Y-126900000D01*
X127750000Y-126899999D01*
X127750000Y-125875277D01*
X127826306Y-125919333D01*
X127940756Y-125950000D01*
X128059244Y-125950000D01*
X128173694Y-125919333D01*
X128250000Y-125875277D01*
X128250000Y-126899999D01*
X128250001Y-126900000D01*
X128947825Y-126900000D01*
X128947832Y-126899999D01*
X129007371Y-126893598D01*
X129007378Y-126893596D01*
X129142087Y-126843353D01*
X129257187Y-126757189D01*
X129257191Y-126757185D01*
X129332616Y-126656431D01*
X129404893Y-126591508D01*
X129496514Y-126559186D01*
X129593530Y-126564387D01*
X129681171Y-126606318D01*
X129684890Y-126609157D01*
X129771370Y-126676468D01*
X129975487Y-126786931D01*
X129975489Y-126786931D01*
X129975497Y-126786936D01*
X130195019Y-126862298D01*
X130423951Y-126900500D01*
X130656049Y-126900500D01*
X130884981Y-126862298D01*
X131104503Y-126786936D01*
X131308626Y-126676470D01*
X131491784Y-126533913D01*
X131648979Y-126363153D01*
X131775924Y-126168849D01*
X131869157Y-125956300D01*
X131926134Y-125731305D01*
X131945300Y-125500000D01*
X131926134Y-125268695D01*
X131869157Y-125043700D01*
X131864353Y-125032750D01*
X131853651Y-125003499D01*
X131719859Y-124552167D01*
X135560000Y-124552167D01*
X135560000Y-125249999D01*
X135560001Y-125250000D01*
X136584722Y-125250000D01*
X136540667Y-125326306D01*
X136510000Y-125440756D01*
X136510000Y-125559244D01*
X136540667Y-125673694D01*
X136584722Y-125750000D01*
X135560001Y-125750000D01*
X135560000Y-125750001D01*
X135560000Y-126447832D01*
X135566401Y-126507371D01*
X135566403Y-126507378D01*
X135616646Y-126642087D01*
X135702810Y-126757187D01*
X135702812Y-126757189D01*
X135817912Y-126843353D01*
X135952621Y-126893596D01*
X135952628Y-126893598D01*
X136012167Y-126899999D01*
X136012175Y-126900000D01*
X136709999Y-126900000D01*
X136710000Y-126899999D01*
X136710000Y-125875277D01*
X136786306Y-125919333D01*
X136900756Y-125950000D01*
X137019244Y-125950000D01*
X137133694Y-125919333D01*
X137210000Y-125875277D01*
X137210000Y-126899999D01*
X137210001Y-126900000D01*
X137907825Y-126900000D01*
X137907832Y-126899999D01*
X137967371Y-126893598D01*
X137967378Y-126893596D01*
X138102087Y-126843353D01*
X138217187Y-126757189D01*
X138217191Y-126757185D01*
X138292616Y-126656431D01*
X138364893Y-126591508D01*
X138456514Y-126559186D01*
X138553530Y-126564387D01*
X138641171Y-126606318D01*
X138644890Y-126609157D01*
X138731370Y-126676468D01*
X138935487Y-126786931D01*
X138935489Y-126786931D01*
X138935497Y-126786936D01*
X139155019Y-126862298D01*
X139383951Y-126900500D01*
X139616049Y-126900500D01*
X139844981Y-126862298D01*
X139964651Y-126821214D01*
X139995772Y-126813457D01*
X139995703Y-126813160D01*
X140004359Y-126811138D01*
X140004363Y-126811138D01*
X140649452Y-126611036D01*
X140746073Y-126600909D01*
X140839219Y-126628529D01*
X140899288Y-126672788D01*
X142026570Y-127800070D01*
X142080546Y-127880852D01*
X142099500Y-127976140D01*
X142099500Y-130161308D01*
X142099500Y-130338692D01*
X142120263Y-130443076D01*
X142134105Y-130512668D01*
X142201983Y-130676539D01*
X142201988Y-130676549D01*
X142261060Y-130764955D01*
X142261061Y-130764957D01*
X142300269Y-130823636D01*
X142300536Y-130824036D01*
X144610536Y-133134035D01*
X144610535Y-133134035D01*
X144735963Y-133259462D01*
X144735966Y-133259465D01*
X144776714Y-133286692D01*
X144883453Y-133358013D01*
X145025333Y-133416781D01*
X145047334Y-133425894D01*
X145047336Y-133425894D01*
X145047338Y-133425895D01*
X145216803Y-133459603D01*
X145221308Y-133460500D01*
X145221309Y-133460500D01*
X145783690Y-133460500D01*
X145846818Y-133468635D01*
X147024218Y-133777218D01*
X147046255Y-133784100D01*
X147053493Y-133786734D01*
X147053504Y-133786739D01*
X147273308Y-133845635D01*
X147292984Y-133847356D01*
X147499994Y-133865468D01*
X147500000Y-133865468D01*
X147500006Y-133865468D01*
X147679668Y-133849749D01*
X147726692Y-133845635D01*
X147946496Y-133786739D01*
X148152734Y-133690568D01*
X148339139Y-133560047D01*
X148500047Y-133399139D01*
X148630568Y-133212734D01*
X148726739Y-133006496D01*
X148785635Y-132786692D01*
X148796800Y-132659075D01*
X148805468Y-132560005D01*
X148805468Y-132559994D01*
X148785636Y-132333320D01*
X148785635Y-132333308D01*
X148726739Y-132113504D01*
X148640904Y-131929432D01*
X148630571Y-131907272D01*
X148630563Y-131907258D01*
X148500050Y-131720865D01*
X148500049Y-131720864D01*
X148500047Y-131720861D01*
X148339139Y-131559953D01*
X148339135Y-131559950D01*
X148339134Y-131559949D01*
X148152741Y-131429436D01*
X148152727Y-131429428D01*
X147946499Y-131333262D01*
X147946496Y-131333261D01*
X147726694Y-131274365D01*
X147726679Y-131274363D01*
X147500006Y-131254532D01*
X147499994Y-131254532D01*
X147273320Y-131274363D01*
X147273309Y-131274364D01*
X147273308Y-131274365D01*
X147068199Y-131329323D01*
X147053489Y-131333265D01*
X147046230Y-131335907D01*
X147024224Y-131342778D01*
X145848757Y-131650855D01*
X145751777Y-131656678D01*
X145659950Y-131624945D01*
X145609559Y-131586060D01*
X143973430Y-129949930D01*
X143919454Y-129869148D01*
X143900500Y-129773860D01*
X143900500Y-127411310D01*
X143900500Y-127411308D01*
X143865895Y-127237334D01*
X143831954Y-127155397D01*
X143831954Y-127155394D01*
X143798013Y-127073453D01*
X143738936Y-126985039D01*
X143738933Y-126985034D01*
X143699469Y-126925970D01*
X143699466Y-126925967D01*
X143699464Y-126925964D01*
X141574036Y-124800536D01*
X141484239Y-124740536D01*
X141484238Y-124740535D01*
X141484237Y-124740534D01*
X141426547Y-124701987D01*
X141426542Y-124701984D01*
X141344607Y-124668046D01*
X141262668Y-124634105D01*
X141193076Y-124620263D01*
X141088692Y-124599500D01*
X141088691Y-124599500D01*
X141088689Y-124599500D01*
X140956926Y-124599500D01*
X140861638Y-124580546D01*
X140852695Y-124576635D01*
X140075175Y-124218257D01*
X140066899Y-124214115D01*
X140061708Y-124211838D01*
X140059891Y-124211164D01*
X140056931Y-124209982D01*
X139997938Y-124188533D01*
X139989877Y-124186507D01*
X139969747Y-124180533D01*
X139844985Y-124137703D01*
X139844978Y-124137701D01*
X139616049Y-124099500D01*
X139383951Y-124099500D01*
X139155025Y-124137700D01*
X139155019Y-124137701D01*
X139155019Y-124137702D01*
X138935497Y-124213064D01*
X138935494Y-124213065D01*
X138935487Y-124213068D01*
X138731369Y-124323532D01*
X138731366Y-124323534D01*
X138644888Y-124390843D01*
X138558051Y-124434413D01*
X138461150Y-124441435D01*
X138368938Y-124410840D01*
X138295454Y-124347285D01*
X138292616Y-124343569D01*
X138217189Y-124242812D01*
X138217187Y-124242810D01*
X138102087Y-124156646D01*
X137967378Y-124106403D01*
X137967371Y-124106401D01*
X137907832Y-124100000D01*
X137210001Y-124100000D01*
X137210000Y-124100001D01*
X137210000Y-125124722D01*
X137133694Y-125080667D01*
X137019244Y-125050000D01*
X136900756Y-125050000D01*
X136786306Y-125080667D01*
X136710000Y-125124722D01*
X136710000Y-124100001D01*
X136709999Y-124100000D01*
X136012167Y-124100000D01*
X135952628Y-124106401D01*
X135952621Y-124106403D01*
X135817912Y-124156646D01*
X135702812Y-124242810D01*
X135702810Y-124242812D01*
X135616646Y-124357912D01*
X135566403Y-124492621D01*
X135566401Y-124492628D01*
X135560000Y-124552167D01*
X131719859Y-124552167D01*
X131450769Y-123644424D01*
X131440500Y-123573655D01*
X131440500Y-123436139D01*
X131459454Y-123340851D01*
X131513430Y-123260069D01*
X132740069Y-122033430D01*
X132820851Y-121979454D01*
X132916139Y-121960500D01*
X145783690Y-121960500D01*
X145846818Y-121968635D01*
X147024218Y-122277218D01*
X147046255Y-122284100D01*
X147053493Y-122286734D01*
X147053504Y-122286739D01*
X147273308Y-122345635D01*
X147292984Y-122347356D01*
X147499994Y-122365468D01*
X147500000Y-122365468D01*
X147500006Y-122365468D01*
X147679668Y-122349749D01*
X147726692Y-122345635D01*
X147946496Y-122286739D01*
X148152734Y-122190568D01*
X148339139Y-122060047D01*
X148500047Y-121899139D01*
X148630568Y-121712734D01*
X148726739Y-121506496D01*
X148785635Y-121286692D01*
X148802454Y-121094454D01*
X148805468Y-121060005D01*
X148805468Y-121059994D01*
X148785636Y-120833320D01*
X148785635Y-120833308D01*
X148726739Y-120613504D01*
X148630568Y-120407266D01*
X148630565Y-120407262D01*
X148630563Y-120407258D01*
X148500050Y-120220865D01*
X148500049Y-120220864D01*
X148500047Y-120220861D01*
X148339139Y-120059953D01*
X148339135Y-120059950D01*
X148339134Y-120059949D01*
X148152741Y-119929436D01*
X148152727Y-119929428D01*
X147946499Y-119833262D01*
X147946496Y-119833261D01*
X147726694Y-119774365D01*
X147726679Y-119774363D01*
X147500006Y-119754532D01*
X147499994Y-119754532D01*
X147273320Y-119774363D01*
X147273309Y-119774364D01*
X147273308Y-119774365D01*
X147068199Y-119829323D01*
X147053489Y-119833265D01*
X147046230Y-119835907D01*
X147024224Y-119842778D01*
X145846815Y-120151365D01*
X145783687Y-120159500D01*
X132528692Y-120159500D01*
X132351308Y-120159500D01*
X132219922Y-120185633D01*
X132177328Y-120194106D01*
X132177327Y-120194107D01*
X132061454Y-120242102D01*
X132061452Y-120242104D01*
X132043720Y-120249449D01*
X132013452Y-120261987D01*
X132013451Y-120261988D01*
X131891371Y-120343560D01*
X131891369Y-120343561D01*
X131865970Y-120360531D01*
X131865969Y-120360532D01*
X129840533Y-122385967D01*
X129823145Y-122411992D01*
X129823143Y-122411995D01*
X129741986Y-122533453D01*
X129720647Y-122584973D01*
X129720646Y-122584976D01*
X129674106Y-122697329D01*
X129674105Y-122697333D01*
X129674105Y-122697334D01*
X129649416Y-122821459D01*
X129639500Y-122871310D01*
X129639500Y-123573654D01*
X129629231Y-123644422D01*
X129603417Y-123731504D01*
X129518140Y-124019174D01*
X129472886Y-124105145D01*
X129398176Y-124167254D01*
X129305385Y-124196045D01*
X129208639Y-124187135D01*
X129159270Y-124162340D01*
X129157719Y-124165181D01*
X129142093Y-124156648D01*
X129007378Y-124106403D01*
X129007371Y-124106401D01*
X128947832Y-124100000D01*
X128250001Y-124100000D01*
X128250000Y-124100001D01*
X128250000Y-125124722D01*
X128173694Y-125080667D01*
X128059244Y-125050000D01*
X127940756Y-125050000D01*
X127826306Y-125080667D01*
X127750000Y-125124722D01*
X127750000Y-124100001D01*
X127749999Y-124100000D01*
X127052167Y-124100000D01*
X126992628Y-124106401D01*
X126992621Y-124106403D01*
X126857912Y-124156646D01*
X126742812Y-124242810D01*
X126742810Y-124242812D01*
X126656646Y-124357912D01*
X126606403Y-124492621D01*
X126606401Y-124492628D01*
X126600000Y-124552167D01*
X115500500Y-124552167D01*
X115500500Y-117500000D01*
X125994859Y-117500000D01*
X126015387Y-117747741D01*
X126015389Y-117747748D01*
X126076410Y-117988714D01*
X126076413Y-117988722D01*
X126176268Y-118216368D01*
X126176268Y-118216369D01*
X126276562Y-118369881D01*
X126976211Y-117670231D01*
X126987482Y-117712292D01*
X127059890Y-117837708D01*
X127162292Y-117940110D01*
X127287708Y-118012518D01*
X127329765Y-118023787D01*
X126629943Y-118723610D01*
X126676761Y-118760050D01*
X126676769Y-118760055D01*
X126895392Y-118878368D01*
X127130509Y-118959083D01*
X127130512Y-118959084D01*
X127375706Y-119000000D01*
X127624294Y-119000000D01*
X127869487Y-118959084D01*
X127869490Y-118959083D01*
X128104607Y-118878368D01*
X128323232Y-118760054D01*
X128370055Y-118723610D01*
X127670232Y-118023787D01*
X127712292Y-118012518D01*
X127837708Y-117940110D01*
X127940110Y-117837708D01*
X128012518Y-117712292D01*
X128023787Y-117670233D01*
X128723435Y-118369881D01*
X128823733Y-118216364D01*
X128923586Y-117988722D01*
X128923589Y-117988714D01*
X128984610Y-117747748D01*
X128984612Y-117747741D01*
X129005140Y-117500000D01*
X128984612Y-117252258D01*
X128984610Y-117252251D01*
X128923589Y-117011285D01*
X128923586Y-117011277D01*
X128823731Y-116783631D01*
X128823731Y-116783630D01*
X128723436Y-116630117D01*
X128023787Y-117329766D01*
X128012518Y-117287708D01*
X127940110Y-117162292D01*
X127837708Y-117059890D01*
X127712292Y-116987482D01*
X127670231Y-116976211D01*
X128370055Y-116276388D01*
X128370056Y-116276388D01*
X128323238Y-116239949D01*
X128104607Y-116121631D01*
X127869490Y-116040916D01*
X127869487Y-116040915D01*
X127624294Y-116000000D01*
X127375706Y-116000000D01*
X127130512Y-116040915D01*
X127130509Y-116040916D01*
X126895392Y-116121631D01*
X126676769Y-116239944D01*
X126676758Y-116239951D01*
X126629943Y-116276388D01*
X127329767Y-116976212D01*
X127287708Y-116987482D01*
X127162292Y-117059890D01*
X127059890Y-117162292D01*
X126987482Y-117287708D01*
X126976212Y-117329767D01*
X126276562Y-116630117D01*
X126176268Y-116783630D01*
X126176268Y-116783631D01*
X126076413Y-117011277D01*
X126076410Y-117011285D01*
X126015389Y-117252251D01*
X126015387Y-117252258D01*
X125994859Y-117500000D01*
X115500500Y-117500000D01*
X115500500Y-111000000D01*
X125994859Y-111000000D01*
X126015387Y-111247741D01*
X126015389Y-111247748D01*
X126076410Y-111488714D01*
X126076413Y-111488722D01*
X126176268Y-111716368D01*
X126176268Y-111716369D01*
X126276562Y-111869881D01*
X126976211Y-111170231D01*
X126987482Y-111212292D01*
X127059890Y-111337708D01*
X127162292Y-111440110D01*
X127287708Y-111512518D01*
X127329765Y-111523787D01*
X126629943Y-112223610D01*
X126676761Y-112260050D01*
X126676769Y-112260055D01*
X126895392Y-112378368D01*
X127130509Y-112459083D01*
X127130512Y-112459084D01*
X127375706Y-112500000D01*
X127624294Y-112500000D01*
X127869487Y-112459084D01*
X127869490Y-112459083D01*
X128104607Y-112378368D01*
X128323232Y-112260054D01*
X128370055Y-112223610D01*
X127670232Y-111523787D01*
X127712292Y-111512518D01*
X127837708Y-111440110D01*
X127940110Y-111337708D01*
X128012518Y-111212292D01*
X128023787Y-111170233D01*
X128723435Y-111869881D01*
X128823733Y-111716364D01*
X128923586Y-111488722D01*
X128923589Y-111488714D01*
X128984610Y-111247748D01*
X128984612Y-111247741D01*
X129005140Y-111000000D01*
X130494357Y-111000000D01*
X130514892Y-111247823D01*
X130514894Y-111247831D01*
X130575935Y-111488876D01*
X130575942Y-111488894D01*
X130585269Y-111510158D01*
X130595533Y-111540354D01*
X130595807Y-111540266D01*
X130598544Y-111548718D01*
X130598546Y-111548725D01*
X131066265Y-112992661D01*
X131087383Y-113057855D01*
X131099500Y-113134586D01*
X131099500Y-115365412D01*
X131087383Y-115442143D01*
X131018140Y-115655909D01*
X130598546Y-116951275D01*
X130598540Y-116951295D01*
X130598538Y-116951302D01*
X130596226Y-116959347D01*
X130584946Y-116990578D01*
X130575939Y-117011112D01*
X130575935Y-117011124D01*
X130514892Y-117252176D01*
X130494357Y-117500000D01*
X130514892Y-117747823D01*
X130514894Y-117747831D01*
X130575897Y-117988722D01*
X130575937Y-117988881D01*
X130597531Y-118038110D01*
X130675825Y-118216603D01*
X130675828Y-118216608D01*
X130811830Y-118424778D01*
X130811836Y-118424785D01*
X130980248Y-118607730D01*
X130980252Y-118607733D01*
X130980256Y-118607738D01*
X130980260Y-118607741D01*
X130980261Y-118607742D01*
X131176485Y-118760470D01*
X131176487Y-118760471D01*
X131176491Y-118760474D01*
X131395190Y-118878828D01*
X131464736Y-118902703D01*
X131630378Y-118959569D01*
X131630382Y-118959569D01*
X131630386Y-118959571D01*
X131875665Y-119000500D01*
X132124335Y-119000500D01*
X132369614Y-118959571D01*
X132369618Y-118959569D01*
X132369621Y-118959569D01*
X132459077Y-118928858D01*
X132604810Y-118878828D01*
X132823509Y-118760474D01*
X133019744Y-118607738D01*
X133188164Y-118424785D01*
X133324173Y-118216607D01*
X133424063Y-117988881D01*
X133485108Y-117747821D01*
X133505643Y-117500000D01*
X133485108Y-117252179D01*
X133424063Y-117011119D01*
X133424060Y-117011112D01*
X133424059Y-117011108D01*
X133414730Y-116989841D01*
X133404468Y-116959645D01*
X133404193Y-116959735D01*
X133401453Y-116951275D01*
X133401453Y-116951274D01*
X132956160Y-115576570D01*
X132912617Y-115442143D01*
X132900500Y-115365412D01*
X132900500Y-113134586D01*
X132912617Y-113057855D01*
X133255835Y-111998271D01*
X133303230Y-111913463D01*
X133348699Y-111871880D01*
X133948857Y-111446372D01*
X134037553Y-111406723D01*
X134092872Y-111400500D01*
X150088689Y-111400500D01*
X150088692Y-111400500D01*
X150262666Y-111365895D01*
X150344606Y-111331953D01*
X150426547Y-111298013D01*
X150514959Y-111238936D01*
X150574036Y-111199464D01*
X171330070Y-90443430D01*
X171410852Y-90389454D01*
X171506140Y-90370500D01*
X172153425Y-90370500D01*
X172220623Y-90379739D01*
X172650558Y-90500238D01*
X172737196Y-90544204D01*
X172800413Y-90617979D01*
X172830586Y-90710330D01*
X172823121Y-90807197D01*
X172779155Y-90893835D01*
X172705380Y-90957052D01*
X172650559Y-90979760D01*
X172220621Y-91100261D01*
X172153422Y-91109500D01*
X172078692Y-91109500D01*
X171901309Y-91109500D01*
X171769922Y-91135633D01*
X171727328Y-91144106D01*
X171727327Y-91144107D01*
X171611454Y-91192102D01*
X171611452Y-91192104D01*
X171593720Y-91199449D01*
X171563452Y-91211987D01*
X171563448Y-91211989D01*
X171441605Y-91293404D01*
X171441602Y-91293406D01*
X171415968Y-91310533D01*
X150259930Y-112466570D01*
X150179148Y-112520546D01*
X150083860Y-112539500D01*
X149216311Y-112539500D01*
X149153183Y-112531365D01*
X147975783Y-112222781D01*
X147953759Y-112215903D01*
X147946506Y-112213263D01*
X147726694Y-112154365D01*
X147726679Y-112154363D01*
X147500006Y-112134532D01*
X147499994Y-112134532D01*
X147273320Y-112154363D01*
X147273305Y-112154365D01*
X147053503Y-112213261D01*
X147053500Y-112213262D01*
X146847272Y-112309428D01*
X146847258Y-112309436D01*
X146660865Y-112439949D01*
X146499949Y-112600865D01*
X146369436Y-112787258D01*
X146369428Y-112787272D01*
X146273262Y-112993500D01*
X146273261Y-112993503D01*
X146214365Y-113213305D01*
X146214363Y-113213320D01*
X146194532Y-113439994D01*
X146194532Y-113440005D01*
X146214363Y-113666679D01*
X146214365Y-113666694D01*
X146273261Y-113886496D01*
X146273262Y-113886499D01*
X146369428Y-114092727D01*
X146369436Y-114092741D01*
X146499949Y-114279134D01*
X146499953Y-114279139D01*
X146660861Y-114440047D01*
X146660864Y-114440049D01*
X146660865Y-114440050D01*
X146847258Y-114570563D01*
X146847262Y-114570565D01*
X146847266Y-114570568D01*
X146847270Y-114570569D01*
X146847272Y-114570571D01*
X146971008Y-114628270D01*
X147053504Y-114666739D01*
X147273308Y-114725635D01*
X147292984Y-114727356D01*
X147499994Y-114745468D01*
X147500000Y-114745468D01*
X147500006Y-114745468D01*
X147679668Y-114729749D01*
X147726692Y-114725635D01*
X147946496Y-114666739D01*
X147946504Y-114666734D01*
X147953744Y-114664100D01*
X147975785Y-114657215D01*
X149153182Y-114348635D01*
X149216310Y-114340500D01*
X150648689Y-114340500D01*
X150648692Y-114340500D01*
X150822666Y-114305895D01*
X150904606Y-114271953D01*
X150959233Y-114249326D01*
X150986543Y-114238015D01*
X150986544Y-114238014D01*
X150986547Y-114238013D01*
X151108632Y-114156438D01*
X151134036Y-114139464D01*
X172221613Y-93051884D01*
X172302392Y-92997911D01*
X172397680Y-92978957D01*
X172464874Y-92988195D01*
X172956348Y-93125942D01*
X173042984Y-93169909D01*
X173106201Y-93243683D01*
X173136374Y-93336034D01*
X173128909Y-93432902D01*
X173084942Y-93519539D01*
X173028004Y-93572391D01*
X172974196Y-93608540D01*
X172884530Y-93645945D01*
X172862932Y-93649176D01*
X172812478Y-93659212D01*
X172791590Y-93663368D01*
X172687334Y-93684106D01*
X172595926Y-93721967D01*
X172523449Y-93751988D01*
X172401605Y-93833404D01*
X172375967Y-93850534D01*
X172375961Y-93850539D01*
X171884630Y-94341869D01*
X171880249Y-94346056D01*
X171862368Y-94364125D01*
X171861451Y-94365048D01*
X151800536Y-114425964D01*
X151761062Y-114485041D01*
X151761061Y-114485040D01*
X151701988Y-114573449D01*
X151701987Y-114573451D01*
X151679242Y-114628365D01*
X151679241Y-114628368D01*
X151634106Y-114737330D01*
X151634105Y-114737333D01*
X151634105Y-114737334D01*
X151621534Y-114800536D01*
X151606282Y-114877216D01*
X151599500Y-114911310D01*
X151599500Y-119463859D01*
X151580546Y-119559147D01*
X151526570Y-119639929D01*
X148076860Y-123089638D01*
X148026469Y-123128523D01*
X146947521Y-123759357D01*
X146936407Y-123766145D01*
X146911868Y-123779306D01*
X146847266Y-123809432D01*
X146847259Y-123809435D01*
X146660865Y-123939949D01*
X146499949Y-124100865D01*
X146369436Y-124287258D01*
X146369428Y-124287272D01*
X146273262Y-124493500D01*
X146273261Y-124493503D01*
X146214365Y-124713305D01*
X146214363Y-124713320D01*
X146194532Y-124939994D01*
X146194532Y-124940005D01*
X146214363Y-125166679D01*
X146214365Y-125166694D01*
X146273261Y-125386496D01*
X146273262Y-125386499D01*
X146369428Y-125592727D01*
X146369436Y-125592741D01*
X146484461Y-125757014D01*
X146499953Y-125779139D01*
X146660861Y-125940047D01*
X146660864Y-125940049D01*
X146660865Y-125940050D01*
X146847258Y-126070563D01*
X146847262Y-126070565D01*
X146847266Y-126070568D01*
X146847270Y-126070569D01*
X146847272Y-126070571D01*
X146954343Y-126120499D01*
X147053504Y-126166739D01*
X147273308Y-126225635D01*
X147292984Y-126227356D01*
X147499994Y-126245468D01*
X147500000Y-126245468D01*
X147500006Y-126245468D01*
X147679668Y-126229749D01*
X147726692Y-126225635D01*
X147946496Y-126166739D01*
X148152734Y-126070568D01*
X148339139Y-125940047D01*
X148500047Y-125779139D01*
X148630568Y-125592734D01*
X148661571Y-125526244D01*
X148676371Y-125500304D01*
X148676143Y-125500171D01*
X148923556Y-125077007D01*
X149311477Y-124413526D01*
X149350355Y-124363143D01*
X153199464Y-120514036D01*
X153270805Y-120407266D01*
X153278706Y-120395442D01*
X153285170Y-120385766D01*
X153298013Y-120366547D01*
X153299807Y-120362218D01*
X153341320Y-120261994D01*
X153341319Y-120261994D01*
X153341323Y-120261987D01*
X153365895Y-120202666D01*
X153400500Y-120028692D01*
X153400500Y-119851308D01*
X153400500Y-115476138D01*
X153419454Y-115380850D01*
X153473427Y-115300071D01*
X156083499Y-112689999D01*
X157721128Y-112689999D01*
X157721128Y-112690000D01*
X158684314Y-112690000D01*
X158679920Y-112694394D01*
X158627259Y-112785606D01*
X158600000Y-112887339D01*
X158600000Y-112992661D01*
X158627259Y-113094394D01*
X158679920Y-113185606D01*
X158684314Y-113190000D01*
X157721128Y-113190000D01*
X157773732Y-113386323D01*
X157869866Y-113592483D01*
X158000335Y-113778812D01*
X158161187Y-113939664D01*
X158347516Y-114070133D01*
X158553676Y-114166267D01*
X158749999Y-114218871D01*
X158750000Y-114218871D01*
X158750000Y-113255686D01*
X158754394Y-113260080D01*
X158845606Y-113312741D01*
X158947339Y-113340000D01*
X159052661Y-113340000D01*
X159154394Y-113312741D01*
X159245606Y-113260080D01*
X159250000Y-113255686D01*
X159250000Y-114218871D01*
X159446323Y-114166267D01*
X159652483Y-114070133D01*
X159838812Y-113939664D01*
X159999664Y-113778812D01*
X160130133Y-113592483D01*
X160226267Y-113386323D01*
X160278872Y-113190000D01*
X159315686Y-113190000D01*
X159320080Y-113185606D01*
X159372741Y-113094394D01*
X159400000Y-112992661D01*
X159400000Y-112887339D01*
X159372741Y-112785606D01*
X159320080Y-112694394D01*
X159315686Y-112690000D01*
X160278872Y-112690000D01*
X160278871Y-112689999D01*
X160226267Y-112493676D01*
X160130133Y-112287516D01*
X159999664Y-112101187D01*
X159838812Y-111940335D01*
X159652483Y-111809866D01*
X159446318Y-111713730D01*
X159250000Y-111661126D01*
X159250000Y-112624314D01*
X159245606Y-112619920D01*
X159154394Y-112567259D01*
X159052661Y-112540000D01*
X158947339Y-112540000D01*
X158845606Y-112567259D01*
X158754394Y-112619920D01*
X158750000Y-112624314D01*
X158750000Y-111661127D01*
X158749999Y-111661126D01*
X158553681Y-111713730D01*
X158347516Y-111809866D01*
X158161187Y-111940335D01*
X158000335Y-112101187D01*
X157869866Y-112287516D01*
X157773732Y-112493676D01*
X157721128Y-112689999D01*
X156083499Y-112689999D01*
X172246754Y-96526743D01*
X172327533Y-96472770D01*
X172422821Y-96453816D01*
X172518109Y-96472770D01*
X172598891Y-96526746D01*
X172652867Y-96607528D01*
X172671821Y-96702816D01*
X172663337Y-96767260D01*
X172639936Y-96854595D01*
X172639935Y-96854598D01*
X172619341Y-97089994D01*
X172619341Y-97090005D01*
X172639935Y-97325401D01*
X172639937Y-97325408D01*
X172701097Y-97553663D01*
X172787767Y-97739526D01*
X172800965Y-97767830D01*
X172932649Y-97955895D01*
X172936505Y-97961401D01*
X173103599Y-98128495D01*
X173142925Y-98156031D01*
X173210107Y-98226209D01*
X173245321Y-98316758D01*
X173243202Y-98413890D01*
X173204074Y-98502818D01*
X173142927Y-98563966D01*
X173103600Y-98591503D01*
X173103598Y-98591505D01*
X173044087Y-98651015D01*
X173020058Y-98672137D01*
X173003228Y-98685113D01*
X173003226Y-98685114D01*
X173003226Y-98685115D01*
X172368869Y-99337708D01*
X171927331Y-99791939D01*
X171927317Y-99791953D01*
X171885991Y-99838963D01*
X171885630Y-99838646D01*
X171872937Y-99853561D01*
X163300532Y-108425968D01*
X163279434Y-108457545D01*
X163201988Y-108573449D01*
X163201988Y-108573450D01*
X163168045Y-108655395D01*
X163134106Y-108737330D01*
X163134105Y-108737333D01*
X163134105Y-108737334D01*
X163123265Y-108791835D01*
X163099500Y-108911310D01*
X163099500Y-115083859D01*
X163080546Y-115179147D01*
X163026570Y-115259929D01*
X159576860Y-118709638D01*
X159526469Y-118748523D01*
X158447521Y-119379357D01*
X158436407Y-119386145D01*
X158411868Y-119399306D01*
X158347266Y-119429432D01*
X158347259Y-119429435D01*
X158160865Y-119559949D01*
X157999949Y-119720865D01*
X157869436Y-119907258D01*
X157869428Y-119907272D01*
X157773262Y-120113500D01*
X157773261Y-120113503D01*
X157714365Y-120333305D01*
X157714363Y-120333320D01*
X157694532Y-120559994D01*
X157694532Y-120560005D01*
X157714363Y-120786679D01*
X157714365Y-120786693D01*
X157773264Y-121006507D01*
X157775901Y-121013752D01*
X157782781Y-121035781D01*
X158072599Y-122141583D01*
X158091364Y-122213179D01*
X158099500Y-122276309D01*
X158099500Y-123723689D01*
X158091365Y-123786817D01*
X157782778Y-124964224D01*
X157775907Y-124986230D01*
X157773265Y-124993489D01*
X157714365Y-125213309D01*
X157714363Y-125213320D01*
X157694532Y-125439994D01*
X157694532Y-125440005D01*
X157714363Y-125666679D01*
X157714365Y-125666694D01*
X157773261Y-125886496D01*
X157773262Y-125886499D01*
X157869428Y-126092727D01*
X157869436Y-126092741D01*
X157999949Y-126279134D01*
X157999953Y-126279139D01*
X158160861Y-126440047D01*
X158160864Y-126440049D01*
X158160865Y-126440050D01*
X158347258Y-126570563D01*
X158347262Y-126570565D01*
X158347266Y-126570568D01*
X158347270Y-126570569D01*
X158347272Y-126570571D01*
X158430020Y-126609157D01*
X158553504Y-126666739D01*
X158773308Y-126725635D01*
X158792984Y-126727356D01*
X158999994Y-126745468D01*
X159000000Y-126745468D01*
X159000006Y-126745468D01*
X159179668Y-126729749D01*
X159226692Y-126725635D01*
X159446496Y-126666739D01*
X159652734Y-126570568D01*
X159839139Y-126440047D01*
X160000047Y-126279139D01*
X160130568Y-126092734D01*
X160226739Y-125886496D01*
X160285635Y-125666692D01*
X160292105Y-125592741D01*
X160305468Y-125440005D01*
X160305468Y-125439994D01*
X160285636Y-125213320D01*
X160285635Y-125213309D01*
X160285635Y-125213308D01*
X160226739Y-124993504D01*
X160226732Y-124993489D01*
X160224100Y-124986255D01*
X160217217Y-124964215D01*
X160158593Y-124740536D01*
X159908635Y-123786817D01*
X159900500Y-123723689D01*
X159900500Y-122276309D01*
X159908635Y-122213181D01*
X159948769Y-122060050D01*
X160201841Y-121094449D01*
X160227746Y-121031908D01*
X160811476Y-120033526D01*
X160850355Y-119983143D01*
X164699464Y-116134036D01*
X164763667Y-116037949D01*
X164798013Y-115986547D01*
X164830685Y-115907669D01*
X164865895Y-115822666D01*
X164900500Y-115648692D01*
X164900500Y-115471308D01*
X164900500Y-115411309D01*
X164900500Y-109476139D01*
X164919454Y-109380851D01*
X164973428Y-109300071D01*
X172200261Y-102073237D01*
X172281040Y-102019264D01*
X172376328Y-102000310D01*
X172471616Y-102019264D01*
X172552398Y-102073240D01*
X172606374Y-102154022D01*
X172624380Y-102227607D01*
X172639935Y-102405401D01*
X172639937Y-102405408D01*
X172701097Y-102633663D01*
X172800965Y-102847830D01*
X172936505Y-103041401D01*
X173103599Y-103208495D01*
X173142925Y-103236031D01*
X173210107Y-103306209D01*
X173245321Y-103396758D01*
X173243202Y-103493890D01*
X173204074Y-103582818D01*
X173142928Y-103643965D01*
X173103603Y-103671501D01*
X172936504Y-103838600D01*
X172800965Y-104032169D01*
X172800961Y-104032177D01*
X172701098Y-104246333D01*
X172701097Y-104246335D01*
X172639935Y-104474598D01*
X172619341Y-104709994D01*
X172619341Y-104710005D01*
X172639935Y-104945401D01*
X172651210Y-104987482D01*
X172701097Y-105173663D01*
X172800965Y-105387830D01*
X172936505Y-105581401D01*
X172936506Y-105581402D01*
X172936507Y-105581403D01*
X172939849Y-105585387D01*
X172941849Y-105589034D01*
X172942741Y-105590307D01*
X172942601Y-105590404D01*
X172986577Y-105670566D01*
X172997151Y-105767144D01*
X172969961Y-105860417D01*
X172909147Y-105936185D01*
X172896431Y-105944868D01*
X172896927Y-105945531D01*
X172882670Y-105956203D01*
X172882669Y-105956204D01*
X172839231Y-105988722D01*
X172767455Y-106042453D01*
X172767453Y-106042455D01*
X172681204Y-106157669D01*
X172630908Y-106292518D01*
X172624500Y-106352123D01*
X172624500Y-108147865D01*
X172624500Y-108147868D01*
X172624501Y-108147872D01*
X172626567Y-108167093D01*
X172630908Y-108207480D01*
X172630909Y-108207483D01*
X172681204Y-108342331D01*
X172767454Y-108457546D01*
X172882669Y-108543796D01*
X173017517Y-108594091D01*
X173077127Y-108600500D01*
X174872872Y-108600499D01*
X174932483Y-108594091D01*
X175067331Y-108543796D01*
X175182546Y-108457546D01*
X175268796Y-108342331D01*
X175319091Y-108207483D01*
X175325500Y-108147873D01*
X175325499Y-106352128D01*
X175319091Y-106292517D01*
X175268796Y-106157669D01*
X175182546Y-106042454D01*
X175067331Y-105956204D01*
X175067329Y-105956203D01*
X175053073Y-105945531D01*
X175055543Y-105942231D01*
X175006995Y-105901646D01*
X174961976Y-105815550D01*
X174953331Y-105718781D01*
X174982376Y-105626069D01*
X175010158Y-105585378D01*
X175013494Y-105581402D01*
X175017350Y-105575895D01*
X175149035Y-105387830D01*
X175248903Y-105173663D01*
X175310063Y-104945408D01*
X175324217Y-104783630D01*
X175330659Y-104710005D01*
X175330659Y-104709994D01*
X175310064Y-104474598D01*
X175310063Y-104474595D01*
X175310063Y-104474592D01*
X175248903Y-104246337D01*
X175153113Y-104040916D01*
X175149038Y-104032177D01*
X175149034Y-104032169D01*
X175099724Y-103961747D01*
X175013495Y-103838599D01*
X174846401Y-103671505D01*
X174807074Y-103643967D01*
X174739891Y-103573789D01*
X174704678Y-103483240D01*
X174706797Y-103386108D01*
X174745925Y-103297181D01*
X174807073Y-103236032D01*
X174846401Y-103208495D01*
X175013495Y-103041401D01*
X175149035Y-102847830D01*
X175248903Y-102633663D01*
X175310063Y-102405408D01*
X175330659Y-102170000D01*
X175330659Y-102169994D01*
X175310064Y-101934598D01*
X175310063Y-101934595D01*
X175310063Y-101934592D01*
X175248903Y-101706337D01*
X175149035Y-101492171D01*
X175013495Y-101298599D01*
X174846401Y-101131505D01*
X174807074Y-101103967D01*
X174739891Y-101033789D01*
X174704678Y-100943240D01*
X174706797Y-100846108D01*
X174745925Y-100757181D01*
X174807073Y-100696032D01*
X174846401Y-100668495D01*
X175013495Y-100501401D01*
X175149035Y-100307830D01*
X175248903Y-100093663D01*
X175310063Y-99865408D01*
X175312405Y-99838646D01*
X175330659Y-99630000D01*
X175330659Y-99629994D01*
X175310064Y-99394598D01*
X175310063Y-99394595D01*
X175310063Y-99394592D01*
X175248903Y-99166337D01*
X175149035Y-98952171D01*
X175013495Y-98758599D01*
X174846401Y-98591505D01*
X174807074Y-98563967D01*
X174739891Y-98493789D01*
X174704678Y-98403240D01*
X174706797Y-98306108D01*
X174745925Y-98217181D01*
X174807073Y-98156032D01*
X174846401Y-98128495D01*
X175013495Y-97961401D01*
X175149035Y-97767830D01*
X175248903Y-97553663D01*
X175310063Y-97325408D01*
X175330659Y-97090000D01*
X175330659Y-97089994D01*
X175310064Y-96854598D01*
X175310063Y-96854595D01*
X175310063Y-96854592D01*
X175248903Y-96626337D01*
X175149035Y-96412171D01*
X175013495Y-96218599D01*
X174846401Y-96051505D01*
X174807074Y-96023967D01*
X174739891Y-95953789D01*
X174704678Y-95863240D01*
X174706797Y-95766108D01*
X174745925Y-95677181D01*
X174807073Y-95616032D01*
X174846401Y-95588495D01*
X175013495Y-95421401D01*
X175149035Y-95227830D01*
X175248903Y-95013663D01*
X175310063Y-94785408D01*
X175310064Y-94785401D01*
X175330659Y-94550005D01*
X175330659Y-94549994D01*
X175310064Y-94314598D01*
X175310063Y-94314595D01*
X175310063Y-94314592D01*
X175248903Y-94086337D01*
X175149035Y-93872171D01*
X175135999Y-93853554D01*
X175064882Y-93751988D01*
X175013495Y-93678599D01*
X174846401Y-93511505D01*
X174807074Y-93483967D01*
X174739891Y-93413789D01*
X174704678Y-93323240D01*
X174706797Y-93226108D01*
X174745925Y-93137181D01*
X174807073Y-93076032D01*
X174846401Y-93048495D01*
X175013495Y-92881401D01*
X175149035Y-92687830D01*
X175248903Y-92473663D01*
X175310063Y-92245408D01*
X175310064Y-92245401D01*
X175330659Y-92010005D01*
X175330659Y-92009994D01*
X175310064Y-91774598D01*
X175310063Y-91774595D01*
X175310063Y-91774592D01*
X175248903Y-91546337D01*
X175149035Y-91332171D01*
X175013495Y-91138599D01*
X174846401Y-90971505D01*
X174807074Y-90943967D01*
X174739891Y-90873789D01*
X174704678Y-90783240D01*
X174706797Y-90686108D01*
X174745925Y-90597181D01*
X174807073Y-90536032D01*
X174846401Y-90508495D01*
X175013495Y-90341401D01*
X175149035Y-90147830D01*
X175248903Y-89933663D01*
X175310063Y-89705408D01*
X175313297Y-89668443D01*
X175330659Y-89470005D01*
X175330659Y-89469994D01*
X175310064Y-89234598D01*
X175310063Y-89234595D01*
X175310063Y-89234592D01*
X175248903Y-89006337D01*
X175149035Y-88792171D01*
X175106245Y-88731061D01*
X175099724Y-88721747D01*
X175013495Y-88598599D01*
X174846401Y-88431505D01*
X174807074Y-88403967D01*
X174739891Y-88333789D01*
X174704678Y-88243240D01*
X174706797Y-88146108D01*
X174745925Y-88057181D01*
X174807073Y-87996032D01*
X174846401Y-87968495D01*
X175013495Y-87801401D01*
X175149035Y-87607830D01*
X175248903Y-87393663D01*
X175310063Y-87165408D01*
X175330659Y-86930000D01*
X175330659Y-86929994D01*
X175310064Y-86694598D01*
X175310063Y-86694595D01*
X175310063Y-86694592D01*
X175248903Y-86466337D01*
X175149035Y-86252171D01*
X175013495Y-86058599D01*
X174846401Y-85891505D01*
X174807074Y-85863967D01*
X174739891Y-85793789D01*
X174704678Y-85703240D01*
X174706797Y-85606108D01*
X174745925Y-85517181D01*
X174807073Y-85456032D01*
X174846401Y-85428495D01*
X175013495Y-85261401D01*
X175149035Y-85067830D01*
X175248903Y-84853663D01*
X175310063Y-84625408D01*
X175330659Y-84390000D01*
X175330659Y-84389994D01*
X175310064Y-84154598D01*
X175310063Y-84154595D01*
X175310063Y-84154592D01*
X175248903Y-83926337D01*
X175149035Y-83712171D01*
X175013495Y-83518599D01*
X174846401Y-83351505D01*
X174807074Y-83323967D01*
X174739891Y-83253789D01*
X174704678Y-83163240D01*
X174706797Y-83066108D01*
X174745925Y-82977181D01*
X174807073Y-82916032D01*
X174846401Y-82888495D01*
X175013495Y-82721401D01*
X175149035Y-82527830D01*
X175248903Y-82313663D01*
X175310063Y-82085408D01*
X175326161Y-81901411D01*
X175330659Y-81850005D01*
X175330659Y-81849994D01*
X175310064Y-81614598D01*
X175310063Y-81614595D01*
X175310063Y-81614592D01*
X175248903Y-81386337D01*
X175149035Y-81172171D01*
X175013495Y-80978599D01*
X174846401Y-80811505D01*
X174807074Y-80783967D01*
X174739891Y-80713789D01*
X174704678Y-80623240D01*
X174706797Y-80526108D01*
X174745925Y-80437181D01*
X174807073Y-80376032D01*
X174846401Y-80348495D01*
X175013495Y-80181401D01*
X175149035Y-79987830D01*
X175248903Y-79773663D01*
X175310063Y-79545408D01*
X175311055Y-79534075D01*
X175330659Y-79310005D01*
X175330659Y-79309994D01*
X175310064Y-79074598D01*
X175310063Y-79074595D01*
X175310063Y-79074592D01*
X175248903Y-78846337D01*
X175149035Y-78632171D01*
X175141333Y-78621172D01*
X175085137Y-78540915D01*
X175013495Y-78438599D01*
X174846401Y-78271505D01*
X174807074Y-78243967D01*
X174739891Y-78173789D01*
X174704678Y-78083240D01*
X174706797Y-77986108D01*
X174745925Y-77897181D01*
X174807073Y-77836032D01*
X174846401Y-77808495D01*
X175013495Y-77641401D01*
X175149035Y-77447830D01*
X175248903Y-77233663D01*
X175310063Y-77005408D01*
X175330659Y-76770000D01*
X175330659Y-76769994D01*
X175310064Y-76534598D01*
X175310063Y-76534595D01*
X175310063Y-76534592D01*
X175248903Y-76306337D01*
X175149035Y-76092171D01*
X175013495Y-75898599D01*
X174846401Y-75731505D01*
X174846397Y-75731502D01*
X174846396Y-75731501D01*
X174806638Y-75703662D01*
X174739454Y-75633481D01*
X174704242Y-75542931D01*
X174706362Y-75445800D01*
X174745491Y-75356873D01*
X174806640Y-75295724D01*
X174846075Y-75268111D01*
X175013110Y-75101076D01*
X175148600Y-74907576D01*
X175248433Y-74693485D01*
X175248433Y-74693483D01*
X175305636Y-74480001D01*
X175305636Y-74480000D01*
X174408012Y-74480000D01*
X174440925Y-74422993D01*
X174475000Y-74295826D01*
X174475000Y-74164174D01*
X174440925Y-74037007D01*
X174408012Y-73980000D01*
X175305636Y-73980000D01*
X175305636Y-73979998D01*
X175248433Y-73766516D01*
X175248429Y-73766505D01*
X175148603Y-73552428D01*
X175148599Y-73552420D01*
X175013110Y-73358923D01*
X174846075Y-73191888D01*
X174806637Y-73164273D01*
X174739454Y-73094091D01*
X174704242Y-73003542D01*
X174706362Y-72906410D01*
X174745491Y-72817483D01*
X174806636Y-72756338D01*
X174846401Y-72728495D01*
X175013495Y-72561401D01*
X175149035Y-72367830D01*
X175248903Y-72153663D01*
X175310063Y-71925408D01*
X175314049Y-71879851D01*
X175330659Y-71690005D01*
X175330659Y-71689994D01*
X175310064Y-71454598D01*
X175310063Y-71454595D01*
X175310063Y-71454592D01*
X175248903Y-71226337D01*
X175149035Y-71012171D01*
X175013495Y-70818599D01*
X174846401Y-70651505D01*
X174831278Y-70640916D01*
X174652830Y-70515965D01*
X174594343Y-70488692D01*
X174438663Y-70416097D01*
X174438660Y-70416096D01*
X174210401Y-70354935D01*
X173975005Y-70334341D01*
X173974995Y-70334341D01*
X173739598Y-70354935D01*
X173511335Y-70416097D01*
X173511333Y-70416098D01*
X173297177Y-70515961D01*
X173297169Y-70515965D01*
X173103600Y-70651504D01*
X172936504Y-70818600D01*
X172800965Y-71012169D01*
X172800961Y-71012177D01*
X172701098Y-71226333D01*
X172701097Y-71226335D01*
X172639935Y-71454598D01*
X172619341Y-71689994D01*
X172619341Y-71690005D01*
X172639935Y-71925401D01*
X172639937Y-71925408D01*
X172701097Y-72153663D01*
X172800965Y-72367830D01*
X172936505Y-72561401D01*
X173103599Y-72728495D01*
X173143362Y-72756338D01*
X173210544Y-72826517D01*
X173245757Y-72917067D01*
X173243638Y-73014198D01*
X173204509Y-73103126D01*
X173143364Y-73164272D01*
X173103923Y-73191889D01*
X172936889Y-73358923D01*
X172801400Y-73552420D01*
X172801396Y-73552428D01*
X172701570Y-73766505D01*
X172701566Y-73766516D01*
X172644363Y-73979998D01*
X172644364Y-73980000D01*
X173541988Y-73980000D01*
X173509075Y-74037007D01*
X173475000Y-74164174D01*
X173475000Y-74295826D01*
X173509075Y-74422993D01*
X173541988Y-74480000D01*
X172644364Y-74480000D01*
X172644363Y-74480001D01*
X172701566Y-74693483D01*
X172701566Y-74693485D01*
X172801399Y-74907576D01*
X172936889Y-75101076D01*
X173103923Y-75268110D01*
X173143361Y-75295725D01*
X173210545Y-75365907D01*
X173245757Y-75456456D01*
X173243638Y-75553588D01*
X173204509Y-75642515D01*
X173143363Y-75703661D01*
X173103602Y-75731502D01*
X172936504Y-75898600D01*
X172800965Y-76092169D01*
X172800961Y-76092177D01*
X172701098Y-76306333D01*
X172701097Y-76306335D01*
X172639935Y-76534598D01*
X172619341Y-76769994D01*
X172619341Y-76770005D01*
X172639935Y-77005401D01*
X172639937Y-77005408D01*
X172701097Y-77233663D01*
X172800965Y-77447830D01*
X172936505Y-77641401D01*
X173103599Y-77808495D01*
X173142925Y-77836031D01*
X173210107Y-77906209D01*
X173245321Y-77996758D01*
X173243202Y-78093890D01*
X173204074Y-78182818D01*
X173142928Y-78243965D01*
X173103603Y-78271501D01*
X172936504Y-78438600D01*
X172800965Y-78632169D01*
X172800961Y-78632177D01*
X172701098Y-78846333D01*
X172701097Y-78846335D01*
X172639935Y-79074598D01*
X172619341Y-79309994D01*
X172619341Y-79310005D01*
X172639935Y-79545401D01*
X172701096Y-79773660D01*
X172800965Y-79987830D01*
X172885273Y-80108235D01*
X172936505Y-80181401D01*
X173103599Y-80348495D01*
X173142925Y-80376031D01*
X173210107Y-80446209D01*
X173245321Y-80536758D01*
X173243202Y-80633890D01*
X173204074Y-80722818D01*
X173142928Y-80783965D01*
X173103603Y-80811501D01*
X172936504Y-80978600D01*
X172800965Y-81172169D01*
X172800961Y-81172177D01*
X172701098Y-81386333D01*
X172701097Y-81386335D01*
X172639935Y-81614598D01*
X172619341Y-81849994D01*
X172619341Y-81850005D01*
X172639935Y-82085401D01*
X172639937Y-82085408D01*
X172701097Y-82313663D01*
X172800965Y-82527830D01*
X172936505Y-82721401D01*
X173103599Y-82888495D01*
X173142925Y-82916031D01*
X173210107Y-82986209D01*
X173245321Y-83076758D01*
X173243202Y-83173890D01*
X173204074Y-83262818D01*
X173142928Y-83323965D01*
X173103603Y-83351501D01*
X172936504Y-83518600D01*
X172800965Y-83712169D01*
X172800961Y-83712177D01*
X172701098Y-83926333D01*
X172701097Y-83926335D01*
X172639935Y-84154598D01*
X172619341Y-84389994D01*
X172619341Y-84390005D01*
X172639935Y-84625401D01*
X172639937Y-84625408D01*
X172701097Y-84853663D01*
X172800965Y-85067830D01*
X172936505Y-85261401D01*
X173103599Y-85428495D01*
X173142925Y-85456031D01*
X173210107Y-85526209D01*
X173245321Y-85616758D01*
X173243202Y-85713890D01*
X173204074Y-85802818D01*
X173142928Y-85863965D01*
X173103603Y-85891501D01*
X172936504Y-86058600D01*
X172800965Y-86252169D01*
X172800961Y-86252177D01*
X172701098Y-86466333D01*
X172701097Y-86466335D01*
X172639935Y-86694598D01*
X172619341Y-86929994D01*
X172619341Y-86930005D01*
X172639935Y-87165401D01*
X172639937Y-87165408D01*
X172701097Y-87393663D01*
X172800965Y-87607830D01*
X172936505Y-87801401D01*
X173071556Y-87936452D01*
X173125530Y-88017231D01*
X173144484Y-88112519D01*
X173125530Y-88207807D01*
X173071554Y-88288589D01*
X172990772Y-88342565D01*
X172962683Y-88352280D01*
X172220621Y-88560261D01*
X172153422Y-88569500D01*
X171118692Y-88569500D01*
X170941308Y-88569500D01*
X170854321Y-88586802D01*
X170767331Y-88604105D01*
X170712332Y-88626887D01*
X170701589Y-88631338D01*
X170603454Y-88671986D01*
X170603446Y-88671990D01*
X170515040Y-88731061D01*
X170515041Y-88731062D01*
X170455964Y-88770536D01*
X149699930Y-109526570D01*
X149619148Y-109580546D01*
X149523860Y-109599500D01*
X133910730Y-109599500D01*
X133870622Y-109595538D01*
X133870595Y-109595753D01*
X133862675Y-109594753D01*
X133862019Y-109594688D01*
X133861775Y-109594640D01*
X133861773Y-109594639D01*
X133861769Y-109594639D01*
X132147001Y-109501722D01*
X132134367Y-109500331D01*
X132124337Y-109499500D01*
X132124335Y-109499500D01*
X132112714Y-109499500D01*
X132099240Y-109499135D01*
X132039677Y-109495907D01*
X132025766Y-109495344D01*
X132025212Y-109495329D01*
X132025201Y-109495330D01*
X132025199Y-109495330D01*
X132025197Y-109495330D01*
X131958153Y-109497994D01*
X131958151Y-109497994D01*
X131945127Y-109498512D01*
X131945122Y-109498391D01*
X131929791Y-109499500D01*
X131875665Y-109499500D01*
X131630389Y-109540428D01*
X131630378Y-109540430D01*
X131395188Y-109621172D01*
X131176485Y-109739529D01*
X130980261Y-109892257D01*
X130980248Y-109892269D01*
X130811836Y-110075214D01*
X130811830Y-110075221D01*
X130675828Y-110283391D01*
X130675825Y-110283396D01*
X130575936Y-110511121D01*
X130575935Y-110511125D01*
X130514894Y-110752168D01*
X130514892Y-110752176D01*
X130494357Y-111000000D01*
X129005140Y-111000000D01*
X128984612Y-110752258D01*
X128984610Y-110752251D01*
X128923589Y-110511285D01*
X128923586Y-110511277D01*
X128823731Y-110283631D01*
X128823731Y-110283630D01*
X128723436Y-110130117D01*
X128023787Y-110829766D01*
X128012518Y-110787708D01*
X127940110Y-110662292D01*
X127837708Y-110559890D01*
X127712292Y-110487482D01*
X127670231Y-110476211D01*
X128370055Y-109776388D01*
X128370056Y-109776388D01*
X128323238Y-109739949D01*
X128104607Y-109621631D01*
X127869490Y-109540916D01*
X127869487Y-109540915D01*
X127624294Y-109500000D01*
X127375706Y-109500000D01*
X127130512Y-109540915D01*
X127130509Y-109540916D01*
X126895392Y-109621631D01*
X126676769Y-109739944D01*
X126676758Y-109739951D01*
X126629943Y-109776388D01*
X127329767Y-110476212D01*
X127287708Y-110487482D01*
X127162292Y-110559890D01*
X127059890Y-110662292D01*
X126987482Y-110787708D01*
X126976212Y-110829767D01*
X126276562Y-110130117D01*
X126176268Y-110283630D01*
X126176268Y-110283631D01*
X126076413Y-110511277D01*
X126076410Y-110511285D01*
X126015389Y-110752251D01*
X126015387Y-110752258D01*
X125994859Y-111000000D01*
X115500500Y-111000000D01*
X115500500Y-105500000D01*
X125994859Y-105500000D01*
X126015387Y-105747741D01*
X126015389Y-105747748D01*
X126076410Y-105988714D01*
X126076413Y-105988722D01*
X126176268Y-106216368D01*
X126176268Y-106216369D01*
X126276562Y-106369881D01*
X126976211Y-105670231D01*
X126987482Y-105712292D01*
X127059890Y-105837708D01*
X127162292Y-105940110D01*
X127287708Y-106012518D01*
X127329765Y-106023787D01*
X126629943Y-106723610D01*
X126676761Y-106760050D01*
X126676769Y-106760055D01*
X126895392Y-106878368D01*
X127130509Y-106959083D01*
X127130512Y-106959084D01*
X127375706Y-107000000D01*
X127624294Y-107000000D01*
X127869487Y-106959084D01*
X127869490Y-106959083D01*
X128104607Y-106878368D01*
X128323232Y-106760054D01*
X128370055Y-106723610D01*
X127670232Y-106023787D01*
X127712292Y-106012518D01*
X127837708Y-105940110D01*
X127940110Y-105837708D01*
X128012518Y-105712292D01*
X128023787Y-105670233D01*
X128723435Y-106369881D01*
X128823733Y-106216364D01*
X128923586Y-105988722D01*
X128923589Y-105988714D01*
X128984610Y-105747748D01*
X128984612Y-105747741D01*
X129005140Y-105500000D01*
X128984612Y-105252258D01*
X128984610Y-105252251D01*
X128923589Y-105011285D01*
X128923586Y-105011277D01*
X128823731Y-104783631D01*
X128823731Y-104783630D01*
X128723436Y-104630117D01*
X128023787Y-105329766D01*
X128012518Y-105287708D01*
X127940110Y-105162292D01*
X127837708Y-105059890D01*
X127712292Y-104987482D01*
X127670231Y-104976211D01*
X128370055Y-104276388D01*
X128370056Y-104276388D01*
X128323238Y-104239949D01*
X128104607Y-104121631D01*
X127869490Y-104040916D01*
X127869487Y-104040915D01*
X127624294Y-104000000D01*
X127375706Y-104000000D01*
X127130512Y-104040915D01*
X127130509Y-104040916D01*
X126895392Y-104121631D01*
X126676769Y-104239944D01*
X126676758Y-104239951D01*
X126629943Y-104276388D01*
X127329767Y-104976212D01*
X127287708Y-104987482D01*
X127162292Y-105059890D01*
X127059890Y-105162292D01*
X126987482Y-105287708D01*
X126976212Y-105329767D01*
X126276562Y-104630117D01*
X126176268Y-104783630D01*
X126176268Y-104783631D01*
X126076413Y-105011277D01*
X126076410Y-105011285D01*
X126015389Y-105252251D01*
X126015387Y-105252258D01*
X125994859Y-105500000D01*
X115500500Y-105500000D01*
X115500500Y-99000000D01*
X125994859Y-99000000D01*
X126015387Y-99247741D01*
X126015389Y-99247748D01*
X126076410Y-99488714D01*
X126076413Y-99488722D01*
X126176268Y-99716368D01*
X126176268Y-99716369D01*
X126276562Y-99869881D01*
X126976211Y-99170231D01*
X126987482Y-99212292D01*
X127059890Y-99337708D01*
X127162292Y-99440110D01*
X127287708Y-99512518D01*
X127329765Y-99523787D01*
X126629943Y-100223610D01*
X126676761Y-100260050D01*
X126676769Y-100260055D01*
X126895392Y-100378368D01*
X127130509Y-100459083D01*
X127130512Y-100459084D01*
X127375706Y-100500000D01*
X127624294Y-100500000D01*
X127869487Y-100459084D01*
X127869490Y-100459083D01*
X128104607Y-100378368D01*
X128323232Y-100260054D01*
X128370055Y-100223610D01*
X127670232Y-99523787D01*
X127712292Y-99512518D01*
X127837708Y-99440110D01*
X127940110Y-99337708D01*
X128012518Y-99212292D01*
X128023787Y-99170233D01*
X128723435Y-99869881D01*
X128823733Y-99716364D01*
X128923586Y-99488722D01*
X128923589Y-99488714D01*
X128984610Y-99247748D01*
X128984612Y-99247741D01*
X129005140Y-99000000D01*
X128984612Y-98752258D01*
X128984610Y-98752251D01*
X128923589Y-98511285D01*
X128923586Y-98511277D01*
X128823731Y-98283631D01*
X128823731Y-98283630D01*
X128723436Y-98130117D01*
X128023787Y-98829766D01*
X128012518Y-98787708D01*
X127940110Y-98662292D01*
X127837708Y-98559890D01*
X127712292Y-98487482D01*
X127670231Y-98476211D01*
X128370055Y-97776388D01*
X128370056Y-97776388D01*
X128323238Y-97739949D01*
X128104607Y-97621631D01*
X127869490Y-97540916D01*
X127869487Y-97540915D01*
X127624294Y-97500000D01*
X127375706Y-97500000D01*
X127130512Y-97540915D01*
X127130509Y-97540916D01*
X126895392Y-97621631D01*
X126676769Y-97739944D01*
X126676758Y-97739951D01*
X126629943Y-97776388D01*
X127329767Y-98476212D01*
X127287708Y-98487482D01*
X127162292Y-98559890D01*
X127059890Y-98662292D01*
X126987482Y-98787708D01*
X126976212Y-98829767D01*
X126276562Y-98130117D01*
X126176268Y-98283630D01*
X126176268Y-98283631D01*
X126076413Y-98511277D01*
X126076410Y-98511285D01*
X126015389Y-98752251D01*
X126015387Y-98752258D01*
X125994859Y-99000000D01*
X115500500Y-99000000D01*
X115500500Y-93500000D01*
X125994859Y-93500000D01*
X126015387Y-93747741D01*
X126015389Y-93747748D01*
X126076410Y-93988714D01*
X126076413Y-93988722D01*
X126176268Y-94216368D01*
X126176268Y-94216369D01*
X126276562Y-94369881D01*
X126976211Y-93670231D01*
X126987482Y-93712292D01*
X127059890Y-93837708D01*
X127162292Y-93940110D01*
X127287708Y-94012518D01*
X127329765Y-94023787D01*
X126629943Y-94723610D01*
X126676761Y-94760050D01*
X126676769Y-94760055D01*
X126895392Y-94878368D01*
X127130509Y-94959083D01*
X127130512Y-94959084D01*
X127375706Y-95000000D01*
X127624294Y-95000000D01*
X127869487Y-94959084D01*
X127869490Y-94959083D01*
X128104607Y-94878368D01*
X128323232Y-94760054D01*
X128370055Y-94723610D01*
X127670232Y-94023787D01*
X127712292Y-94012518D01*
X127837708Y-93940110D01*
X127940110Y-93837708D01*
X128012518Y-93712292D01*
X128023787Y-93670233D01*
X128723435Y-94369881D01*
X128823733Y-94216364D01*
X128923586Y-93988722D01*
X128923589Y-93988714D01*
X128984610Y-93747748D01*
X128984612Y-93747741D01*
X129005140Y-93500000D01*
X128984612Y-93252258D01*
X128984610Y-93252251D01*
X128923589Y-93011285D01*
X128923586Y-93011277D01*
X128823731Y-92783631D01*
X128823731Y-92783630D01*
X128723436Y-92630117D01*
X128023787Y-93329766D01*
X128012518Y-93287708D01*
X127940110Y-93162292D01*
X127837708Y-93059890D01*
X127712292Y-92987482D01*
X127670231Y-92976211D01*
X128370055Y-92276388D01*
X128370056Y-92276388D01*
X128323238Y-92239949D01*
X128104607Y-92121631D01*
X127869490Y-92040916D01*
X127869487Y-92040915D01*
X127624294Y-92000000D01*
X127375706Y-92000000D01*
X127130512Y-92040915D01*
X127130509Y-92040916D01*
X126895392Y-92121631D01*
X126676769Y-92239944D01*
X126676758Y-92239951D01*
X126629943Y-92276388D01*
X127329767Y-92976212D01*
X127287708Y-92987482D01*
X127162292Y-93059890D01*
X127059890Y-93162292D01*
X126987482Y-93287708D01*
X126976212Y-93329767D01*
X126276562Y-92630117D01*
X126176268Y-92783630D01*
X126176268Y-92783631D01*
X126076413Y-93011277D01*
X126076410Y-93011285D01*
X126015389Y-93252251D01*
X126015387Y-93252258D01*
X125994859Y-93500000D01*
X115500500Y-93500000D01*
X115500500Y-87000000D01*
X125994859Y-87000000D01*
X126015387Y-87247741D01*
X126015389Y-87247748D01*
X126076410Y-87488714D01*
X126076413Y-87488722D01*
X126176268Y-87716368D01*
X126176268Y-87716369D01*
X126276562Y-87869881D01*
X126976211Y-87170231D01*
X126987482Y-87212292D01*
X127059890Y-87337708D01*
X127162292Y-87440110D01*
X127287708Y-87512518D01*
X127329765Y-87523787D01*
X126629943Y-88223610D01*
X126676761Y-88260050D01*
X126676769Y-88260055D01*
X126895392Y-88378368D01*
X127130509Y-88459083D01*
X127130512Y-88459084D01*
X127375706Y-88500000D01*
X127624294Y-88500000D01*
X127869487Y-88459084D01*
X127869490Y-88459083D01*
X128104607Y-88378368D01*
X128323232Y-88260054D01*
X128370055Y-88223610D01*
X127670232Y-87523787D01*
X127712292Y-87512518D01*
X127837708Y-87440110D01*
X127940110Y-87337708D01*
X128012518Y-87212292D01*
X128023787Y-87170233D01*
X128723435Y-87869881D01*
X128823733Y-87716364D01*
X128923586Y-87488722D01*
X128923589Y-87488714D01*
X128984610Y-87247748D01*
X128984612Y-87247741D01*
X129005140Y-87000000D01*
X128984612Y-86752258D01*
X128984610Y-86752251D01*
X128923589Y-86511285D01*
X128923586Y-86511277D01*
X128823731Y-86283631D01*
X128823731Y-86283630D01*
X128723436Y-86130117D01*
X128023787Y-86829766D01*
X128012518Y-86787708D01*
X127940110Y-86662292D01*
X127837708Y-86559890D01*
X127712292Y-86487482D01*
X127670231Y-86476211D01*
X128370055Y-85776388D01*
X128370056Y-85776388D01*
X128323238Y-85739949D01*
X128104607Y-85621631D01*
X127869490Y-85540916D01*
X127869487Y-85540915D01*
X127624294Y-85500000D01*
X127375706Y-85500000D01*
X127130512Y-85540915D01*
X127130509Y-85540916D01*
X126895392Y-85621631D01*
X126676769Y-85739944D01*
X126676758Y-85739951D01*
X126629943Y-85776388D01*
X127329767Y-86476212D01*
X127287708Y-86487482D01*
X127162292Y-86559890D01*
X127059890Y-86662292D01*
X126987482Y-86787708D01*
X126976212Y-86829767D01*
X126276562Y-86130117D01*
X126176268Y-86283630D01*
X126176268Y-86283631D01*
X126076413Y-86511277D01*
X126076410Y-86511285D01*
X126015389Y-86752251D01*
X126015387Y-86752258D01*
X125994859Y-87000000D01*
X115500500Y-87000000D01*
X115500500Y-71352123D01*
X125799500Y-71352123D01*
X125799500Y-74647865D01*
X125799500Y-74647868D01*
X125799501Y-74647872D01*
X125801567Y-74667093D01*
X125805908Y-74707480D01*
X125805909Y-74707483D01*
X125856204Y-74842331D01*
X125942454Y-74957546D01*
X126057669Y-75043796D01*
X126192517Y-75094091D01*
X126252127Y-75100500D01*
X128347872Y-75100499D01*
X128407483Y-75094091D01*
X128542331Y-75043796D01*
X128657546Y-74957546D01*
X128743796Y-74842331D01*
X128794091Y-74707483D01*
X128800500Y-74647873D01*
X128800499Y-71352128D01*
X128794091Y-71292517D01*
X128743796Y-71157669D01*
X128657546Y-71042454D01*
X128542331Y-70956204D01*
X128462117Y-70926286D01*
X128407481Y-70905908D01*
X128347873Y-70899500D01*
X126252134Y-70899500D01*
X126252130Y-70899500D01*
X126252128Y-70899501D01*
X126239314Y-70900878D01*
X126192519Y-70905908D01*
X126192515Y-70905909D01*
X126057670Y-70956203D01*
X125942455Y-71042453D01*
X125942453Y-71042455D01*
X125856204Y-71157669D01*
X125805908Y-71292518D01*
X125799500Y-71352123D01*
X115500500Y-71352123D01*
X115500500Y-65500000D01*
X128894357Y-65500000D01*
X128914892Y-65747823D01*
X128914894Y-65747831D01*
X128975935Y-65988876D01*
X128975942Y-65988894D01*
X128985269Y-66010158D01*
X128995533Y-66040354D01*
X128995807Y-66040266D01*
X128998544Y-66048718D01*
X128998546Y-66048725D01*
X129474708Y-67518724D01*
X129487383Y-67557855D01*
X129499500Y-67634586D01*
X129499500Y-70311308D01*
X129499500Y-70488692D01*
X129534105Y-70662666D01*
X129534106Y-70662668D01*
X129534108Y-70662675D01*
X129561144Y-70727943D01*
X129561145Y-70727948D01*
X129561146Y-70727948D01*
X129601986Y-70826544D01*
X129601988Y-70826550D01*
X129638068Y-70880546D01*
X129650733Y-70899500D01*
X129700536Y-70974036D01*
X139526572Y-80800072D01*
X139580546Y-80880851D01*
X139599500Y-80976139D01*
X139599500Y-90911308D01*
X139599500Y-91088692D01*
X139610523Y-91144107D01*
X139634105Y-91262668D01*
X139701983Y-91426539D01*
X139701987Y-91426547D01*
X139735335Y-91476455D01*
X139800536Y-91574036D01*
X143300536Y-95074035D01*
X143300535Y-95074035D01*
X143425963Y-95199462D01*
X143425965Y-95199464D01*
X143573453Y-95298013D01*
X143737334Y-95365894D01*
X143911309Y-95400500D01*
X145200637Y-95400500D01*
X145274745Y-95415239D01*
X145275624Y-95412343D01*
X145287326Y-95415892D01*
X145287334Y-95415895D01*
X145461309Y-95450500D01*
X146753425Y-95450500D01*
X146820623Y-95459739D01*
X147250558Y-95580238D01*
X147337196Y-95624204D01*
X147400413Y-95697979D01*
X147430586Y-95790330D01*
X147423121Y-95887197D01*
X147379155Y-95973835D01*
X147305380Y-96037052D01*
X147250559Y-96059760D01*
X146820621Y-96180261D01*
X146753422Y-96189500D01*
X142916139Y-96189500D01*
X142820851Y-96170546D01*
X142740069Y-96116570D01*
X136973430Y-90349930D01*
X136919454Y-90269148D01*
X136900500Y-90173860D01*
X136900500Y-85911309D01*
X136900499Y-85911304D01*
X136869600Y-85755965D01*
X136865894Y-85737334D01*
X136798013Y-85573453D01*
X136719553Y-85456030D01*
X136699465Y-85425966D01*
X136699462Y-85425963D01*
X136574035Y-85300535D01*
X136574035Y-85300536D01*
X133074036Y-81800536D01*
X133073636Y-81800269D01*
X133014957Y-81761061D01*
X132926547Y-81701987D01*
X132831617Y-81662666D01*
X132831615Y-81662665D01*
X132762670Y-81634106D01*
X132762666Y-81634105D01*
X132588692Y-81599500D01*
X132588691Y-81599500D01*
X132588689Y-81599500D01*
X131976140Y-81599500D01*
X131880852Y-81580546D01*
X131800070Y-81526570D01*
X131745652Y-81472152D01*
X131691676Y-81391370D01*
X131672722Y-81296082D01*
X131677098Y-81249608D01*
X131815328Y-80522136D01*
X131822209Y-80496201D01*
X131824063Y-80488881D01*
X131885108Y-80247821D01*
X131900029Y-80067734D01*
X131900366Y-80064432D01*
X131900337Y-80064430D01*
X131900611Y-80061528D01*
X131900613Y-80061516D01*
X131900819Y-80059340D01*
X131900818Y-80059331D01*
X131900961Y-80057828D01*
X131901325Y-80052099D01*
X131905643Y-80000000D01*
X133894859Y-80000000D01*
X133915387Y-80247741D01*
X133915389Y-80247748D01*
X133976410Y-80488714D01*
X133976413Y-80488722D01*
X134076268Y-80716368D01*
X134076268Y-80716369D01*
X134176562Y-80869881D01*
X134917036Y-80129406D01*
X134934075Y-80192993D01*
X134999901Y-80307007D01*
X135092993Y-80400099D01*
X135207007Y-80465925D01*
X135270590Y-80482962D01*
X134529943Y-81223610D01*
X134576761Y-81260050D01*
X134576769Y-81260055D01*
X134795392Y-81378368D01*
X135030509Y-81459083D01*
X135030512Y-81459084D01*
X135275706Y-81500000D01*
X135524294Y-81500000D01*
X135769487Y-81459084D01*
X135769490Y-81459083D01*
X136004607Y-81378368D01*
X136223232Y-81260054D01*
X136270055Y-81223610D01*
X135529407Y-80482962D01*
X135592993Y-80465925D01*
X135707007Y-80400099D01*
X135800099Y-80307007D01*
X135865925Y-80192993D01*
X135882962Y-80129408D01*
X136623435Y-80869881D01*
X136723733Y-80716364D01*
X136823586Y-80488722D01*
X136823589Y-80488714D01*
X136884610Y-80247748D01*
X136884612Y-80247741D01*
X136905140Y-80000000D01*
X136884612Y-79752258D01*
X136884610Y-79752251D01*
X136823589Y-79511285D01*
X136823586Y-79511277D01*
X136723731Y-79283631D01*
X136723731Y-79283630D01*
X136623436Y-79130117D01*
X135882962Y-79870591D01*
X135865925Y-79807007D01*
X135800099Y-79692993D01*
X135707007Y-79599901D01*
X135592993Y-79534075D01*
X135529406Y-79517036D01*
X136270055Y-78776388D01*
X136270056Y-78776388D01*
X136223238Y-78739949D01*
X136004607Y-78621631D01*
X135769490Y-78540916D01*
X135769487Y-78540915D01*
X135524294Y-78500000D01*
X135275706Y-78500000D01*
X135030512Y-78540915D01*
X135030509Y-78540916D01*
X134795392Y-78621631D01*
X134576769Y-78739944D01*
X134576758Y-78739951D01*
X134529943Y-78776388D01*
X135270592Y-79517037D01*
X135207007Y-79534075D01*
X135092993Y-79599901D01*
X134999901Y-79692993D01*
X134934075Y-79807007D01*
X134917037Y-79870592D01*
X134176562Y-79130117D01*
X134076268Y-79283630D01*
X134076268Y-79283631D01*
X133976413Y-79511277D01*
X133976410Y-79511285D01*
X133915389Y-79752251D01*
X133915387Y-79752258D01*
X133894859Y-80000000D01*
X131905643Y-80000000D01*
X131885108Y-79752179D01*
X131824063Y-79511119D01*
X131724173Y-79283393D01*
X131670997Y-79202001D01*
X131588169Y-79075221D01*
X131588163Y-79075214D01*
X131419751Y-78892269D01*
X131419747Y-78892265D01*
X131419744Y-78892262D01*
X131360740Y-78846337D01*
X131223514Y-78739529D01*
X131223510Y-78739526D01*
X131223509Y-78739526D01*
X131146502Y-78697852D01*
X131004811Y-78621172D01*
X130769621Y-78540430D01*
X130769610Y-78540428D01*
X130524335Y-78499500D01*
X130275665Y-78499500D01*
X130030389Y-78540428D01*
X130030378Y-78540430D01*
X129795188Y-78621172D01*
X129576485Y-78739529D01*
X129380261Y-78892257D01*
X129380248Y-78892269D01*
X129211836Y-79075214D01*
X129211830Y-79075221D01*
X129075828Y-79283391D01*
X129075825Y-79283396D01*
X128975936Y-79511121D01*
X128975935Y-79511125D01*
X128914894Y-79752168D01*
X128914892Y-79752176D01*
X128894357Y-80000000D01*
X128914892Y-80247823D01*
X128914894Y-80247831D01*
X128975897Y-80488722D01*
X128975937Y-80488881D01*
X128996938Y-80536758D01*
X129075825Y-80716603D01*
X129075828Y-80716608D01*
X129211837Y-80924787D01*
X129218160Y-80932911D01*
X129217954Y-80933071D01*
X129239543Y-80961546D01*
X129462336Y-81322183D01*
X129496292Y-81413211D01*
X129499500Y-81453051D01*
X129499500Y-81488692D01*
X129517771Y-81580546D01*
X129534105Y-81662668D01*
X129601986Y-81826545D01*
X129601989Y-81826553D01*
X129652007Y-81901407D01*
X129652008Y-81901409D01*
X129700536Y-81974036D01*
X130925964Y-83199464D01*
X130925967Y-83199466D01*
X130925968Y-83199467D01*
X130935229Y-83205655D01*
X130935234Y-83205657D01*
X130935236Y-83205659D01*
X131073453Y-83298013D01*
X131095556Y-83307168D01*
X131155389Y-83331952D01*
X131155392Y-83331952D01*
X131155393Y-83331953D01*
X131155398Y-83331955D01*
X131237329Y-83365893D01*
X131237330Y-83365893D01*
X131237334Y-83365895D01*
X131411308Y-83400500D01*
X131411309Y-83400500D01*
X132023860Y-83400500D01*
X132119148Y-83419454D01*
X132199930Y-83473430D01*
X135026570Y-86300069D01*
X135080546Y-86380851D01*
X135099500Y-86476139D01*
X135099500Y-90561308D01*
X135099500Y-90738692D01*
X135120263Y-90843076D01*
X135134105Y-90912668D01*
X135168002Y-90994501D01*
X135185428Y-91036570D01*
X135201987Y-91076547D01*
X135224006Y-91109500D01*
X135300536Y-91224036D01*
X141740536Y-97664035D01*
X141740535Y-97664035D01*
X141816027Y-97739526D01*
X141865965Y-97789464D01*
X142013453Y-97888013D01*
X142177334Y-97955894D01*
X142351308Y-97990500D01*
X142351309Y-97990500D01*
X146753425Y-97990500D01*
X146820623Y-97999739D01*
X147149402Y-98091886D01*
X147562684Y-98207718D01*
X147649321Y-98251684D01*
X147712538Y-98325459D01*
X147742711Y-98417810D01*
X147735246Y-98514677D01*
X147691280Y-98601315D01*
X147671555Y-98623548D01*
X147536507Y-98758596D01*
X147400965Y-98952169D01*
X147400961Y-98952177D01*
X147301098Y-99166333D01*
X147301097Y-99166335D01*
X147239935Y-99394598D01*
X147219341Y-99629994D01*
X147219341Y-99630000D01*
X147239935Y-99865401D01*
X147241135Y-99869881D01*
X147301097Y-100093663D01*
X147378685Y-100260050D01*
X147400965Y-100307830D01*
X147506873Y-100459083D01*
X147536505Y-100501401D01*
X147703599Y-100668495D01*
X147742925Y-100696031D01*
X147810107Y-100766209D01*
X147845321Y-100856758D01*
X147843202Y-100953890D01*
X147804074Y-101042818D01*
X147742928Y-101103965D01*
X147703603Y-101131501D01*
X147536504Y-101298600D01*
X147400965Y-101492169D01*
X147400961Y-101492177D01*
X147301098Y-101706333D01*
X147301097Y-101706335D01*
X147239935Y-101934598D01*
X147219341Y-102169994D01*
X147219341Y-102170005D01*
X147239935Y-102405401D01*
X147239937Y-102405408D01*
X147301097Y-102633663D01*
X147400965Y-102847830D01*
X147536505Y-103041401D01*
X147671556Y-103176452D01*
X147725530Y-103257231D01*
X147744484Y-103352519D01*
X147725530Y-103447807D01*
X147671554Y-103528589D01*
X147590772Y-103582565D01*
X147562683Y-103592280D01*
X146820621Y-103800261D01*
X146753422Y-103809500D01*
X142186139Y-103809500D01*
X142090851Y-103790546D01*
X142010069Y-103736570D01*
X139473430Y-101199930D01*
X139419454Y-101119148D01*
X139400500Y-101023860D01*
X139400500Y-99911310D01*
X139400500Y-99911309D01*
X139391370Y-99865408D01*
X139365895Y-99737334D01*
X139321435Y-99630000D01*
X139298013Y-99573453D01*
X139276125Y-99540696D01*
X139238936Y-99485039D01*
X139238933Y-99485034D01*
X139199469Y-99425970D01*
X139199466Y-99425967D01*
X139199464Y-99425964D01*
X134146127Y-94372627D01*
X134100439Y-94309802D01*
X134052848Y-94216608D01*
X133401389Y-92940905D01*
X133386271Y-92904409D01*
X132946366Y-91546333D01*
X132912617Y-91442143D01*
X132900500Y-91365412D01*
X132900500Y-89134586D01*
X132912617Y-89057855D01*
X132958954Y-88914804D01*
X133401453Y-87548725D01*
X133403763Y-87540684D01*
X133415056Y-87509411D01*
X133424063Y-87488881D01*
X133485108Y-87247821D01*
X133505643Y-87000000D01*
X133485108Y-86752179D01*
X133424063Y-86511119D01*
X133324173Y-86283393D01*
X133270997Y-86202001D01*
X133188169Y-86075221D01*
X133188163Y-86075214D01*
X133019751Y-85892269D01*
X133019747Y-85892265D01*
X133019744Y-85892262D01*
X133019738Y-85892257D01*
X132823514Y-85739529D01*
X132823510Y-85739526D01*
X132823509Y-85739526D01*
X132676558Y-85660000D01*
X132604811Y-85621172D01*
X132369621Y-85540430D01*
X132369610Y-85540428D01*
X132124335Y-85499500D01*
X131875665Y-85499500D01*
X131630389Y-85540428D01*
X131630378Y-85540430D01*
X131395188Y-85621172D01*
X131176485Y-85739529D01*
X130980261Y-85892257D01*
X130980248Y-85892269D01*
X130811836Y-86075214D01*
X130811830Y-86075221D01*
X130675828Y-86283391D01*
X130675825Y-86283396D01*
X130575936Y-86511121D01*
X130575935Y-86511125D01*
X130514894Y-86752168D01*
X130514892Y-86752176D01*
X130494357Y-87000000D01*
X130514892Y-87247823D01*
X130514894Y-87247831D01*
X130575935Y-87488876D01*
X130575942Y-87488894D01*
X130585269Y-87510158D01*
X130595533Y-87540354D01*
X130595807Y-87540266D01*
X130598544Y-87548718D01*
X130598546Y-87548725D01*
X131070695Y-89006337D01*
X131087383Y-89057855D01*
X131099500Y-89134586D01*
X131099500Y-91365412D01*
X131087383Y-91442143D01*
X131045481Y-91571502D01*
X130598546Y-92951275D01*
X130598540Y-92951295D01*
X130598538Y-92951302D01*
X130596226Y-92959347D01*
X130584946Y-92990578D01*
X130575939Y-93011112D01*
X130575935Y-93011124D01*
X130514892Y-93252176D01*
X130494357Y-93500000D01*
X130514892Y-93747823D01*
X130514894Y-93747831D01*
X130575897Y-93988722D01*
X130575937Y-93988881D01*
X130618684Y-94086335D01*
X130675825Y-94216603D01*
X130675828Y-94216608D01*
X130811830Y-94424778D01*
X130811836Y-94424785D01*
X130980248Y-94607730D01*
X130980252Y-94607733D01*
X130980256Y-94607738D01*
X130980260Y-94607741D01*
X130980261Y-94607742D01*
X131176485Y-94760470D01*
X131176487Y-94760471D01*
X131176491Y-94760474D01*
X131395190Y-94878828D01*
X131395200Y-94878831D01*
X131399370Y-94880661D01*
X131412586Y-94886928D01*
X132809801Y-95600439D01*
X132872626Y-95646126D01*
X137526570Y-100300070D01*
X137580546Y-100380852D01*
X137599500Y-100476140D01*
X137599500Y-101411308D01*
X137599500Y-101588692D01*
X137620263Y-101693076D01*
X137634105Y-101762668D01*
X137668046Y-101844606D01*
X137701987Y-101926547D01*
X137707363Y-101934592D01*
X137800536Y-102074036D01*
X141010536Y-105284035D01*
X141010535Y-105284035D01*
X141135963Y-105409462D01*
X141135966Y-105409465D01*
X141271459Y-105499999D01*
X141283453Y-105508013D01*
X141299758Y-105514766D01*
X141299760Y-105514768D01*
X141392818Y-105553313D01*
X141447334Y-105575895D01*
X141621309Y-105610500D01*
X146753425Y-105610500D01*
X146820623Y-105619739D01*
X147069054Y-105689367D01*
X147155692Y-105733333D01*
X147218909Y-105807107D01*
X147249082Y-105899458D01*
X147241617Y-105996326D01*
X147197651Y-106082964D01*
X147123877Y-106146181D01*
X147118361Y-106149191D01*
X146794657Y-106320563D01*
X146701577Y-106348396D01*
X146678155Y-106349500D01*
X135726139Y-106349500D01*
X135630851Y-106330546D01*
X135550069Y-106276570D01*
X135040643Y-105767144D01*
X134500259Y-105226759D01*
X134488432Y-105214078D01*
X134486177Y-105211485D01*
X134477293Y-105203094D01*
X134477397Y-105202983D01*
X134469741Y-105196240D01*
X134074037Y-104800537D01*
X134074036Y-104800536D01*
X134014957Y-104761061D01*
X133926547Y-104701987D01*
X133926536Y-104701981D01*
X133844607Y-104668046D01*
X133762668Y-104634105D01*
X133693076Y-104620263D01*
X133588692Y-104599500D01*
X133588691Y-104599500D01*
X133588689Y-104599500D01*
X133514291Y-104599500D01*
X133419003Y-104580546D01*
X133391459Y-104567094D01*
X133335463Y-104535337D01*
X133261930Y-104471845D01*
X133221419Y-104395477D01*
X133173109Y-104246335D01*
X133007987Y-103736570D01*
X132912617Y-103442142D01*
X132900500Y-103365412D01*
X132900500Y-101134586D01*
X132912617Y-101057855D01*
X132917488Y-101042818D01*
X133401453Y-99548725D01*
X133403763Y-99540684D01*
X133415056Y-99509411D01*
X133424063Y-99488881D01*
X133485108Y-99247821D01*
X133505643Y-99000000D01*
X133485108Y-98752179D01*
X133424063Y-98511119D01*
X133324173Y-98283393D01*
X133240963Y-98156030D01*
X133188169Y-98075221D01*
X133188163Y-98075214D01*
X133019751Y-97892269D01*
X133019747Y-97892265D01*
X133019744Y-97892262D01*
X133014285Y-97888013D01*
X132823514Y-97739529D01*
X132823510Y-97739526D01*
X132823509Y-97739526D01*
X132684014Y-97664035D01*
X132604811Y-97621172D01*
X132369621Y-97540430D01*
X132369610Y-97540428D01*
X132124335Y-97499500D01*
X131875665Y-97499500D01*
X131630389Y-97540428D01*
X131630378Y-97540430D01*
X131395188Y-97621172D01*
X131176485Y-97739529D01*
X130980261Y-97892257D01*
X130980248Y-97892269D01*
X130811836Y-98075214D01*
X130811830Y-98075221D01*
X130675828Y-98283391D01*
X130675825Y-98283396D01*
X130575936Y-98511121D01*
X130575935Y-98511125D01*
X130514894Y-98752168D01*
X130514892Y-98752176D01*
X130494357Y-99000000D01*
X130514892Y-99247823D01*
X130514894Y-99247831D01*
X130575935Y-99488876D01*
X130575942Y-99488894D01*
X130585269Y-99510158D01*
X130595533Y-99540354D01*
X130595807Y-99540266D01*
X130598544Y-99548718D01*
X130598546Y-99548725D01*
X131082512Y-101042818D01*
X131087383Y-101057855D01*
X131099500Y-101134586D01*
X131099500Y-103365412D01*
X131087383Y-103442142D01*
X130598546Y-104951275D01*
X130598540Y-104951295D01*
X130598538Y-104951302D01*
X130596226Y-104959347D01*
X130584946Y-104990578D01*
X130575939Y-105011112D01*
X130575935Y-105011124D01*
X130514892Y-105252176D01*
X130494357Y-105500000D01*
X130514892Y-105747823D01*
X130514894Y-105747831D01*
X130575897Y-105988722D01*
X130575937Y-105988881D01*
X130599437Y-106042455D01*
X130675825Y-106216603D01*
X130675828Y-106216608D01*
X130811830Y-106424778D01*
X130811836Y-106424785D01*
X130980248Y-106607730D01*
X130980252Y-106607733D01*
X130980256Y-106607738D01*
X130980260Y-106607741D01*
X130980261Y-106607742D01*
X131176485Y-106760470D01*
X131176487Y-106760471D01*
X131176491Y-106760474D01*
X131395190Y-106878828D01*
X131464736Y-106902703D01*
X131630378Y-106959569D01*
X131630382Y-106959569D01*
X131630386Y-106959571D01*
X131875665Y-107000500D01*
X132124335Y-107000500D01*
X132369614Y-106959571D01*
X132481414Y-106921189D01*
X132503677Y-106914690D01*
X132511294Y-106912846D01*
X132511301Y-106912846D01*
X133283743Y-106725926D01*
X133380811Y-106721938D01*
X133472021Y-106755401D01*
X133518372Y-106791872D01*
X134550536Y-107824035D01*
X134550535Y-107824035D01*
X134675963Y-107949462D01*
X134675968Y-107949467D01*
X134823447Y-108048009D01*
X134823453Y-108048013D01*
X134843333Y-108056247D01*
X134871450Y-108067895D01*
X134871451Y-108067895D01*
X134895188Y-108077727D01*
X134987334Y-108115895D01*
X135161308Y-108150500D01*
X135161309Y-108150500D01*
X146678157Y-108150500D01*
X146773445Y-108169454D01*
X146794658Y-108179435D01*
X147474217Y-108539202D01*
X147477005Y-108540701D01*
X147482660Y-108543789D01*
X147482669Y-108543796D01*
X147522085Y-108558497D01*
X147524033Y-108559233D01*
X147595324Y-108586504D01*
X147595327Y-108586504D01*
X147595335Y-108586508D01*
X147595343Y-108586510D01*
X147600869Y-108588247D01*
X147613220Y-108592488D01*
X147617517Y-108594091D01*
X147677127Y-108600500D01*
X149472872Y-108600499D01*
X149532483Y-108594091D01*
X149667331Y-108543796D01*
X149782546Y-108457546D01*
X149868796Y-108342331D01*
X149919091Y-108207483D01*
X149925500Y-108147873D01*
X149925499Y-106352128D01*
X149919091Y-106292517D01*
X149868796Y-106157669D01*
X149782546Y-106042454D01*
X149667331Y-105956204D01*
X149667329Y-105956203D01*
X149653073Y-105945531D01*
X149655543Y-105942231D01*
X149606995Y-105901646D01*
X149561976Y-105815550D01*
X149553331Y-105718781D01*
X149582376Y-105626069D01*
X149610158Y-105585378D01*
X149613494Y-105581402D01*
X149617350Y-105575895D01*
X149749035Y-105387830D01*
X149848903Y-105173663D01*
X149910063Y-104945408D01*
X149924217Y-104783630D01*
X149930659Y-104710005D01*
X149930659Y-104709994D01*
X149910064Y-104474598D01*
X149910063Y-104474595D01*
X149910063Y-104474592D01*
X149848903Y-104246337D01*
X149753113Y-104040916D01*
X149749038Y-104032177D01*
X149749034Y-104032169D01*
X149699724Y-103961747D01*
X149613495Y-103838599D01*
X149446401Y-103671505D01*
X149407074Y-103643967D01*
X149339891Y-103573789D01*
X149304678Y-103483240D01*
X149306797Y-103386108D01*
X149345925Y-103297181D01*
X149407073Y-103236032D01*
X149446401Y-103208495D01*
X149613495Y-103041401D01*
X149749035Y-102847830D01*
X149848903Y-102633663D01*
X149910063Y-102405408D01*
X149930659Y-102170000D01*
X149930659Y-102169994D01*
X149910064Y-101934598D01*
X149910063Y-101934595D01*
X149910063Y-101934592D01*
X149848903Y-101706337D01*
X149749035Y-101492171D01*
X149613495Y-101298599D01*
X149446401Y-101131505D01*
X149407074Y-101103967D01*
X149339891Y-101033789D01*
X149304678Y-100943240D01*
X149306797Y-100846108D01*
X149345925Y-100757181D01*
X149407073Y-100696032D01*
X149446401Y-100668495D01*
X149613495Y-100501401D01*
X149749035Y-100307830D01*
X149848903Y-100093663D01*
X149910063Y-99865408D01*
X149912405Y-99838646D01*
X149930659Y-99630000D01*
X149930659Y-99629994D01*
X149910064Y-99394598D01*
X149910063Y-99394595D01*
X149910063Y-99394592D01*
X149848903Y-99166337D01*
X149749035Y-98952171D01*
X149613495Y-98758599D01*
X149446401Y-98591505D01*
X149407074Y-98563967D01*
X149339891Y-98493789D01*
X149304678Y-98403240D01*
X149306797Y-98306108D01*
X149345925Y-98217181D01*
X149407073Y-98156032D01*
X149446401Y-98128495D01*
X149613495Y-97961401D01*
X149749035Y-97767830D01*
X149848903Y-97553663D01*
X149910063Y-97325408D01*
X149930659Y-97090000D01*
X149930659Y-97089994D01*
X149910064Y-96854598D01*
X149910063Y-96854595D01*
X149910063Y-96854592D01*
X149848903Y-96626337D01*
X149749035Y-96412171D01*
X149613495Y-96218599D01*
X149446401Y-96051505D01*
X149407074Y-96023967D01*
X149339891Y-95953789D01*
X149304678Y-95863240D01*
X149306797Y-95766108D01*
X149345925Y-95677181D01*
X149407073Y-95616032D01*
X149446401Y-95588495D01*
X149613495Y-95421401D01*
X149749035Y-95227830D01*
X149848903Y-95013663D01*
X149910063Y-94785408D01*
X149910064Y-94785401D01*
X149930659Y-94550005D01*
X149930659Y-94549994D01*
X149910064Y-94314598D01*
X149910063Y-94314595D01*
X149910063Y-94314592D01*
X149848903Y-94086337D01*
X149749035Y-93872171D01*
X149735999Y-93853554D01*
X149664882Y-93751988D01*
X149613495Y-93678599D01*
X149446401Y-93511505D01*
X149407074Y-93483967D01*
X149339891Y-93413789D01*
X149304678Y-93323240D01*
X149306797Y-93226108D01*
X149345925Y-93137181D01*
X149407073Y-93076032D01*
X149446401Y-93048495D01*
X149613495Y-92881401D01*
X149749035Y-92687830D01*
X149848903Y-92473663D01*
X149910063Y-92245408D01*
X149910064Y-92245401D01*
X149930659Y-92010005D01*
X149930659Y-92009994D01*
X149910064Y-91774598D01*
X149910063Y-91774595D01*
X149910063Y-91774592D01*
X149848903Y-91546337D01*
X149749035Y-91332171D01*
X149613495Y-91138599D01*
X149446401Y-90971505D01*
X149407074Y-90943967D01*
X149339891Y-90873789D01*
X149304678Y-90783240D01*
X149306797Y-90686108D01*
X149345925Y-90597181D01*
X149407073Y-90536032D01*
X149446401Y-90508495D01*
X149613495Y-90341401D01*
X149749035Y-90147830D01*
X149848903Y-89933663D01*
X149910063Y-89705408D01*
X149913297Y-89668443D01*
X149930659Y-89470005D01*
X149930659Y-89469994D01*
X149910064Y-89234598D01*
X149910063Y-89234595D01*
X149910063Y-89234592D01*
X149848903Y-89006337D01*
X149749035Y-88792171D01*
X149706245Y-88731061D01*
X149699724Y-88721747D01*
X149613495Y-88598599D01*
X149446401Y-88431505D01*
X149407074Y-88403967D01*
X149339891Y-88333789D01*
X149304678Y-88243240D01*
X149306797Y-88146108D01*
X149345925Y-88057181D01*
X149407073Y-87996032D01*
X149446401Y-87968495D01*
X149613495Y-87801401D01*
X149749035Y-87607830D01*
X149848903Y-87393663D01*
X149910063Y-87165408D01*
X149930659Y-86930000D01*
X149930659Y-86929994D01*
X149910064Y-86694598D01*
X149910063Y-86694595D01*
X149910063Y-86694592D01*
X149848903Y-86466337D01*
X149749035Y-86252171D01*
X149613495Y-86058599D01*
X149446401Y-85891505D01*
X149407074Y-85863967D01*
X149339891Y-85793789D01*
X149304678Y-85703240D01*
X149306797Y-85606108D01*
X149345925Y-85517181D01*
X149407073Y-85456032D01*
X149446401Y-85428495D01*
X149613495Y-85261401D01*
X149749035Y-85067830D01*
X149848903Y-84853663D01*
X149910063Y-84625408D01*
X149930659Y-84390000D01*
X149930659Y-84389994D01*
X149910064Y-84154598D01*
X149910063Y-84154595D01*
X149910063Y-84154592D01*
X149848903Y-83926337D01*
X149749035Y-83712171D01*
X149613495Y-83518599D01*
X149446401Y-83351505D01*
X149407074Y-83323967D01*
X149339891Y-83253789D01*
X149304678Y-83163240D01*
X149306797Y-83066108D01*
X149345925Y-82977181D01*
X149407073Y-82916032D01*
X149446401Y-82888495D01*
X149613495Y-82721401D01*
X149749035Y-82527830D01*
X149848903Y-82313663D01*
X149910063Y-82085408D01*
X149926161Y-81901411D01*
X149930659Y-81850005D01*
X149930659Y-81849994D01*
X149910064Y-81614598D01*
X149910063Y-81614595D01*
X149910063Y-81614592D01*
X149848903Y-81386337D01*
X149749035Y-81172171D01*
X149613495Y-80978599D01*
X149446401Y-80811505D01*
X149407074Y-80783967D01*
X149339891Y-80713789D01*
X149304678Y-80623240D01*
X149306797Y-80526108D01*
X149345925Y-80437181D01*
X149407073Y-80376032D01*
X149446401Y-80348495D01*
X149613495Y-80181401D01*
X149749035Y-79987830D01*
X149848903Y-79773663D01*
X149910063Y-79545408D01*
X149911055Y-79534075D01*
X149930659Y-79310005D01*
X149930659Y-79309994D01*
X149910064Y-79074598D01*
X149910063Y-79074595D01*
X149910063Y-79074592D01*
X149848903Y-78846337D01*
X149749035Y-78632171D01*
X149741333Y-78621172D01*
X149685137Y-78540915D01*
X149613495Y-78438599D01*
X149446401Y-78271505D01*
X149407074Y-78243967D01*
X149339891Y-78173789D01*
X149304678Y-78083240D01*
X149306797Y-77986108D01*
X149345925Y-77897181D01*
X149407073Y-77836032D01*
X149446401Y-77808495D01*
X149613495Y-77641401D01*
X149749035Y-77447830D01*
X149848903Y-77233663D01*
X149910063Y-77005408D01*
X149930659Y-76770000D01*
X149930659Y-76769994D01*
X149910064Y-76534598D01*
X149910063Y-76534595D01*
X149910063Y-76534592D01*
X149848903Y-76306337D01*
X149749035Y-76092171D01*
X149613495Y-75898599D01*
X149446401Y-75731505D01*
X149446397Y-75731502D01*
X149446396Y-75731501D01*
X149406638Y-75703662D01*
X149339454Y-75633481D01*
X149304242Y-75542931D01*
X149306362Y-75445800D01*
X149345491Y-75356873D01*
X149406640Y-75295724D01*
X149446075Y-75268111D01*
X149613110Y-75101076D01*
X149748600Y-74907576D01*
X149848433Y-74693485D01*
X149848433Y-74693483D01*
X149905636Y-74480001D01*
X149905636Y-74480000D01*
X149008012Y-74480000D01*
X149040925Y-74422993D01*
X149075000Y-74295826D01*
X149075000Y-74164174D01*
X149040925Y-74037007D01*
X149008012Y-73980000D01*
X149905636Y-73980000D01*
X149905636Y-73979998D01*
X149848433Y-73766516D01*
X149848429Y-73766505D01*
X149748603Y-73552428D01*
X149748599Y-73552420D01*
X149613110Y-73358923D01*
X149446075Y-73191888D01*
X149406637Y-73164273D01*
X149339454Y-73094091D01*
X149304242Y-73003542D01*
X149306362Y-72906410D01*
X149345491Y-72817483D01*
X149406636Y-72756338D01*
X149446401Y-72728495D01*
X149613495Y-72561401D01*
X149749035Y-72367830D01*
X149848903Y-72153663D01*
X149910063Y-71925408D01*
X149914049Y-71879851D01*
X149930659Y-71690005D01*
X149930659Y-71689994D01*
X149910064Y-71454603D01*
X149910063Y-71454602D01*
X149910063Y-71454592D01*
X149889834Y-71379098D01*
X149884286Y-71352780D01*
X149884186Y-71352134D01*
X149793345Y-70765766D01*
X149797488Y-70668702D01*
X149838461Y-70580610D01*
X149863341Y-70551578D01*
X150841491Y-69573430D01*
X150922272Y-69519454D01*
X151017560Y-69500500D01*
X175982440Y-69500500D01*
X176077728Y-69519454D01*
X176158510Y-69573430D01*
X176926570Y-70341490D01*
X176980546Y-70422272D01*
X176999500Y-70517560D01*
X176999500Y-107982439D01*
X176980546Y-108077727D01*
X176926570Y-108158509D01*
X170347218Y-114737861D01*
X170347217Y-114737860D01*
X170207862Y-114877216D01*
X170207860Y-114877219D01*
X170098369Y-115041084D01*
X170098367Y-115041087D01*
X170060109Y-115133452D01*
X170060108Y-115133453D01*
X170022950Y-115223157D01*
X170019704Y-115239480D01*
X170019703Y-115239482D01*
X169984500Y-115416453D01*
X169984500Y-115718186D01*
X169970480Y-115800558D01*
X169950767Y-115856793D01*
X169889759Y-116030826D01*
X169840349Y-116114478D01*
X169762688Y-116172855D01*
X169668599Y-116197068D01*
X169572405Y-116183432D01*
X169488753Y-116134022D01*
X169478709Y-116124522D01*
X169316076Y-115961889D01*
X169122576Y-115826399D01*
X168908484Y-115726566D01*
X168695001Y-115669363D01*
X168695000Y-115669364D01*
X168695000Y-116566988D01*
X168637993Y-116534075D01*
X168510826Y-116500000D01*
X168379174Y-116500000D01*
X168252007Y-116534075D01*
X168195000Y-116566988D01*
X168195000Y-115669364D01*
X168194998Y-115669363D01*
X167981516Y-115726566D01*
X167981505Y-115726570D01*
X167767428Y-115826396D01*
X167767420Y-115826400D01*
X167573923Y-115961889D01*
X167406889Y-116128923D01*
X167271400Y-116322420D01*
X167271396Y-116322428D01*
X167171570Y-116536505D01*
X167171566Y-116536516D01*
X167114363Y-116749998D01*
X167114364Y-116750000D01*
X168011988Y-116750000D01*
X167979075Y-116807007D01*
X167945000Y-116934174D01*
X167945000Y-117065826D01*
X167979075Y-117192993D01*
X168011988Y-117250000D01*
X167114364Y-117250000D01*
X167114363Y-117250001D01*
X167171566Y-117463483D01*
X167171566Y-117463485D01*
X167271399Y-117677576D01*
X167406889Y-117871076D01*
X167573923Y-118038110D01*
X167767423Y-118173600D01*
X167981511Y-118273431D01*
X168195000Y-118330635D01*
X168195000Y-117433012D01*
X168252007Y-117465925D01*
X168379174Y-117500000D01*
X168510826Y-117500000D01*
X168637993Y-117465925D01*
X168695000Y-117433012D01*
X168695000Y-118330635D01*
X168908488Y-118273431D01*
X169122576Y-118173600D01*
X169316076Y-118038110D01*
X169483111Y-117871075D01*
X169510724Y-117831640D01*
X169580905Y-117764456D01*
X169671454Y-117729242D01*
X169768586Y-117731361D01*
X169857513Y-117770489D01*
X169918662Y-117831638D01*
X169946277Y-117871076D01*
X169946505Y-117871401D01*
X170113599Y-118038495D01*
X170307170Y-118174035D01*
X170521337Y-118273903D01*
X170749592Y-118335063D01*
X170749595Y-118335063D01*
X170749598Y-118335064D01*
X170984995Y-118355659D01*
X170985000Y-118355659D01*
X170985005Y-118355659D01*
X171220401Y-118335064D01*
X171220403Y-118335063D01*
X171220408Y-118335063D01*
X171448663Y-118273903D01*
X171662830Y-118174035D01*
X171827232Y-118058919D01*
X171916153Y-118019793D01*
X172013285Y-118017674D01*
X172103834Y-118052886D01*
X172174016Y-118120070D01*
X172213145Y-118208997D01*
X172215264Y-118306129D01*
X172180052Y-118396678D01*
X172146117Y-118438960D01*
X170658510Y-119926569D01*
X170577728Y-119980546D01*
X170482440Y-119999500D01*
X168241459Y-119999500D01*
X168144812Y-120018724D01*
X168072243Y-120033159D01*
X168048163Y-120037949D01*
X168006145Y-120055354D01*
X168006144Y-120055354D01*
X167866088Y-120113367D01*
X167866084Y-120113369D01*
X167702219Y-120222860D01*
X167702216Y-120222862D01*
X167562860Y-120362217D01*
X167562861Y-120362218D01*
X167562858Y-120362221D01*
X165782221Y-122142858D01*
X165782218Y-122142861D01*
X165782217Y-122142860D01*
X165642862Y-122282216D01*
X165642860Y-122282219D01*
X165533369Y-122446084D01*
X165533367Y-122446087D01*
X165497180Y-122533452D01*
X165457948Y-122628164D01*
X165457947Y-122628167D01*
X165447671Y-122679832D01*
X165419500Y-122821453D01*
X165419500Y-122908596D01*
X165400745Y-123003403D01*
X165105542Y-123720322D01*
X165105538Y-123720335D01*
X165087714Y-123779407D01*
X165082632Y-123794490D01*
X165075910Y-123812511D01*
X165075908Y-123812519D01*
X165069500Y-123872123D01*
X165069500Y-123965001D01*
X165069336Y-123974038D01*
X165069171Y-123978572D01*
X165069500Y-123984730D01*
X165069500Y-125667865D01*
X165069501Y-125667869D01*
X165075908Y-125727480D01*
X165075909Y-125727484D01*
X165095174Y-125779135D01*
X165126204Y-125862331D01*
X165212454Y-125977546D01*
X165327669Y-126063796D01*
X165462517Y-126114091D01*
X165522127Y-126120500D01*
X167317872Y-126120499D01*
X167377483Y-126114091D01*
X167512331Y-126063796D01*
X167627546Y-125977546D01*
X167713796Y-125862331D01*
X167713796Y-125862329D01*
X167724469Y-125848073D01*
X167727774Y-125850547D01*
X167768246Y-125802081D01*
X167854317Y-125757014D01*
X167951081Y-125748316D01*
X168043809Y-125777310D01*
X168084614Y-125805151D01*
X168088594Y-125808490D01*
X168088599Y-125808495D01*
X168282170Y-125944035D01*
X168496337Y-126043903D01*
X168724592Y-126105063D01*
X168724595Y-126105063D01*
X168724598Y-126105064D01*
X168959995Y-126125659D01*
X168960000Y-126125659D01*
X168960005Y-126125659D01*
X169195401Y-126105064D01*
X169195403Y-126105063D01*
X169195408Y-126105063D01*
X169423663Y-126043903D01*
X169637830Y-125944035D01*
X169831401Y-125808495D01*
X169998495Y-125641401D01*
X170026032Y-125602074D01*
X170096211Y-125534891D01*
X170186760Y-125499678D01*
X170283892Y-125501797D01*
X170372819Y-125540925D01*
X170433967Y-125602073D01*
X170461505Y-125641401D01*
X170628599Y-125808495D01*
X170822170Y-125944035D01*
X171036337Y-126043903D01*
X171264592Y-126105063D01*
X171264595Y-126105063D01*
X171264598Y-126105064D01*
X171499995Y-126125659D01*
X171500000Y-126125659D01*
X171500005Y-126125659D01*
X171735401Y-126105064D01*
X171735403Y-126105063D01*
X171735408Y-126105063D01*
X171963663Y-126043903D01*
X172177830Y-125944035D01*
X172371401Y-125808495D01*
X172538495Y-125641401D01*
X172566337Y-125601637D01*
X172636515Y-125534456D01*
X172727064Y-125499242D01*
X172824196Y-125501361D01*
X172913124Y-125540489D01*
X172974273Y-125601637D01*
X173001888Y-125641075D01*
X173168923Y-125808110D01*
X173362423Y-125943600D01*
X173576511Y-126043431D01*
X173790000Y-126100635D01*
X173790000Y-125203012D01*
X173847007Y-125235925D01*
X173974174Y-125270000D01*
X174105826Y-125270000D01*
X174232993Y-125235925D01*
X174290000Y-125203012D01*
X174290000Y-126100635D01*
X174503488Y-126043431D01*
X174717576Y-125943600D01*
X174911076Y-125808110D01*
X175078110Y-125641076D01*
X175213600Y-125447576D01*
X175313433Y-125233485D01*
X175313433Y-125233483D01*
X175370636Y-125020001D01*
X175370636Y-125020000D01*
X174473012Y-125020000D01*
X174505925Y-124962993D01*
X174540000Y-124835826D01*
X174540000Y-124704174D01*
X174505925Y-124577007D01*
X174473012Y-124520000D01*
X175370636Y-124520000D01*
X175370636Y-124519998D01*
X175313433Y-124306516D01*
X175313429Y-124306505D01*
X175213603Y-124092428D01*
X175213599Y-124092420D01*
X175078110Y-123898923D01*
X174911076Y-123731889D01*
X174717576Y-123596399D01*
X174503484Y-123496566D01*
X174290001Y-123439363D01*
X174290000Y-123439364D01*
X174290000Y-124336988D01*
X174232993Y-124304075D01*
X174105826Y-124270000D01*
X173974174Y-124270000D01*
X173847007Y-124304075D01*
X173790000Y-124336988D01*
X173790000Y-123439364D01*
X173789998Y-123439363D01*
X173576516Y-123496566D01*
X173576505Y-123496570D01*
X173362428Y-123596396D01*
X173362420Y-123596400D01*
X173168923Y-123731889D01*
X173001889Y-123898923D01*
X172974272Y-123938364D01*
X172904089Y-124005547D01*
X172813539Y-124040758D01*
X172716408Y-124038637D01*
X172627481Y-123999507D01*
X172566337Y-123938362D01*
X172538495Y-123898599D01*
X172371401Y-123731505D01*
X172355431Y-123720323D01*
X172177830Y-123595965D01*
X172129984Y-123573654D01*
X171963663Y-123496097D01*
X171963660Y-123496096D01*
X171735401Y-123434935D01*
X171500005Y-123414341D01*
X171499995Y-123414341D01*
X171264598Y-123434935D01*
X171036335Y-123496097D01*
X171036333Y-123496098D01*
X170822177Y-123595961D01*
X170822169Y-123595965D01*
X170628600Y-123731504D01*
X170461501Y-123898603D01*
X170433968Y-123937925D01*
X170363787Y-124005109D01*
X170273237Y-124040321D01*
X170176106Y-124038201D01*
X170087179Y-123999072D01*
X170026032Y-123937925D01*
X169998498Y-123898603D01*
X169998497Y-123898602D01*
X169998495Y-123898599D01*
X169831401Y-123731505D01*
X169815431Y-123720323D01*
X169637830Y-123595965D01*
X169589984Y-123573654D01*
X169423663Y-123496097D01*
X169423660Y-123496096D01*
X169195401Y-123434935D01*
X168960005Y-123414341D01*
X168959995Y-123414341D01*
X168724598Y-123434935D01*
X168496335Y-123496097D01*
X168496333Y-123496098D01*
X168282177Y-123595961D01*
X168282169Y-123595965D01*
X168145760Y-123691480D01*
X168088599Y-123731505D01*
X168088597Y-123731506D01*
X168079694Y-123737741D01*
X168078875Y-123736571D01*
X168004330Y-123777458D01*
X167907752Y-123788025D01*
X167814481Y-123760829D01*
X167738717Y-123700009D01*
X167699234Y-123634782D01*
X167593534Y-123378082D01*
X167574781Y-123282757D01*
X167593934Y-123187509D01*
X167647711Y-123107208D01*
X168681491Y-122073430D01*
X168762272Y-122019454D01*
X168857560Y-122000500D01*
X171098539Y-122000500D01*
X171098540Y-122000500D01*
X171098541Y-122000500D01*
X171195188Y-121981275D01*
X171291836Y-121962051D01*
X171379126Y-121925894D01*
X171473914Y-121886632D01*
X171637782Y-121777139D01*
X171777139Y-121637782D01*
X171777141Y-121637778D01*
X174162778Y-119252141D01*
X174162782Y-119252139D01*
X174302139Y-119112782D01*
X174411632Y-118948914D01*
X174464961Y-118820165D01*
X174487051Y-118766836D01*
X174525500Y-118573540D01*
X174525500Y-118573534D01*
X174526699Y-118561366D01*
X174528311Y-118561524D01*
X174544454Y-118480373D01*
X174552433Y-118463023D01*
X174624815Y-118320344D01*
X174684827Y-118243944D01*
X174697631Y-118233682D01*
X174732546Y-118207546D01*
X174818796Y-118092331D01*
X174869091Y-117957483D01*
X174875500Y-117897873D01*
X174875499Y-116102128D01*
X174869091Y-116042517D01*
X174818796Y-115907669D01*
X174732546Y-115792454D01*
X174617331Y-115706204D01*
X174518555Y-115669363D01*
X174482481Y-115655908D01*
X174422876Y-115649500D01*
X172866558Y-115649500D01*
X172771270Y-115630546D01*
X172690488Y-115576570D01*
X172636512Y-115495788D01*
X172617558Y-115400500D01*
X172636512Y-115305212D01*
X172690485Y-115224433D01*
X178637778Y-109277141D01*
X178637782Y-109277139D01*
X178777139Y-109137782D01*
X178886632Y-108973914D01*
X178962051Y-108791835D01*
X179000500Y-108598541D01*
X179000500Y-69901459D01*
X178977776Y-69787218D01*
X178962052Y-69708167D01*
X178937072Y-69647861D01*
X178891719Y-69538368D01*
X178886632Y-69526086D01*
X178777139Y-69362218D01*
X178777137Y-69362216D01*
X178637782Y-69222860D01*
X178637782Y-69222861D01*
X178637781Y-69222860D01*
X177277140Y-67862220D01*
X177277139Y-67862218D01*
X177137782Y-67722861D01*
X176973914Y-67613368D01*
X176973909Y-67613365D01*
X176884868Y-67576483D01*
X176845165Y-67560038D01*
X176791836Y-67537949D01*
X176791833Y-67537948D01*
X176695189Y-67518724D01*
X176695188Y-67518724D01*
X176598541Y-67499500D01*
X150401459Y-67499500D01*
X150304812Y-67518724D01*
X150304810Y-67518724D01*
X150208165Y-67537948D01*
X150154830Y-67560039D01*
X150026088Y-67613366D01*
X150026084Y-67613368D01*
X149862219Y-67722860D01*
X149862216Y-67722862D01*
X149722860Y-67862217D01*
X149722861Y-67862218D01*
X149722858Y-67862221D01*
X147937221Y-69647858D01*
X147937218Y-69647861D01*
X147937217Y-69647860D01*
X147797862Y-69787216D01*
X147797860Y-69787219D01*
X147688368Y-69951084D01*
X147688365Y-69951091D01*
X147635039Y-70079829D01*
X147635040Y-70079830D01*
X147622212Y-70110803D01*
X147622208Y-70110812D01*
X147612949Y-70133164D01*
X147612947Y-70133172D01*
X147574500Y-70326454D01*
X147574500Y-70570332D01*
X147555546Y-70665620D01*
X147551556Y-70674733D01*
X147335887Y-71141712D01*
X147331739Y-71150934D01*
X147331582Y-71151293D01*
X147331579Y-71151301D01*
X147319099Y-71185521D01*
X147310845Y-71205429D01*
X147301098Y-71226331D01*
X147239935Y-71454598D01*
X147219341Y-71689994D01*
X147219341Y-71690005D01*
X147239935Y-71925401D01*
X147239937Y-71925408D01*
X147301097Y-72153663D01*
X147400965Y-72367830D01*
X147536505Y-72561401D01*
X147703599Y-72728495D01*
X147743362Y-72756338D01*
X147810544Y-72826517D01*
X147845757Y-72917067D01*
X147843638Y-73014198D01*
X147804509Y-73103126D01*
X147743364Y-73164272D01*
X147703923Y-73191889D01*
X147536889Y-73358923D01*
X147401400Y-73552420D01*
X147401396Y-73552428D01*
X147301570Y-73766505D01*
X147301566Y-73766516D01*
X147244363Y-73979998D01*
X147244364Y-73980000D01*
X148141988Y-73980000D01*
X148109075Y-74037007D01*
X148075000Y-74164174D01*
X148075000Y-74295826D01*
X148109075Y-74422993D01*
X148141988Y-74480000D01*
X147244364Y-74480000D01*
X147244363Y-74480001D01*
X147301566Y-74693483D01*
X147301566Y-74693485D01*
X147401399Y-74907576D01*
X147536889Y-75101076D01*
X147703923Y-75268110D01*
X147743361Y-75295725D01*
X147810545Y-75365907D01*
X147845757Y-75456456D01*
X147843638Y-75553588D01*
X147804509Y-75642515D01*
X147743363Y-75703661D01*
X147703602Y-75731502D01*
X147536504Y-75898600D01*
X147400965Y-76092169D01*
X147400961Y-76092177D01*
X147301098Y-76306333D01*
X147301097Y-76306335D01*
X147239935Y-76534598D01*
X147219341Y-76769994D01*
X147219341Y-76770005D01*
X147239935Y-77005401D01*
X147239937Y-77005408D01*
X147301097Y-77233663D01*
X147400965Y-77447830D01*
X147536505Y-77641401D01*
X147703599Y-77808495D01*
X147742925Y-77836031D01*
X147810107Y-77906209D01*
X147845321Y-77996758D01*
X147843202Y-78093890D01*
X147804074Y-78182818D01*
X147742928Y-78243965D01*
X147703603Y-78271501D01*
X147536504Y-78438600D01*
X147400965Y-78632169D01*
X147400961Y-78632177D01*
X147301098Y-78846333D01*
X147301097Y-78846335D01*
X147239935Y-79074598D01*
X147219341Y-79309994D01*
X147219341Y-79310005D01*
X147239935Y-79545401D01*
X147301096Y-79773660D01*
X147400965Y-79987830D01*
X147485273Y-80108235D01*
X147536505Y-80181401D01*
X147703599Y-80348495D01*
X147742925Y-80376031D01*
X147810107Y-80446209D01*
X147845321Y-80536758D01*
X147843202Y-80633890D01*
X147804074Y-80722818D01*
X147742928Y-80783965D01*
X147703603Y-80811501D01*
X147536504Y-80978600D01*
X147400965Y-81172169D01*
X147400961Y-81172177D01*
X147301098Y-81386333D01*
X147301097Y-81386335D01*
X147239935Y-81614598D01*
X147219341Y-81849994D01*
X147219341Y-81850005D01*
X147239935Y-82085401D01*
X147239937Y-82085408D01*
X147301097Y-82313663D01*
X147400965Y-82527830D01*
X147536505Y-82721401D01*
X147703599Y-82888495D01*
X147742925Y-82916031D01*
X147810107Y-82986209D01*
X147845321Y-83076758D01*
X147843202Y-83173890D01*
X147804074Y-83262818D01*
X147742928Y-83323965D01*
X147703603Y-83351501D01*
X147536504Y-83518600D01*
X147400965Y-83712169D01*
X147400961Y-83712177D01*
X147301098Y-83926333D01*
X147301097Y-83926335D01*
X147239935Y-84154598D01*
X147219341Y-84389994D01*
X147219341Y-84390005D01*
X147239935Y-84625401D01*
X147239937Y-84625408D01*
X147301097Y-84853663D01*
X147400965Y-85067830D01*
X147536505Y-85261401D01*
X147703599Y-85428495D01*
X147742925Y-85456031D01*
X147810107Y-85526209D01*
X147845321Y-85616758D01*
X147843202Y-85713890D01*
X147804074Y-85802818D01*
X147742928Y-85863965D01*
X147703603Y-85891501D01*
X147536504Y-86058600D01*
X147400965Y-86252169D01*
X147400961Y-86252177D01*
X147301098Y-86466333D01*
X147301097Y-86466335D01*
X147239935Y-86694598D01*
X147219341Y-86929994D01*
X147219341Y-86930005D01*
X147239935Y-87165401D01*
X147239937Y-87165408D01*
X147301097Y-87393663D01*
X147400965Y-87607830D01*
X147536505Y-87801401D01*
X147703599Y-87968495D01*
X147742925Y-87996031D01*
X147810107Y-88066209D01*
X147845321Y-88156758D01*
X147843202Y-88253890D01*
X147804074Y-88342818D01*
X147742928Y-88403965D01*
X147703603Y-88431501D01*
X147536504Y-88598600D01*
X147400965Y-88792169D01*
X147400961Y-88792177D01*
X147301098Y-89006333D01*
X147301097Y-89006335D01*
X147239935Y-89234598D01*
X147219341Y-89469994D01*
X147219341Y-89470005D01*
X147239935Y-89705401D01*
X147239937Y-89705408D01*
X147301097Y-89933663D01*
X147400965Y-90147830D01*
X147536505Y-90341401D01*
X147671556Y-90476452D01*
X147725530Y-90557231D01*
X147744484Y-90652519D01*
X147725530Y-90747807D01*
X147671554Y-90828589D01*
X147590772Y-90882565D01*
X147562683Y-90892280D01*
X146820621Y-91100261D01*
X146753422Y-91109500D01*
X146706138Y-91109500D01*
X146610850Y-91090546D01*
X146530071Y-91036572D01*
X146217842Y-90724342D01*
X146180130Y-90673493D01*
X146179935Y-90673624D01*
X146177282Y-90669653D01*
X146174312Y-90665649D01*
X146173141Y-90663459D01*
X146173139Y-90663453D01*
X146128857Y-90597181D01*
X146074591Y-90515966D01*
X146074588Y-90515963D01*
X145949161Y-90390535D01*
X145949161Y-90390536D01*
X144473430Y-88914804D01*
X144419454Y-88834022D01*
X144400500Y-88738734D01*
X144400500Y-73511310D01*
X144365894Y-73337331D01*
X144298015Y-73173457D01*
X144298012Y-73173452D01*
X144199466Y-73025967D01*
X144199464Y-73025964D01*
X137833941Y-66660441D01*
X137790774Y-66602422D01*
X137761399Y-66547869D01*
X137609273Y-66265349D01*
X137576717Y-66204887D01*
X137576699Y-66204857D01*
X137492628Y-66048725D01*
X136930262Y-65004328D01*
X136901774Y-64911443D01*
X136900499Y-64886277D01*
X136900499Y-64452134D01*
X136900499Y-64452128D01*
X136894091Y-64392517D01*
X136843796Y-64257669D01*
X136757546Y-64142454D01*
X136642331Y-64056204D01*
X136562117Y-64026286D01*
X136507481Y-64005908D01*
X136447873Y-63999500D01*
X134352134Y-63999500D01*
X134352130Y-63999500D01*
X134352128Y-63999501D01*
X134339314Y-64000878D01*
X134292519Y-64005908D01*
X134292515Y-64005909D01*
X134157670Y-64056203D01*
X134042455Y-64142453D01*
X134042453Y-64142455D01*
X133956204Y-64257669D01*
X133905908Y-64392518D01*
X133899500Y-64452123D01*
X133899500Y-66547865D01*
X133899501Y-66547869D01*
X133905908Y-66607480D01*
X133905909Y-66607484D01*
X133925661Y-66660441D01*
X133956204Y-66742331D01*
X134042454Y-66857546D01*
X134157669Y-66943796D01*
X134292517Y-66994091D01*
X134352127Y-67000500D01*
X134786278Y-67000499D01*
X134881567Y-67019453D01*
X134904331Y-67030262D01*
X136502420Y-67890772D01*
X136560438Y-67933938D01*
X139100930Y-70474430D01*
X139154906Y-70555212D01*
X139173860Y-70650500D01*
X139154906Y-70745788D01*
X139100930Y-70826570D01*
X139020148Y-70880546D01*
X138924860Y-70899500D01*
X137452134Y-70899500D01*
X137452130Y-70899500D01*
X137452128Y-70899501D01*
X137439314Y-70900878D01*
X137392519Y-70905908D01*
X137392515Y-70905909D01*
X137257670Y-70956203D01*
X137142455Y-71042453D01*
X137142453Y-71042455D01*
X137056204Y-71157669D01*
X137005908Y-71292518D01*
X136999500Y-71352123D01*
X136999500Y-74647865D01*
X136999500Y-74647868D01*
X136999501Y-74647872D01*
X137001567Y-74667093D01*
X137005908Y-74707480D01*
X137005909Y-74707483D01*
X137056204Y-74842331D01*
X137142454Y-74957546D01*
X137257669Y-75043796D01*
X137392517Y-75094091D01*
X137452127Y-75100500D01*
X139547872Y-75100499D01*
X139607483Y-75094091D01*
X139742331Y-75043796D01*
X139857546Y-74957546D01*
X139943796Y-74842331D01*
X139994091Y-74707483D01*
X140000500Y-74647873D01*
X140000499Y-71975138D01*
X140019453Y-71879851D01*
X140073429Y-71799069D01*
X140154211Y-71745093D01*
X140249499Y-71726139D01*
X140344787Y-71745093D01*
X140425569Y-71799069D01*
X142526570Y-73900070D01*
X142580546Y-73980852D01*
X142599500Y-74076140D01*
X142599500Y-89303564D01*
X142634105Y-89477539D01*
X142634106Y-89477544D01*
X142645684Y-89505493D01*
X142645685Y-89505501D01*
X142645687Y-89505501D01*
X142701985Y-89641418D01*
X142701984Y-89641418D01*
X142720040Y-89668439D01*
X142720043Y-89668443D01*
X142800536Y-89788910D01*
X143685120Y-90673493D01*
X144532409Y-91520782D01*
X144570122Y-91571631D01*
X144570317Y-91571502D01*
X144572955Y-91575451D01*
X144575932Y-91579464D01*
X144577111Y-91581671D01*
X144632147Y-91664036D01*
X144632150Y-91664040D01*
X144675663Y-91729164D01*
X145530535Y-92584034D01*
X145530537Y-92584037D01*
X145655963Y-92709462D01*
X145655966Y-92709465D01*
X145766963Y-92783631D01*
X145803453Y-92808013D01*
X145967334Y-92875894D01*
X146141309Y-92910500D01*
X146753425Y-92910500D01*
X146820623Y-92919739D01*
X147250558Y-93040238D01*
X147337196Y-93084204D01*
X147400413Y-93157979D01*
X147430586Y-93250330D01*
X147423121Y-93347197D01*
X147379155Y-93433835D01*
X147305380Y-93497052D01*
X147250559Y-93519760D01*
X146820621Y-93640261D01*
X146753422Y-93649500D01*
X145849363Y-93649500D01*
X145775254Y-93634760D01*
X145774376Y-93637657D01*
X145762671Y-93634106D01*
X145762666Y-93634105D01*
X145588692Y-93599500D01*
X145588691Y-93599500D01*
X145588689Y-93599500D01*
X144476139Y-93599500D01*
X144380851Y-93580546D01*
X144300069Y-93526570D01*
X141473430Y-90699930D01*
X141419454Y-90619148D01*
X141400500Y-90523860D01*
X141400500Y-80411310D01*
X141398270Y-80400099D01*
X141365895Y-80237334D01*
X141312421Y-80108238D01*
X141312420Y-80108235D01*
X141298016Y-80073459D01*
X141298014Y-80073456D01*
X141298013Y-80073453D01*
X141234945Y-79979065D01*
X141199464Y-79925964D01*
X131373430Y-70099930D01*
X131319454Y-70019148D01*
X131300500Y-69923860D01*
X131300500Y-67634586D01*
X131312617Y-67557855D01*
X131331519Y-67499500D01*
X131801453Y-66048725D01*
X131803763Y-66040684D01*
X131815056Y-66009411D01*
X131824063Y-65988881D01*
X131885108Y-65747821D01*
X131905643Y-65500000D01*
X131885108Y-65252179D01*
X131824063Y-65011119D01*
X131724173Y-64783393D01*
X131670997Y-64702001D01*
X131588169Y-64575221D01*
X131588163Y-64575214D01*
X131419751Y-64392269D01*
X131419747Y-64392265D01*
X131419744Y-64392262D01*
X131419738Y-64392257D01*
X131223514Y-64239529D01*
X131223510Y-64239526D01*
X131223509Y-64239526D01*
X131044136Y-64142454D01*
X131004811Y-64121172D01*
X130769621Y-64040430D01*
X130769610Y-64040428D01*
X130524335Y-63999500D01*
X130275665Y-63999500D01*
X130030389Y-64040428D01*
X130030378Y-64040430D01*
X129795188Y-64121172D01*
X129576485Y-64239529D01*
X129380261Y-64392257D01*
X129380248Y-64392269D01*
X129211836Y-64575214D01*
X129211830Y-64575221D01*
X129075828Y-64783391D01*
X129075825Y-64783396D01*
X128975936Y-65011121D01*
X128975935Y-65011125D01*
X128914894Y-65252168D01*
X128914892Y-65252176D01*
X128894357Y-65500000D01*
X115500500Y-65500000D01*
X115500500Y-61249500D01*
X115519454Y-61154212D01*
X115573430Y-61073430D01*
X115654212Y-61019454D01*
X115749500Y-61000500D01*
X186250500Y-61000500D01*
X186345788Y-61019454D01*
G37*
%TD.AperFunction*%
%TD*%
%TA.AperFunction,Conductor*%
%TO.N,/BTN_MUTE*%
G36*
X132012298Y-110000666D02*
G01*
X133834424Y-110099400D01*
X133842500Y-110103270D01*
X133845491Y-110111083D01*
X133845491Y-110893952D01*
X133842064Y-110902225D01*
X133840558Y-110903497D01*
X132715157Y-111701399D01*
X132706426Y-111703388D01*
X132700123Y-111700133D01*
X132002436Y-111003431D01*
X131999004Y-110995164D01*
X131999987Y-110012336D01*
X132003422Y-110004069D01*
X132011699Y-110000650D01*
X132012298Y-110000666D01*
G37*
%TD.AperFunction*%
%TD*%
%TA.AperFunction,Conductor*%
%TO.N,/BTN_MUTE*%
G36*
X173648625Y-88688567D02*
G01*
X173653697Y-88694277D01*
X173974134Y-89465511D01*
X173974143Y-89474466D01*
X173974134Y-89474489D01*
X173653697Y-90245722D01*
X173647358Y-90252047D01*
X173639734Y-90252499D01*
X172283542Y-89872394D01*
X172276501Y-89866861D01*
X172275000Y-89861128D01*
X172275000Y-89078871D01*
X172278427Y-89070598D01*
X172283539Y-89067606D01*
X173639735Y-88687500D01*
X173648625Y-88688567D01*
G37*
%TD.AperFunction*%
%TD*%
%TA.AperFunction,Conductor*%
%TO.N,/PWR_SW*%
G36*
X165571747Y-154402986D02*
G01*
X165575513Y-154405506D01*
X165917424Y-154747016D01*
X166412712Y-155241722D01*
X166416144Y-155249993D01*
X166412722Y-155258268D01*
X166412712Y-155258278D01*
X165575515Y-156094491D01*
X165567240Y-156097913D01*
X165562792Y-156097032D01*
X164727245Y-155752983D01*
X164720900Y-155746664D01*
X164720000Y-155742164D01*
X164720000Y-154757835D01*
X164723427Y-154749562D01*
X164727242Y-154747017D01*
X165562794Y-154402967D01*
X165571747Y-154402986D01*
G37*
%TD.AperFunction*%
%TD*%
%TA.AperFunction,Conductor*%
%TO.N,VCC*%
G36*
X148537533Y-69773368D02*
G01*
X148540900Y-69775717D01*
X149233440Y-70468257D01*
X149236729Y-70474739D01*
X149422911Y-71676520D01*
X149420791Y-71685220D01*
X149413140Y-71689873D01*
X149411359Y-71690011D01*
X148576633Y-71690705D01*
X148572134Y-71689810D01*
X147800935Y-71369386D01*
X147794610Y-71363047D01*
X147794619Y-71354092D01*
X147794792Y-71353697D01*
X148522007Y-69779082D01*
X148528585Y-69773010D01*
X148537533Y-69773368D01*
G37*
%TD.AperFunction*%
%TD*%
%TA.AperFunction,Conductor*%
%TO.N,VCC*%
G36*
X170796633Y-115022577D02*
G01*
X171488462Y-115714406D01*
X171491420Y-115719400D01*
X171767358Y-116664651D01*
X171766387Y-116673553D01*
X171760609Y-116678737D01*
X170988780Y-116998846D01*
X170979825Y-116998850D01*
X170979809Y-116998844D01*
X170209911Y-116678960D01*
X170203586Y-116672621D01*
X170203359Y-116664286D01*
X170777319Y-115026978D01*
X170783290Y-115020306D01*
X170792231Y-115019809D01*
X170796633Y-115022577D01*
G37*
%TD.AperFunction*%
%TD*%
%TA.AperFunction,Conductor*%
%TO.N,/BOOST_P*%
G36*
X166920437Y-123073427D02*
G01*
X166922983Y-123077245D01*
X167267032Y-123912792D01*
X167267013Y-123921747D01*
X167264491Y-123925515D01*
X166428278Y-124762712D01*
X166420007Y-124766144D01*
X166411732Y-124762722D01*
X166411722Y-124762712D01*
X166132144Y-124482805D01*
X165575507Y-123925514D01*
X165572086Y-123917240D01*
X165572966Y-123912796D01*
X165917017Y-123077245D01*
X165923336Y-123070900D01*
X165927836Y-123070000D01*
X166912164Y-123070000D01*
X166920437Y-123073427D01*
G37*
%TD.AperFunction*%
%TD*%
%TA.AperFunction,Conductor*%
%TO.N,/VBAT_ADC*%
G36*
X159854910Y-119152170D02*
G01*
X160407829Y-119705089D01*
X160411256Y-119713362D01*
X160409656Y-119719267D01*
X159744248Y-120857347D01*
X159737114Y-120862760D01*
X159729683Y-120862257D01*
X159003787Y-120562562D01*
X158997448Y-120556237D01*
X158997437Y-120556212D01*
X158697742Y-119830316D01*
X158697753Y-119821361D01*
X158702651Y-119815751D01*
X159840735Y-119150342D01*
X159849603Y-119149125D01*
X159854910Y-119152170D01*
G37*
%TD.AperFunction*%
%TD*%
%TA.AperFunction,Conductor*%
%TO.N,/VBAT_ADC*%
G36*
X159729693Y-120862236D02*
G01*
X159736017Y-120868574D01*
X159736520Y-120876005D01*
X159402289Y-122151266D01*
X159396876Y-122158400D01*
X159390971Y-122160000D01*
X158609029Y-122160000D01*
X158600756Y-122156573D01*
X158597711Y-122151266D01*
X158561584Y-122013425D01*
X158263479Y-120876003D01*
X158264697Y-120867134D01*
X158270304Y-120862237D01*
X158995512Y-120560864D01*
X159004461Y-120560854D01*
X159729693Y-120862236D01*
G37*
%TD.AperFunction*%
%TD*%
%TA.AperFunction,Conductor*%
%TO.N,/VBAT_ADC*%
G36*
X159399244Y-123843427D02*
G01*
X159402289Y-123848734D01*
X159736520Y-125123994D01*
X159735302Y-125132865D01*
X159729692Y-125137764D01*
X159004490Y-125439134D01*
X158995536Y-125439144D01*
X158270306Y-125137763D01*
X158263982Y-125131425D01*
X158263479Y-125123996D01*
X158597711Y-123848734D01*
X158603124Y-123841600D01*
X158609029Y-123840000D01*
X159390971Y-123840000D01*
X159399244Y-123843427D01*
G37*
%TD.AperFunction*%
%TD*%
%TA.AperFunction,Conductor*%
%TO.N,/BAT_P*%
G36*
X158442627Y-132502885D02*
G01*
X158444283Y-132504258D01*
X159000707Y-133059293D01*
X159000727Y-133059313D01*
X159555741Y-133615716D01*
X159559158Y-133623994D01*
X159555721Y-133632262D01*
X159554065Y-133633635D01*
X158230196Y-134539439D01*
X158221433Y-134541283D01*
X158215316Y-134538056D01*
X157521943Y-133844683D01*
X157518516Y-133836410D01*
X157520560Y-133829803D01*
X157654780Y-133633635D01*
X158426366Y-132505932D01*
X158433864Y-132501041D01*
X158442627Y-132502885D01*
G37*
%TD.AperFunction*%
%TD*%
%TA.AperFunction,Conductor*%
%TO.N,/BAT_P*%
G36*
X151720639Y-139646426D02*
G01*
X152415349Y-140341136D01*
X152418776Y-140349409D01*
X152418043Y-140353485D01*
X151827715Y-141941892D01*
X151821621Y-141948453D01*
X151817211Y-141949507D01*
X150534258Y-142000312D01*
X150525856Y-141997215D01*
X150522326Y-141990930D01*
X150264109Y-140707334D01*
X150265837Y-140698550D01*
X150268672Y-140695585D01*
X151705464Y-139645253D01*
X151714162Y-139643138D01*
X151720639Y-139646426D01*
G37*
%TD.AperFunction*%
%TD*%
%TA.AperFunction,Conductor*%
%TO.N,/ENC_DT*%
G36*
X131313909Y-65878542D02*
G01*
X131320236Y-65884880D01*
X131320553Y-65892952D01*
X130802622Y-67491905D01*
X130796812Y-67498720D01*
X130791491Y-67500000D01*
X130008509Y-67500000D01*
X130000236Y-67496573D01*
X129997378Y-67491905D01*
X129479446Y-65892952D01*
X129480157Y-65884026D01*
X129486089Y-65878542D01*
X130395514Y-65500862D01*
X130404464Y-65500854D01*
X131313909Y-65878542D01*
G37*
%TD.AperFunction*%
%TD*%
%TA.AperFunction,Conductor*%
%TO.N,/ENC_DT*%
G36*
X148248625Y-93768567D02*
G01*
X148253697Y-93774277D01*
X148574134Y-94545511D01*
X148574143Y-94554466D01*
X148574134Y-94554489D01*
X148253697Y-95325722D01*
X148247358Y-95332047D01*
X148239734Y-95332499D01*
X146883542Y-94952394D01*
X146876501Y-94946861D01*
X146875000Y-94941128D01*
X146875000Y-94158871D01*
X146878427Y-94150598D01*
X146883539Y-94147606D01*
X148239735Y-93767500D01*
X148248625Y-93768567D01*
G37*
%TD.AperFunction*%
%TD*%
%TA.AperFunction,Conductor*%
%TO.N,/ENC_CLK*%
G36*
X136399192Y-65089826D02*
G01*
X136405007Y-65095085D01*
X137164195Y-66505007D01*
X137385822Y-66916599D01*
X137386727Y-66925508D01*
X137383793Y-66930419D01*
X136830419Y-67483793D01*
X136822146Y-67487220D01*
X136816600Y-67485822D01*
X134995086Y-66505007D01*
X134989426Y-66498067D01*
X134989819Y-66490240D01*
X135397438Y-65503780D01*
X135403759Y-65497447D01*
X136390239Y-65089819D01*
X136399192Y-65089826D01*
G37*
%TD.AperFunction*%
%TD*%
%TA.AperFunction,Conductor*%
%TO.N,/ENC_CLK*%
G36*
X148248625Y-91228567D02*
G01*
X148253697Y-91234277D01*
X148574134Y-92005511D01*
X148574143Y-92014466D01*
X148574134Y-92014489D01*
X148253697Y-92785722D01*
X148247358Y-92792047D01*
X148239734Y-92792499D01*
X146883542Y-92412394D01*
X146876501Y-92406861D01*
X146875000Y-92401128D01*
X146875000Y-91618871D01*
X146878427Y-91610598D01*
X146883539Y-91607606D01*
X148239735Y-91227500D01*
X148248625Y-91228567D01*
G37*
%TD.AperFunction*%
%TD*%
%TA.AperFunction,Conductor*%
%TO.N,/LED_BAT*%
G36*
X173648625Y-91228567D02*
G01*
X173653697Y-91234277D01*
X173974134Y-92005511D01*
X173974143Y-92014466D01*
X173974134Y-92014489D01*
X173653697Y-92785722D01*
X173647358Y-92792047D01*
X173639734Y-92792499D01*
X172283542Y-92412394D01*
X172276501Y-92406861D01*
X172275000Y-92401128D01*
X172275000Y-91618871D01*
X172278427Y-91610598D01*
X172283539Y-91607606D01*
X173639735Y-91227500D01*
X173648625Y-91228567D01*
G37*
%TD.AperFunction*%
%TD*%
%TA.AperFunction,Conductor*%
%TO.N,/LED_BAT*%
G36*
X149091267Y-113037711D02*
G01*
X149098400Y-113043123D01*
X149100000Y-113049028D01*
X149100000Y-113830971D01*
X149096573Y-113839244D01*
X149091266Y-113842289D01*
X147816005Y-114176520D01*
X147807134Y-114175302D01*
X147802236Y-114169693D01*
X147500864Y-113444487D01*
X147500854Y-113435538D01*
X147802236Y-112710305D01*
X147808574Y-112703982D01*
X147816002Y-112703479D01*
X149091267Y-113037711D01*
G37*
%TD.AperFunction*%
%TD*%
%TA.AperFunction,Conductor*%
%TO.N,/VBAT_ADC*%
G36*
X173382242Y-99037223D02*
G01*
X173382350Y-99037330D01*
X173974049Y-99627639D01*
X173976600Y-99631456D01*
X174191781Y-100152550D01*
X174294896Y-100402257D01*
X174294887Y-100411212D01*
X174288548Y-100417537D01*
X174286470Y-100418177D01*
X172853639Y-100716944D01*
X172844841Y-100715278D01*
X172842978Y-100713763D01*
X172289921Y-100160706D01*
X172286494Y-100152433D01*
X172289802Y-100144281D01*
X173365697Y-99037457D01*
X173373921Y-99033914D01*
X173382242Y-99037223D01*
G37*
%TD.AperFunction*%
%TD*%
%TA.AperFunction,Conductor*%
%TO.N,/LED_BT*%
G36*
X173380765Y-93955749D02*
G01*
X173972265Y-94545860D01*
X173975702Y-94554129D01*
X173975702Y-94554153D01*
X173975010Y-95387417D01*
X173971576Y-95395687D01*
X173963300Y-95399107D01*
X173962450Y-95399075D01*
X172759883Y-95310458D01*
X172752470Y-95307063D01*
X172199916Y-94754509D01*
X172196489Y-94746236D01*
X172199916Y-94737963D01*
X172201660Y-94736527D01*
X173365980Y-93954319D01*
X173374756Y-93952551D01*
X173380765Y-93955749D01*
G37*
%TD.AperFunction*%
%TD*%
%TA.AperFunction,Conductor*%
%TO.N,/LED_BT*%
G36*
X148354910Y-123532170D02*
G01*
X148907829Y-124085089D01*
X148911256Y-124093362D01*
X148909656Y-124099267D01*
X148244248Y-125237347D01*
X148237114Y-125242760D01*
X148229683Y-125242257D01*
X147503787Y-124942562D01*
X147497448Y-124936237D01*
X147497437Y-124936212D01*
X147197742Y-124210316D01*
X147197753Y-124201361D01*
X147202651Y-124195751D01*
X148340735Y-123530342D01*
X148349603Y-123529125D01*
X148354910Y-123532170D01*
G37*
%TD.AperFunction*%
%TD*%
%TA.AperFunction,Conductor*%
%TO.N,/BTN_NEXT*%
G36*
X132392902Y-104582016D02*
G01*
X132394183Y-104582642D01*
X134123028Y-105563128D01*
X134128533Y-105570189D01*
X134127432Y-105579076D01*
X134125528Y-105581577D01*
X133573035Y-106134070D01*
X133567514Y-106137169D01*
X132392409Y-106421526D01*
X132383562Y-106420141D01*
X132378850Y-106414637D01*
X132001151Y-105503776D01*
X132001149Y-105494823D01*
X132377610Y-104588333D01*
X132383948Y-104582007D01*
X132392902Y-104582016D01*
G37*
%TD.AperFunction*%
%TD*%
%TA.AperFunction,Conductor*%
%TO.N,/BTN_NEXT*%
G36*
X147731109Y-106406102D02*
G01*
X148567712Y-107241722D01*
X148571144Y-107249993D01*
X148567722Y-107258268D01*
X148567712Y-107258278D01*
X147731109Y-108093897D01*
X147722834Y-108097319D01*
X147717367Y-108095959D01*
X146881226Y-107653296D01*
X146875517Y-107646397D01*
X146875000Y-107642956D01*
X146875000Y-106857043D01*
X146878427Y-106848770D01*
X146881221Y-106846706D01*
X147717369Y-106404039D01*
X147726282Y-106403197D01*
X147731109Y-106406102D01*
G37*
%TD.AperFunction*%
%TD*%
%TA.AperFunction,Conductor*%
%TO.N,/BTN_PREV*%
G36*
X132922856Y-93121447D02*
G01*
X132928789Y-93126931D01*
X133693186Y-94623793D01*
X133693897Y-94632719D01*
X133691039Y-94637387D01*
X133137387Y-95191039D01*
X133129114Y-95194466D01*
X133123793Y-95193186D01*
X131626931Y-94428789D01*
X131621121Y-94421974D01*
X131621437Y-94413905D01*
X131997438Y-93503782D01*
X132003764Y-93497446D01*
X132003767Y-93497444D01*
X132913904Y-93121438D01*
X132922856Y-93121447D01*
G37*
%TD.AperFunction*%
%TD*%
%TA.AperFunction,Conductor*%
%TO.N,/BTN_PREV*%
G36*
X148248625Y-103928567D02*
G01*
X148253697Y-103934277D01*
X148574134Y-104705511D01*
X148574143Y-104714466D01*
X148574134Y-104714489D01*
X148253697Y-105485722D01*
X148247358Y-105492047D01*
X148239734Y-105492499D01*
X146883542Y-105112394D01*
X146876501Y-105106861D01*
X146875000Y-105101128D01*
X146875000Y-104318871D01*
X146878427Y-104310598D01*
X146883539Y-104307606D01*
X148239735Y-103927500D01*
X148248625Y-103928567D01*
G37*
%TD.AperFunction*%
%TD*%
%TA.AperFunction,Conductor*%
%TO.N,/ENC_SW*%
G36*
X131385877Y-79999990D02*
G01*
X131394148Y-80003423D01*
X131397569Y-80011698D01*
X131397363Y-80013874D01*
X131107778Y-81537880D01*
X131104557Y-81543969D01*
X130551876Y-82096650D01*
X130543603Y-82100077D01*
X130535330Y-82096650D01*
X130533649Y-82094526D01*
X129483339Y-80394368D01*
X129481906Y-80385529D01*
X129487144Y-80378265D01*
X129488800Y-80377416D01*
X130397137Y-80000188D01*
X130401624Y-79999294D01*
X131385877Y-79999990D01*
G37*
%TD.AperFunction*%
%TD*%
%TA.AperFunction,Conductor*%
%TO.N,/ENC_SW*%
G36*
X148248625Y-96308567D02*
G01*
X148253697Y-96314277D01*
X148574134Y-97085511D01*
X148574143Y-97094466D01*
X148574134Y-97094489D01*
X148253697Y-97865722D01*
X148247358Y-97872047D01*
X148239734Y-97872499D01*
X146883542Y-97492394D01*
X146876501Y-97486861D01*
X146875000Y-97481128D01*
X146875000Y-96698871D01*
X146878427Y-96690598D01*
X146883539Y-96687606D01*
X148239735Y-96307500D01*
X148248625Y-96308567D01*
G37*
%TD.AperFunction*%
%TD*%
%TA.AperFunction,Conductor*%
%TO.N,/BTN_MUTE*%
G36*
X132399764Y-115503427D02*
G01*
X132402622Y-115508095D01*
X132920553Y-117107047D01*
X132919842Y-117115973D01*
X132913909Y-117121457D01*
X132004487Y-117499136D01*
X131995533Y-117499145D01*
X131995513Y-117499136D01*
X131086090Y-117121457D01*
X131079763Y-117115119D01*
X131079446Y-117107048D01*
X131597378Y-115508095D01*
X131603188Y-115501280D01*
X131608509Y-115500000D01*
X132391491Y-115500000D01*
X132399764Y-115503427D01*
G37*
%TD.AperFunction*%
%TD*%
%TA.AperFunction,Conductor*%
%TO.N,/BTN_MUTE*%
G36*
X132913909Y-111378542D02*
G01*
X132920236Y-111384880D01*
X132920553Y-111392952D01*
X132402622Y-112991905D01*
X132396812Y-112998720D01*
X132391491Y-113000000D01*
X131608509Y-113000000D01*
X131600236Y-112996573D01*
X131597378Y-112991905D01*
X131079446Y-111392952D01*
X131080157Y-111384026D01*
X131086089Y-111378542D01*
X131995514Y-111000862D01*
X132004464Y-111000854D01*
X132913909Y-111378542D01*
G37*
%TD.AperFunction*%
%TD*%
%TA.AperFunction,Conductor*%
%TO.N,/BTN_PREV*%
G36*
X132913909Y-87378542D02*
G01*
X132920236Y-87384880D01*
X132920553Y-87392952D01*
X132402622Y-88991905D01*
X132396812Y-88998720D01*
X132391491Y-89000000D01*
X131608509Y-89000000D01*
X131600236Y-88996573D01*
X131597378Y-88991905D01*
X131079446Y-87392952D01*
X131080157Y-87384026D01*
X131086089Y-87378542D01*
X131995514Y-87000862D01*
X132004464Y-87000854D01*
X132913909Y-87378542D01*
G37*
%TD.AperFunction*%
%TD*%
%TA.AperFunction,Conductor*%
%TO.N,/BTN_PREV*%
G36*
X132399764Y-91503427D02*
G01*
X132402622Y-91508095D01*
X132920553Y-93107047D01*
X132919842Y-93115973D01*
X132913909Y-93121457D01*
X132004487Y-93499136D01*
X131995533Y-93499145D01*
X131995513Y-93499136D01*
X131086090Y-93121457D01*
X131079763Y-93115119D01*
X131079446Y-93107048D01*
X131597378Y-91508095D01*
X131603188Y-91501280D01*
X131608509Y-91500000D01*
X132391491Y-91500000D01*
X132399764Y-91503427D01*
G37*
%TD.AperFunction*%
%TD*%
%TA.AperFunction,Conductor*%
%TO.N,/BTN_NEXT*%
G36*
X132913909Y-99378542D02*
G01*
X132920236Y-99384880D01*
X132920553Y-99392952D01*
X132402622Y-100991905D01*
X132396812Y-100998720D01*
X132391491Y-101000000D01*
X131608509Y-101000000D01*
X131600236Y-100996573D01*
X131597378Y-100991905D01*
X131079446Y-99392952D01*
X131080157Y-99384026D01*
X131086089Y-99378542D01*
X131995514Y-99000862D01*
X132004464Y-99000854D01*
X132913909Y-99378542D01*
G37*
%TD.AperFunction*%
%TD*%
%TA.AperFunction,Conductor*%
%TO.N,/BTN_NEXT*%
G36*
X132399764Y-103503427D02*
G01*
X132402622Y-103508095D01*
X132920553Y-105107047D01*
X132919842Y-105115973D01*
X132913909Y-105121457D01*
X132004487Y-105499136D01*
X131995533Y-105499145D01*
X131995513Y-105499136D01*
X131086090Y-105121457D01*
X131079763Y-105115119D01*
X131079446Y-105107048D01*
X131597378Y-103508095D01*
X131603188Y-103501280D01*
X131608509Y-103500000D01*
X132391491Y-103500000D01*
X132399764Y-103503427D01*
G37*
%TD.AperFunction*%
%TD*%
%TA.AperFunction,Conductor*%
%TO.N,Net-(D1-A)*%
G36*
X139855044Y-124673417D02*
G01*
X139855448Y-124673593D01*
X141479727Y-125422262D01*
X141485806Y-125428838D01*
X141485455Y-125437786D01*
X141483102Y-125441161D01*
X140931335Y-125992928D01*
X140926528Y-125995830D01*
X139854601Y-126328332D01*
X139845684Y-126327510D01*
X139840329Y-126321640D01*
X139501152Y-125503778D01*
X139501149Y-125494824D01*
X139839751Y-124679733D01*
X139846090Y-124673408D01*
X139855044Y-124673417D01*
G37*
%TD.AperFunction*%
%TD*%
%TA.AperFunction,Conductor*%
%TO.N,Net-(D1-A)*%
G36*
X147192865Y-131824697D02*
G01*
X147197764Y-131830307D01*
X147499134Y-132555510D01*
X147499144Y-132564463D01*
X147499135Y-132564485D01*
X147499134Y-132564490D01*
X147197764Y-133289692D01*
X147191425Y-133296017D01*
X147183994Y-133296520D01*
X145908734Y-132962289D01*
X145901600Y-132956876D01*
X145900000Y-132950971D01*
X145900000Y-132169028D01*
X145903427Y-132160755D01*
X145908731Y-132157711D01*
X147183996Y-131823479D01*
X147192865Y-131824697D01*
G37*
%TD.AperFunction*%
%TD*%
%TA.AperFunction,Conductor*%
%TO.N,Net-(D2-A)*%
G36*
X130939538Y-123703427D02*
G01*
X130942483Y-123708375D01*
X131368500Y-125145493D01*
X131367565Y-125154399D01*
X131361770Y-125159623D01*
X130544488Y-125499135D01*
X130535534Y-125499144D01*
X130535512Y-125499135D01*
X129718229Y-125159623D01*
X129711903Y-125153284D01*
X129711499Y-125145494D01*
X130137517Y-123708374D01*
X130143154Y-123701417D01*
X130148735Y-123700000D01*
X130931265Y-123700000D01*
X130939538Y-123703427D01*
G37*
%TD.AperFunction*%
%TD*%
%TA.AperFunction,Conductor*%
%TO.N,Net-(D2-A)*%
G36*
X147192865Y-120324697D02*
G01*
X147197764Y-120330307D01*
X147499134Y-121055510D01*
X147499144Y-121064463D01*
X147499135Y-121064485D01*
X147499134Y-121064490D01*
X147197764Y-121789692D01*
X147191425Y-121796017D01*
X147183994Y-121796520D01*
X145908734Y-121462289D01*
X145901600Y-121456876D01*
X145900000Y-121450971D01*
X145900000Y-120669028D01*
X145903427Y-120660755D01*
X145908731Y-120657711D01*
X147183996Y-120323479D01*
X147192865Y-120324697D01*
G37*
%TD.AperFunction*%
%TD*%
%TA.AperFunction,Conductor*%
%TO.N,/BOOST_P*%
G36*
X173533562Y-117007983D02*
G01*
X173533959Y-117008400D01*
X174291192Y-117844032D01*
X174294208Y-117852463D01*
X174292956Y-117857181D01*
X173726753Y-118973264D01*
X173719954Y-118979092D01*
X173711026Y-118978405D01*
X173708046Y-118976244D01*
X173012850Y-118281048D01*
X173011913Y-118279991D01*
X172681391Y-117858157D01*
X172678987Y-117849533D01*
X172682328Y-117842671D01*
X173517017Y-117007982D01*
X173525289Y-117004556D01*
X173533562Y-117007983D01*
G37*
%TD.AperFunction*%
%TD*%
%TA.AperFunction,Conductor*%
%TO.N,/PWR_SW*%
G36*
X156298993Y-153933109D02*
G01*
X156304569Y-153937939D01*
X156785545Y-154747237D01*
X156787187Y-154753214D01*
X156787187Y-155731766D01*
X156783760Y-155740039D01*
X156775487Y-155743466D01*
X156770612Y-155742402D01*
X155214471Y-155029088D01*
X155208378Y-155022525D01*
X155208531Y-155013989D01*
X155522146Y-154254488D01*
X155528470Y-154248150D01*
X156290040Y-153933105D01*
X156298993Y-153933109D01*
G37*
%TD.AperFunction*%
%TD*%
%TA.AperFunction,Conductor*%
%TO.N,/OUT_P*%
G36*
X126833266Y-133397276D02*
G01*
X127669491Y-134234484D01*
X127672913Y-134242759D01*
X127672032Y-134247207D01*
X127327983Y-135082755D01*
X127321664Y-135089100D01*
X127317164Y-135090000D01*
X126332836Y-135090000D01*
X126324563Y-135086573D01*
X126322017Y-135082755D01*
X126223717Y-134844027D01*
X125977967Y-134247205D01*
X125977986Y-134238252D01*
X125980504Y-134234488D01*
X126816723Y-133397286D01*
X126824993Y-133393855D01*
X126833266Y-133397276D01*
G37*
%TD.AperFunction*%
%TD*%
%TA.AperFunction,Conductor*%
%TO.N,/OUT_P*%
G36*
X152196930Y-152692792D02*
G01*
X153566266Y-153649318D01*
X153571086Y-153656865D01*
X153569158Y-153665610D01*
X153567849Y-153667173D01*
X152987360Y-154249049D01*
X152983542Y-154251600D01*
X152219784Y-154566974D01*
X152210830Y-154566964D01*
X152205374Y-154562323D01*
X151649093Y-153664357D01*
X151648435Y-153663140D01*
X151608777Y-153578094D01*
X151608777Y-153578093D01*
X151495097Y-153415742D01*
X151494765Y-153415238D01*
X151486666Y-153402163D01*
X151485222Y-153393325D01*
X151488337Y-153387731D01*
X152181958Y-152694110D01*
X152190230Y-152690684D01*
X152196930Y-152692792D01*
G37*
%TD.AperFunction*%
%TD*%
%TA.AperFunction,Conductor*%
%TO.N,/BAT_P*%
G36*
X149230809Y-141004465D02*
G01*
X150513931Y-141990724D01*
X150518402Y-141998482D01*
X150516077Y-142007130D01*
X150513931Y-142009276D01*
X149230809Y-142995534D01*
X149222161Y-142997859D01*
X149218447Y-142996723D01*
X148231468Y-142503234D01*
X148225600Y-142496469D01*
X148225000Y-142492769D01*
X148225000Y-141507231D01*
X148228427Y-141498958D01*
X148231468Y-141496766D01*
X149218448Y-141003275D01*
X149227379Y-141002641D01*
X149230809Y-141004465D01*
G37*
%TD.AperFunction*%
%TD*%
%TA.AperFunction,Conductor*%
%TO.N,/BAT_P*%
G36*
X130203476Y-133389990D02*
G01*
X130211745Y-133393424D01*
X130215164Y-133401523D01*
X130231134Y-134519155D01*
X130227826Y-134527476D01*
X130227708Y-134527595D01*
X129534514Y-135220789D01*
X129526241Y-135224216D01*
X129517968Y-135220789D01*
X129516310Y-135218703D01*
X128586992Y-133726982D01*
X128585526Y-133718148D01*
X128590736Y-133710864D01*
X128592423Y-133709995D01*
X129362138Y-133390188D01*
X129366628Y-133389294D01*
X130203476Y-133389990D01*
G37*
%TD.AperFunction*%
%TD*%
M02*
