M48
; DRILL file {KiCad 8.0.9-8.0.9-0~ubuntu24.04.1} date 2026-06-02T16:37:28-0400
; FORMAT={-:-/ absolute / metric / decimal}
; #@! TF.CreationDate,2026-06-02T16:37:28-04:00
; #@! TF.GenerationSoftware,Kicad,Pcbnew,8.0.9-8.0.9-0~ubuntu24.04.1
; #@! TF.FileFunction,Plated,1,2,PTH
FMAT,2
METRIC
; #@! TA.AperFunction,Plated,PTH,ComponentDrill
T1C0.800
; #@! TA.AperFunction,Plated,PTH,ComponentDrill
T2C0.900
; #@! TA.AperFunction,Plated,PTH,ComponentDrill
T3C1.000
; #@! TA.AperFunction,Plated,PTH,ComponentDrill
T4C1.100
; #@! TA.AperFunction,Plated,PTH,ComponentDrill
T5C1.300
%
G90
G05
T1
X147.5Y-113.44
X147.5Y-121.06
X147.5Y-124.94
X147.5Y-132.56
X159.0Y-112.94
X159.0Y-120.56
X159.0Y-125.44
X159.0Y-133.06
T2
X128.0Y-125.5
X130.54Y-125.5
X136.96Y-125.5
X139.5Y-125.5
X150.445Y-154.25
X152.985Y-154.25
X155.525Y-154.25
T3
X126.825Y-133.39
X126.825Y-156.25
X129.365Y-133.39
X129.365Y-156.25
X130.4Y-65.5
X130.4Y-80.0
X131.905Y-133.39
X131.905Y-156.25
X132.9Y-65.5
X134.445Y-133.39
X134.445Y-156.25
X135.4Y-65.5
X135.4Y-80.0
X136.985Y-133.39
X136.985Y-156.25
X139.525Y-133.39
X139.525Y-156.25
X148.575Y-71.69
X148.575Y-74.23
X148.575Y-76.77
X148.575Y-79.31
X148.575Y-81.85
X148.575Y-84.39
X148.575Y-86.93
X148.575Y-89.47
X148.575Y-92.01
X148.575Y-94.55
X148.575Y-97.09
X148.575Y-99.63
X148.575Y-102.17
X148.575Y-104.71
X148.575Y-107.25
X166.42Y-124.77
X166.42Y-155.25
X168.445Y-117.0
X168.96Y-124.77
X168.96Y-155.25
X170.985Y-117.0
X171.5Y-124.77
X171.5Y-155.25
X173.525Y-117.0
X173.975Y-71.69
X173.975Y-74.23
X173.975Y-76.77
X173.975Y-79.31
X173.975Y-81.85
X173.975Y-84.39
X173.975Y-86.93
X173.975Y-89.47
X173.975Y-92.01
X173.975Y-94.55
X173.975Y-97.09
X173.975Y-99.63
X173.975Y-102.17
X173.975Y-104.71
X173.975Y-107.25
X174.04Y-124.77
X174.04Y-155.25
T4
X127.5Y-87.0
X127.5Y-93.5
X127.5Y-99.0
X127.5Y-105.5
X127.5Y-111.0
X127.5Y-117.5
X132.0Y-87.0
X132.0Y-93.5
X132.0Y-99.0
X132.0Y-105.5
X132.0Y-111.0
X132.0Y-117.5
T5
X150.525Y-142.0
X155.525Y-142.0
M30
